<mxfile host="app.diagrams.net" modified="2023-05-25T09:00:30.491Z" agent="Mozilla/5.0 (Macintosh; Intel Mac OS X 10_15_7) AppleWebKit/537.36 (KHTML, like Gecko) Chrome/113.0.0.0 Safari/537.36" etag="b5YEWsrFrW5mw1iQw6nh" version="21.3.3" type="device" pages="7">
  <diagram name="Ex 0. - Acronia " id="oLGAkNpLEcm7zMbL5wd-">
    <mxGraphModel dx="1101" dy="740" grid="1" gridSize="10" guides="1" tooltips="1" connect="1" arrows="1" fold="1" page="1" pageScale="1" pageWidth="850" pageHeight="1100" math="0" shadow="0">
      <root>
        <mxCell id="0" />
        <mxCell id="1" parent="0" />
        <mxCell id="U4cadWkAN24LhjU0FJO_-1" value="Resident" style="swimlane;fontStyle=0;childLayout=stackLayout;horizontal=1;startSize=30;horizontalStack=0;resizeParent=1;resizeParentMax=0;resizeLast=0;collapsible=1;marginBottom=0;whiteSpace=wrap;html=1;" parent="1" vertex="1">
          <mxGeometry x="500" y="240" width="140" height="90" as="geometry" />
        </mxCell>
        <mxCell id="U4cadWkAN24LhjU0FJO_-13" value="name" style="text;strokeColor=none;fillColor=none;align=left;verticalAlign=middle;spacingLeft=4;spacingRight=4;overflow=hidden;points=[[0,0.5],[1,0.5]];portConstraint=eastwest;rotatable=0;whiteSpace=wrap;html=1;" parent="U4cadWkAN24LhjU0FJO_-1" vertex="1">
          <mxGeometry y="30" width="140" height="30" as="geometry" />
        </mxCell>
        <mxCell id="U4cadWkAN24LhjU0FJO_-2" value="apartment_number" style="text;strokeColor=none;fillColor=none;align=left;verticalAlign=middle;spacingLeft=4;spacingRight=4;overflow=hidden;points=[[0,0.5],[1,0.5]];portConstraint=eastwest;rotatable=0;whiteSpace=wrap;html=1;" parent="U4cadWkAN24LhjU0FJO_-1" vertex="1">
          <mxGeometry y="60" width="140" height="30" as="geometry" />
        </mxCell>
        <mxCell id="U4cadWkAN24LhjU0FJO_-5" value="Owner" style="swimlane;fontStyle=0;childLayout=stackLayout;horizontal=1;startSize=30;horizontalStack=0;resizeParent=1;resizeParentMax=0;resizeLast=0;collapsible=1;marginBottom=0;whiteSpace=wrap;html=1;" parent="1" vertex="1">
          <mxGeometry x="620" y="490" width="140" height="60" as="geometry" />
        </mxCell>
        <mxCell id="U4cadWkAN24LhjU0FJO_-6" value="utilities" style="text;strokeColor=none;fillColor=none;align=left;verticalAlign=middle;spacingLeft=4;spacingRight=4;overflow=hidden;points=[[0,0.5],[1,0.5]];portConstraint=eastwest;rotatable=0;whiteSpace=wrap;html=1;" parent="U4cadWkAN24LhjU0FJO_-5" vertex="1">
          <mxGeometry y="30" width="140" height="30" as="geometry" />
        </mxCell>
        <mxCell id="U4cadWkAN24LhjU0FJO_-14" value="Tenant" style="swimlane;fontStyle=0;childLayout=stackLayout;horizontal=1;startSize=30;horizontalStack=0;resizeParent=1;resizeParentMax=0;resizeLast=0;collapsible=1;marginBottom=0;whiteSpace=wrap;html=1;" parent="1" vertex="1">
          <mxGeometry x="380" y="490" width="140" height="60" as="geometry" />
        </mxCell>
        <mxCell id="U4cadWkAN24LhjU0FJO_-15" value="rent" style="text;strokeColor=none;fillColor=none;align=left;verticalAlign=middle;spacingLeft=4;spacingRight=4;overflow=hidden;points=[[0,0.5],[1,0.5]];portConstraint=eastwest;rotatable=0;whiteSpace=wrap;html=1;" parent="U4cadWkAN24LhjU0FJO_-14" vertex="1">
          <mxGeometry y="30" width="140" height="30" as="geometry" />
        </mxCell>
        <mxCell id="U4cadWkAN24LhjU0FJO_-18" value="Parking spot" style="swimlane;fontStyle=0;childLayout=stackLayout;horizontal=1;startSize=30;horizontalStack=0;resizeParent=1;resizeParentMax=0;resizeLast=0;collapsible=1;marginBottom=0;whiteSpace=wrap;html=1;" parent="1" vertex="1">
          <mxGeometry x="620" y="710" width="140" height="120" as="geometry" />
        </mxCell>
        <mxCell id="U4cadWkAN24LhjU0FJO_-19" value="id" style="text;strokeColor=none;fillColor=none;align=left;verticalAlign=middle;spacingLeft=4;spacingRight=4;overflow=hidden;points=[[0,0.5],[1,0.5]];portConstraint=eastwest;rotatable=0;whiteSpace=wrap;html=1;" parent="U4cadWkAN24LhjU0FJO_-18" vertex="1">
          <mxGeometry y="30" width="140" height="30" as="geometry" />
        </mxCell>
        <mxCell id="U4cadWkAN24LhjU0FJO_-34" value="location" style="text;strokeColor=none;fillColor=none;align=left;verticalAlign=middle;spacingLeft=4;spacingRight=4;overflow=hidden;points=[[0,0.5],[1,0.5]];portConstraint=eastwest;rotatable=0;whiteSpace=wrap;html=1;" parent="U4cadWkAN24LhjU0FJO_-18" vertex="1">
          <mxGeometry y="60" width="140" height="30" as="geometry" />
        </mxCell>
        <mxCell id="U4cadWkAN24LhjU0FJO_-35" value="spot_number" style="text;strokeColor=none;fillColor=none;align=left;verticalAlign=middle;spacingLeft=4;spacingRight=4;overflow=hidden;points=[[0,0.5],[1,0.5]];portConstraint=eastwest;rotatable=0;whiteSpace=wrap;html=1;" parent="U4cadWkAN24LhjU0FJO_-18" vertex="1">
          <mxGeometry y="90" width="140" height="30" as="geometry" />
        </mxCell>
        <mxCell id="U4cadWkAN24LhjU0FJO_-22" value="Floor" style="swimlane;fontStyle=0;childLayout=stackLayout;horizontal=1;startSize=30;horizontalStack=0;resizeParent=1;resizeParentMax=0;resizeLast=0;collapsible=1;marginBottom=0;whiteSpace=wrap;html=1;" parent="1" vertex="1">
          <mxGeometry x="80" y="490" width="140" height="60" as="geometry" />
        </mxCell>
        <mxCell id="U4cadWkAN24LhjU0FJO_-23" value="floor_number" style="text;strokeColor=none;fillColor=none;align=left;verticalAlign=middle;spacingLeft=4;spacingRight=4;overflow=hidden;points=[[0,0.5],[1,0.5]];portConstraint=eastwest;rotatable=0;whiteSpace=wrap;html=1;" parent="U4cadWkAN24LhjU0FJO_-22" vertex="1">
          <mxGeometry y="30" width="140" height="30" as="geometry" />
        </mxCell>
        <mxCell id="U4cadWkAN24LhjU0FJO_-30" value="Apartment" style="swimlane;fontStyle=0;childLayout=stackLayout;horizontal=1;startSize=30;horizontalStack=0;resizeParent=1;resizeParentMax=0;resizeLast=0;collapsible=1;marginBottom=0;whiteSpace=wrap;html=1;" parent="1" vertex="1">
          <mxGeometry x="80" y="270" width="140" height="90" as="geometry" />
        </mxCell>
        <mxCell id="U4cadWkAN24LhjU0FJO_-36" value="number" style="text;strokeColor=none;fillColor=none;align=left;verticalAlign=middle;spacingLeft=4;spacingRight=4;overflow=hidden;points=[[0,0.5],[1,0.5]];portConstraint=eastwest;rotatable=0;whiteSpace=wrap;html=1;" parent="U4cadWkAN24LhjU0FJO_-30" vertex="1">
          <mxGeometry y="30" width="140" height="30" as="geometry" />
        </mxCell>
        <mxCell id="U4cadWkAN24LhjU0FJO_-31" value="story_number" style="text;strokeColor=none;fillColor=none;align=left;verticalAlign=middle;spacingLeft=4;spacingRight=4;overflow=hidden;points=[[0,0.5],[1,0.5]];portConstraint=eastwest;rotatable=0;whiteSpace=wrap;html=1;" parent="U4cadWkAN24LhjU0FJO_-30" vertex="1">
          <mxGeometry y="60" width="140" height="30" as="geometry" />
        </mxCell>
        <mxCell id="U4cadWkAN24LhjU0FJO_-37" value="" style="endArrow=none;html=1;rounded=0;exitX=0.5;exitY=0;exitDx=0;exitDy=0;entryX=0.479;entryY=1;entryDx=0;entryDy=0;entryPerimeter=0;" parent="1" source="U4cadWkAN24LhjU0FJO_-14" target="U4cadWkAN24LhjU0FJO_-2" edge="1">
          <mxGeometry width="50" height="50" relative="1" as="geometry">
            <mxPoint x="430" y="530" as="sourcePoint" />
            <mxPoint x="570" y="370" as="targetPoint" />
            <Array as="points">
              <mxPoint x="450" y="460" />
              <mxPoint x="570" y="460" />
            </Array>
          </mxGeometry>
        </mxCell>
        <mxCell id="U4cadWkAN24LhjU0FJO_-39" value="" style="endArrow=none;html=1;rounded=0;entryX=0.5;entryY=0;entryDx=0;entryDy=0;exitX=1;exitY=0.5;exitDx=0;exitDy=0;" parent="1" source="U4cadWkAN24LhjU0FJO_-40" target="U4cadWkAN24LhjU0FJO_-5" edge="1">
          <mxGeometry width="50" height="50" relative="1" as="geometry">
            <mxPoint x="430" y="530" as="sourcePoint" />
            <mxPoint x="650" y="470" as="targetPoint" />
            <Array as="points">
              <mxPoint x="570" y="460" />
              <mxPoint x="690" y="460" />
            </Array>
          </mxGeometry>
        </mxCell>
        <mxCell id="U4cadWkAN24LhjU0FJO_-42" value="{ mandatory, or }" style="edgeLabel;html=1;align=center;verticalAlign=middle;resizable=0;points=[];" parent="U4cadWkAN24LhjU0FJO_-39" vertex="1" connectable="0">
          <mxGeometry x="-0.6186" y="-1" relative="1" as="geometry">
            <mxPoint as="offset" />
          </mxGeometry>
        </mxCell>
        <mxCell id="U4cadWkAN24LhjU0FJO_-41" value="" style="endArrow=none;html=1;rounded=0;entryX=0.5;entryY=0;entryDx=0;entryDy=0;exitX=0.5;exitY=1;exitDx=0;exitDy=0;exitPerimeter=0;" parent="1" target="U4cadWkAN24LhjU0FJO_-40" edge="1">
          <mxGeometry width="50" height="50" relative="1" as="geometry">
            <mxPoint x="570" y="360" as="sourcePoint" />
            <mxPoint x="690" y="490" as="targetPoint" />
            <Array as="points" />
          </mxGeometry>
        </mxCell>
        <mxCell id="U4cadWkAN24LhjU0FJO_-40" value="" style="triangle;whiteSpace=wrap;html=1;rotation=-90;" parent="1" vertex="1">
          <mxGeometry x="560" y="320" width="20" height="30" as="geometry" />
        </mxCell>
        <mxCell id="U4cadWkAN24LhjU0FJO_-43" value="" style="endArrow=none;html=1;rounded=0;entryX=0.507;entryY=1.067;entryDx=0;entryDy=0;entryPerimeter=0;exitX=0.5;exitY=0;exitDx=0;exitDy=0;" parent="1" source="U4cadWkAN24LhjU0FJO_-18" target="U4cadWkAN24LhjU0FJO_-6" edge="1">
          <mxGeometry width="50" height="50" relative="1" as="geometry">
            <mxPoint x="430" y="530" as="sourcePoint" />
            <mxPoint x="480" y="480" as="targetPoint" />
            <Array as="points" />
          </mxGeometry>
        </mxCell>
        <mxCell id="U4cadWkAN24LhjU0FJO_-44" value="0..1" style="edgeLabel;html=1;align=center;verticalAlign=middle;resizable=0;points=[];" parent="U4cadWkAN24LhjU0FJO_-43" vertex="1" connectable="0">
          <mxGeometry x="0.729" relative="1" as="geometry">
            <mxPoint as="offset" />
          </mxGeometry>
        </mxCell>
        <mxCell id="U4cadWkAN24LhjU0FJO_-45" value="0..1" style="edgeLabel;html=1;align=center;verticalAlign=middle;resizable=0;points=[];" parent="U4cadWkAN24LhjU0FJO_-43" vertex="1" connectable="0">
          <mxGeometry x="-0.6441" relative="1" as="geometry">
            <mxPoint as="offset" />
          </mxGeometry>
        </mxCell>
        <mxCell id="U4cadWkAN24LhjU0FJO_-46" value="rents V" style="edgeLabel;html=1;align=center;verticalAlign=middle;resizable=0;points=[];" parent="U4cadWkAN24LhjU0FJO_-43" vertex="1" connectable="0">
          <mxGeometry x="0.0682" y="-2" relative="1" as="geometry">
            <mxPoint as="offset" />
          </mxGeometry>
        </mxCell>
        <mxCell id="U4cadWkAN24LhjU0FJO_-47" value="" style="endArrow=none;html=1;rounded=0;entryX=0;entryY=0.5;entryDx=0;entryDy=0;exitX=1;exitY=0.5;exitDx=0;exitDy=0;" parent="1" source="U4cadWkAN24LhjU0FJO_-36" target="U4cadWkAN24LhjU0FJO_-2" edge="1">
          <mxGeometry width="50" height="50" relative="1" as="geometry">
            <mxPoint x="430" y="530" as="sourcePoint" />
            <mxPoint x="480" y="480" as="targetPoint" />
          </mxGeometry>
        </mxCell>
        <mxCell id="U4cadWkAN24LhjU0FJO_-48" value="&amp;nbsp;&amp;lt; ives in&amp;nbsp;" style="edgeLabel;html=1;align=center;verticalAlign=middle;resizable=0;points=[];" parent="U4cadWkAN24LhjU0FJO_-47" vertex="1" connectable="0">
          <mxGeometry x="0.1615" relative="1" as="geometry">
            <mxPoint x="-31" as="offset" />
          </mxGeometry>
        </mxCell>
        <mxCell id="U4cadWkAN24LhjU0FJO_-49" value="&amp;nbsp;1&amp;nbsp;" style="edgeLabel;html=1;align=center;verticalAlign=middle;resizable=0;points=[];" parent="U4cadWkAN24LhjU0FJO_-47" vertex="1" connectable="0">
          <mxGeometry x="-0.8077" y="-2" relative="1" as="geometry">
            <mxPoint y="-7" as="offset" />
          </mxGeometry>
        </mxCell>
        <mxCell id="U4cadWkAN24LhjU0FJO_-50" value="&amp;nbsp;0..*&amp;nbsp;" style="edgeLabel;html=1;align=center;verticalAlign=middle;resizable=0;points=[];" parent="U4cadWkAN24LhjU0FJO_-47" vertex="1" connectable="0">
          <mxGeometry x="0.8" y="4" relative="1" as="geometry">
            <mxPoint y="-1" as="offset" />
          </mxGeometry>
        </mxCell>
        <mxCell id="U4cadWkAN24LhjU0FJO_-51" value="" style="endArrow=none;html=1;rounded=0;exitX=0.5;exitY=0;exitDx=0;exitDy=0;entryX=0.493;entryY=1;entryDx=0;entryDy=0;entryPerimeter=0;" parent="1" source="U4cadWkAN24LhjU0FJO_-22" target="U4cadWkAN24LhjU0FJO_-31" edge="1">
          <mxGeometry width="50" height="50" relative="1" as="geometry">
            <mxPoint x="430" y="530" as="sourcePoint" />
            <mxPoint x="480" y="480" as="targetPoint" />
          </mxGeometry>
        </mxCell>
        <mxCell id="U4cadWkAN24LhjU0FJO_-53" value="1..*" style="edgeLabel;html=1;align=center;verticalAlign=middle;resizable=0;points=[];" parent="U4cadWkAN24LhjU0FJO_-51" vertex="1" connectable="0">
          <mxGeometry x="0.7382" y="-2" relative="1" as="geometry">
            <mxPoint as="offset" />
          </mxGeometry>
        </mxCell>
        <mxCell id="U4cadWkAN24LhjU0FJO_-54" value="1" style="edgeLabel;html=1;align=center;verticalAlign=middle;resizable=0;points=[];" parent="U4cadWkAN24LhjU0FJO_-51" vertex="1" connectable="0">
          <mxGeometry x="-0.6462" relative="1" as="geometry">
            <mxPoint as="offset" />
          </mxGeometry>
        </mxCell>
        <mxCell id="U4cadWkAN24LhjU0FJO_-55" value="on V" style="edgeLabel;html=1;align=center;verticalAlign=middle;resizable=0;points=[];" parent="U4cadWkAN24LhjU0FJO_-51" vertex="1" connectable="0">
          <mxGeometry x="0.0921" y="-2" relative="1" as="geometry">
            <mxPoint as="offset" />
          </mxGeometry>
        </mxCell>
        <mxCell id="U4cadWkAN24LhjU0FJO_-52" value="" style="endArrow=none;html=1;rounded=0;exitX=1;exitY=0;exitDx=0;exitDy=0;exitPerimeter=0;entryX=0;entryY=0.5;entryDx=0;entryDy=0;" parent="1" source="U4cadWkAN24LhjU0FJO_-23" target="U4cadWkAN24LhjU0FJO_-14" edge="1">
          <mxGeometry width="50" height="50" relative="1" as="geometry">
            <mxPoint x="430" y="530" as="sourcePoint" />
            <mxPoint x="480" y="480" as="targetPoint" />
          </mxGeometry>
        </mxCell>
        <mxCell id="U4cadWkAN24LhjU0FJO_-56" value="&amp;nbsp; &amp;lt; cleans&amp;nbsp;" style="edgeLabel;html=1;align=center;verticalAlign=middle;resizable=0;points=[];" parent="U4cadWkAN24LhjU0FJO_-52" vertex="1" connectable="0">
          <mxGeometry x="-0.1143" y="-1" relative="1" as="geometry">
            <mxPoint as="offset" />
          </mxGeometry>
        </mxCell>
        <mxCell id="U4cadWkAN24LhjU0FJO_-57" value="&amp;nbsp;1..*&amp;nbsp;" style="edgeLabel;html=1;align=center;verticalAlign=middle;resizable=0;points=[];" parent="U4cadWkAN24LhjU0FJO_-52" vertex="1" connectable="0">
          <mxGeometry x="0.7714" relative="1" as="geometry">
            <mxPoint as="offset" />
          </mxGeometry>
        </mxCell>
        <mxCell id="U4cadWkAN24LhjU0FJO_-58" value="&amp;nbsp;1&amp;nbsp;" style="edgeLabel;html=1;align=center;verticalAlign=middle;resizable=0;points=[];" parent="U4cadWkAN24LhjU0FJO_-52" vertex="1" connectable="0">
          <mxGeometry x="-0.8429" y="1" relative="1" as="geometry">
            <mxPoint as="offset" />
          </mxGeometry>
        </mxCell>
        <mxCell id="U4cadWkAN24LhjU0FJO_-59" value="" style="endArrow=none;dashed=1;html=1;dashPattern=1 3;strokeWidth=2;rounded=0;entryX=0.507;entryY=0.967;entryDx=0;entryDy=0;entryPerimeter=0;" parent="1" target="U4cadWkAN24LhjU0FJO_-63" edge="1">
          <mxGeometry width="50" height="50" relative="1" as="geometry">
            <mxPoint x="350" y="310" as="sourcePoint" />
            <mxPoint x="350" y="240" as="targetPoint" />
          </mxGeometry>
        </mxCell>
        <mxCell id="U4cadWkAN24LhjU0FJO_-61" value="lives in" style="swimlane;fontStyle=0;childLayout=stackLayout;horizontal=1;startSize=30;horizontalStack=0;resizeParent=1;resizeParentMax=0;resizeLast=0;collapsible=1;marginBottom=0;whiteSpace=wrap;html=1;" parent="1" vertex="1">
          <mxGeometry x="280" y="160" width="140" height="90" as="geometry" />
        </mxCell>
        <mxCell id="U4cadWkAN24LhjU0FJO_-62" value="move_in_date" style="text;strokeColor=none;fillColor=none;align=left;verticalAlign=middle;spacingLeft=4;spacingRight=4;overflow=hidden;points=[[0,0.5],[1,0.5]];portConstraint=eastwest;rotatable=0;whiteSpace=wrap;html=1;" parent="U4cadWkAN24LhjU0FJO_-61" vertex="1">
          <mxGeometry y="30" width="140" height="30" as="geometry" />
        </mxCell>
        <mxCell id="U4cadWkAN24LhjU0FJO_-63" value="move_out_date" style="text;strokeColor=none;fillColor=none;align=left;verticalAlign=middle;spacingLeft=4;spacingRight=4;overflow=hidden;points=[[0,0.5],[1,0.5]];portConstraint=eastwest;rotatable=0;whiteSpace=wrap;html=1;" parent="U4cadWkAN24LhjU0FJO_-61" vertex="1">
          <mxGeometry y="60" width="140" height="30" as="geometry" />
        </mxCell>
        <mxCell id="U4cadWkAN24LhjU0FJO_-65" value="" style="endArrow=none;dashed=1;html=1;dashPattern=1 3;strokeWidth=2;rounded=0;" parent="1" target="U4cadWkAN24LhjU0FJO_-66" edge="1">
          <mxGeometry width="50" height="50" relative="1" as="geometry">
            <mxPoint x="300" y="520" as="sourcePoint" />
            <mxPoint x="300" y="590" as="targetPoint" />
          </mxGeometry>
        </mxCell>
        <mxCell id="U4cadWkAN24LhjU0FJO_-66" value="cleans" style="swimlane;fontStyle=0;childLayout=stackLayout;horizontal=1;startSize=30;horizontalStack=0;resizeParent=1;resizeParentMax=0;resizeLast=0;collapsible=1;marginBottom=0;whiteSpace=wrap;html=1;" parent="1" vertex="1">
          <mxGeometry x="230" y="620" width="140" height="60" as="geometry" />
        </mxCell>
        <mxCell id="U4cadWkAN24LhjU0FJO_-67" value="month" style="text;strokeColor=none;fillColor=none;align=left;verticalAlign=middle;spacingLeft=4;spacingRight=4;overflow=hidden;points=[[0,0.5],[1,0.5]];portConstraint=eastwest;rotatable=0;whiteSpace=wrap;html=1;" parent="U4cadWkAN24LhjU0FJO_-66" vertex="1">
          <mxGeometry y="30" width="140" height="30" as="geometry" />
        </mxCell>
      </root>
    </mxGraphModel>
  </diagram>
  <diagram id="7NynDScUD2Y0rDj6XIAn" name="Ex 1. - Bus Routes">
    <mxGraphModel dx="1101" dy="740" grid="1" gridSize="10" guides="1" tooltips="1" connect="1" arrows="1" fold="1" page="1" pageScale="1" pageWidth="850" pageHeight="1100" math="0" shadow="0">
      <root>
        <mxCell id="0" />
        <mxCell id="1" parent="0" />
        <mxCell id="wjjLb-r1_PYfqjPJEx2v-1" value="Route" style="swimlane;fontStyle=0;childLayout=stackLayout;horizontal=1;startSize=30;horizontalStack=0;resizeParent=1;resizeParentMax=0;resizeLast=0;collapsible=1;marginBottom=0;whiteSpace=wrap;html=1;" parent="1" vertex="1">
          <mxGeometry x="530" y="110" width="140" height="120" as="geometry" />
        </mxCell>
        <mxCell id="wjjLb-r1_PYfqjPJEx2v-2" value="name" style="text;strokeColor=none;fillColor=none;align=left;verticalAlign=middle;spacingLeft=4;spacingRight=4;overflow=hidden;points=[[0,0.5],[1,0.5]];portConstraint=eastwest;rotatable=0;whiteSpace=wrap;html=1;" parent="wjjLb-r1_PYfqjPJEx2v-1" vertex="1">
          <mxGeometry y="30" width="140" height="30" as="geometry" />
        </mxCell>
        <mxCell id="wjjLb-r1_PYfqjPJEx2v-22" value="departure_time" style="text;strokeColor=none;fillColor=none;align=left;verticalAlign=middle;spacingLeft=4;spacingRight=4;overflow=hidden;points=[[0,0.5],[1,0.5]];portConstraint=eastwest;rotatable=0;whiteSpace=wrap;html=1;" parent="wjjLb-r1_PYfqjPJEx2v-1" vertex="1">
          <mxGeometry y="60" width="140" height="30" as="geometry" />
        </mxCell>
        <mxCell id="wjjLb-r1_PYfqjPJEx2v-23" value="arrival_time" style="text;strokeColor=none;fillColor=none;align=left;verticalAlign=middle;spacingLeft=4;spacingRight=4;overflow=hidden;points=[[0,0.5],[1,0.5]];portConstraint=eastwest;rotatable=0;whiteSpace=wrap;html=1;" parent="wjjLb-r1_PYfqjPJEx2v-1" vertex="1">
          <mxGeometry y="90" width="140" height="30" as="geometry" />
        </mxCell>
        <mxCell id="wjjLb-r1_PYfqjPJEx2v-5" value="Stop" style="swimlane;fontStyle=0;childLayout=stackLayout;horizontal=1;startSize=30;horizontalStack=0;resizeParent=1;resizeParentMax=0;resizeLast=0;collapsible=1;marginBottom=0;whiteSpace=wrap;html=1;" parent="1" vertex="1">
          <mxGeometry x="180" y="140" width="140" height="60" as="geometry" />
        </mxCell>
        <mxCell id="wjjLb-r1_PYfqjPJEx2v-6" value="id" style="text;strokeColor=none;fillColor=none;align=left;verticalAlign=middle;spacingLeft=4;spacingRight=4;overflow=hidden;points=[[0,0.5],[1,0.5]];portConstraint=eastwest;rotatable=0;whiteSpace=wrap;html=1;" parent="wjjLb-r1_PYfqjPJEx2v-5" vertex="1">
          <mxGeometry y="30" width="140" height="30" as="geometry" />
        </mxCell>
        <mxCell id="wjjLb-r1_PYfqjPJEx2v-9" value="City" style="swimlane;fontStyle=0;childLayout=stackLayout;horizontal=1;startSize=30;horizontalStack=0;resizeParent=1;resizeParentMax=0;resizeLast=0;collapsible=1;marginBottom=0;whiteSpace=wrap;html=1;" parent="1" vertex="1">
          <mxGeometry x="70" y="360" width="140" height="90" as="geometry" />
        </mxCell>
        <mxCell id="wjjLb-r1_PYfqjPJEx2v-10" value="street_name" style="text;strokeColor=none;fillColor=none;align=left;verticalAlign=middle;spacingLeft=4;spacingRight=4;overflow=hidden;points=[[0,0.5],[1,0.5]];portConstraint=eastwest;rotatable=0;whiteSpace=wrap;html=1;" parent="wjjLb-r1_PYfqjPJEx2v-9" vertex="1">
          <mxGeometry y="30" width="140" height="30" as="geometry" />
        </mxCell>
        <mxCell id="wjjLb-r1_PYfqjPJEx2v-11" value="letter" style="text;strokeColor=none;fillColor=none;align=left;verticalAlign=middle;spacingLeft=4;spacingRight=4;overflow=hidden;points=[[0,0.5],[1,0.5]];portConstraint=eastwest;rotatable=0;whiteSpace=wrap;html=1;" parent="wjjLb-r1_PYfqjPJEx2v-9" vertex="1">
          <mxGeometry y="60" width="140" height="30" as="geometry" />
        </mxCell>
        <mxCell id="wjjLb-r1_PYfqjPJEx2v-14" value="Rural" style="swimlane;fontStyle=0;childLayout=stackLayout;horizontal=1;startSize=30;horizontalStack=0;resizeParent=1;resizeParentMax=0;resizeLast=0;collapsible=1;marginBottom=0;whiteSpace=wrap;html=1;" parent="1" vertex="1">
          <mxGeometry x="280" y="360" width="140" height="90" as="geometry" />
        </mxCell>
        <mxCell id="wjjLb-r1_PYfqjPJEx2v-15" value="longitude" style="text;strokeColor=none;fillColor=none;align=left;verticalAlign=middle;spacingLeft=4;spacingRight=4;overflow=hidden;points=[[0,0.5],[1,0.5]];portConstraint=eastwest;rotatable=0;whiteSpace=wrap;html=1;" parent="wjjLb-r1_PYfqjPJEx2v-14" vertex="1">
          <mxGeometry y="30" width="140" height="30" as="geometry" />
        </mxCell>
        <mxCell id="wjjLb-r1_PYfqjPJEx2v-16" value="lattitude" style="text;strokeColor=none;fillColor=none;align=left;verticalAlign=middle;spacingLeft=4;spacingRight=4;overflow=hidden;points=[[0,0.5],[1,0.5]];portConstraint=eastwest;rotatable=0;whiteSpace=wrap;html=1;" parent="wjjLb-r1_PYfqjPJEx2v-14" vertex="1">
          <mxGeometry y="60" width="140" height="30" as="geometry" />
        </mxCell>
        <mxCell id="wjjLb-r1_PYfqjPJEx2v-24" value="Departure" style="swimlane;fontStyle=0;childLayout=stackLayout;horizontal=1;startSize=30;horizontalStack=0;resizeParent=1;resizeParentMax=0;resizeLast=0;collapsible=1;marginBottom=0;whiteSpace=wrap;html=1;" parent="1" vertex="1">
          <mxGeometry x="660" y="360" width="140" height="60" as="geometry" />
        </mxCell>
        <mxCell id="wjjLb-r1_PYfqjPJEx2v-25" value="start_time" style="text;strokeColor=none;fillColor=none;align=left;verticalAlign=middle;spacingLeft=4;spacingRight=4;overflow=hidden;points=[[0,0.5],[1,0.5]];portConstraint=eastwest;rotatable=0;whiteSpace=wrap;html=1;" parent="wjjLb-r1_PYfqjPJEx2v-24" vertex="1">
          <mxGeometry y="30" width="140" height="30" as="geometry" />
        </mxCell>
        <mxCell id="wjjLb-r1_PYfqjPJEx2v-29" value="" style="endArrow=none;html=1;rounded=0;entryX=0;entryY=0.5;entryDx=0;entryDy=0;" parent="1" target="wjjLb-r1_PYfqjPJEx2v-22" edge="1">
          <mxGeometry width="50" height="50" relative="1" as="geometry">
            <mxPoint x="320" y="185" as="sourcePoint" />
            <mxPoint x="450" y="210" as="targetPoint" />
          </mxGeometry>
        </mxCell>
        <mxCell id="wjjLb-r1_PYfqjPJEx2v-36" value="&amp;nbsp;1..*&amp;nbsp;" style="edgeLabel;html=1;align=center;verticalAlign=middle;resizable=0;points=[];" parent="wjjLb-r1_PYfqjPJEx2v-29" vertex="1" connectable="0">
          <mxGeometry x="-0.6" y="1" relative="1" as="geometry">
            <mxPoint as="offset" />
          </mxGeometry>
        </mxCell>
        <mxCell id="wjjLb-r1_PYfqjPJEx2v-37" value="&amp;nbsp;0..*&amp;nbsp;" style="edgeLabel;html=1;align=center;verticalAlign=middle;resizable=0;points=[];" parent="wjjLb-r1_PYfqjPJEx2v-29" vertex="1" connectable="0">
          <mxGeometry x="0.7333" y="1" relative="1" as="geometry">
            <mxPoint as="offset" />
          </mxGeometry>
        </mxCell>
        <mxCell id="wjjLb-r1_PYfqjPJEx2v-38" value="&amp;nbsp; &amp;lt; includes&amp;nbsp;" style="edgeLabel;html=1;align=center;verticalAlign=middle;resizable=0;points=[];" parent="wjjLb-r1_PYfqjPJEx2v-29" vertex="1" connectable="0">
          <mxGeometry x="0.08" y="4" relative="1" as="geometry">
            <mxPoint as="offset" />
          </mxGeometry>
        </mxCell>
        <mxCell id="wjjLb-r1_PYfqjPJEx2v-30" value="" style="endArrow=none;html=1;rounded=0;exitX=0.5;exitY=0;exitDx=0;exitDy=0;entryX=0.5;entryY=1.033;entryDx=0;entryDy=0;entryPerimeter=0;" parent="1" source="wjjLb-r1_PYfqjPJEx2v-9" edge="1">
          <mxGeometry width="50" height="50" relative="1" as="geometry">
            <mxPoint x="400" y="260" as="sourcePoint" />
            <mxPoint x="250" y="200.99" as="targetPoint" />
            <Array as="points">
              <mxPoint x="140" y="300" />
              <mxPoint x="250" y="300" />
            </Array>
          </mxGeometry>
        </mxCell>
        <mxCell id="wjjLb-r1_PYfqjPJEx2v-31" value="" style="endArrow=none;html=1;rounded=0;exitX=0.5;exitY=0;exitDx=0;exitDy=0;entryX=0.507;entryY=1.033;entryDx=0;entryDy=0;entryPerimeter=0;" parent="1" source="wjjLb-r1_PYfqjPJEx2v-34" edge="1">
          <mxGeometry width="50" height="50" relative="1" as="geometry">
            <mxPoint x="400" y="260" as="sourcePoint" />
            <mxPoint x="250.98000000000002" y="200.99" as="targetPoint" />
            <Array as="points" />
          </mxGeometry>
        </mxCell>
        <mxCell id="wjjLb-r1_PYfqjPJEx2v-33" value="{ mandatory, or }" style="edgeLabel;html=1;align=center;verticalAlign=middle;resizable=0;points=[];" parent="wjjLb-r1_PYfqjPJEx2v-31" vertex="1" connectable="0">
          <mxGeometry x="0.6052" y="-2" relative="1" as="geometry">
            <mxPoint x="-2" y="76" as="offset" />
          </mxGeometry>
        </mxCell>
        <mxCell id="wjjLb-r1_PYfqjPJEx2v-32" value="" style="endArrow=none;html=1;rounded=0;exitX=0.5;exitY=0;exitDx=0;exitDy=0;entryX=1;entryY=0.5;entryDx=0;entryDy=0;" parent="1" source="wjjLb-r1_PYfqjPJEx2v-24" target="wjjLb-r1_PYfqjPJEx2v-22" edge="1">
          <mxGeometry width="50" height="50" relative="1" as="geometry">
            <mxPoint x="400" y="260" as="sourcePoint" />
            <mxPoint x="450" y="210" as="targetPoint" />
            <Array as="points">
              <mxPoint x="730" y="185" />
            </Array>
          </mxGeometry>
        </mxCell>
        <mxCell id="wjjLb-r1_PYfqjPJEx2v-39" value="&amp;nbsp;0..*&amp;nbsp;" style="edgeLabel;html=1;align=center;verticalAlign=middle;resizable=0;points=[];" parent="wjjLb-r1_PYfqjPJEx2v-32" vertex="1" connectable="0">
          <mxGeometry x="0.8723" y="1" relative="1" as="geometry">
            <mxPoint as="offset" />
          </mxGeometry>
        </mxCell>
        <mxCell id="wjjLb-r1_PYfqjPJEx2v-40" value="0..*" style="edgeLabel;html=1;align=center;verticalAlign=middle;resizable=0;points=[];" parent="wjjLb-r1_PYfqjPJEx2v-32" vertex="1" connectable="0">
          <mxGeometry x="-0.8298" y="-1" relative="1" as="geometry">
            <mxPoint as="offset" />
          </mxGeometry>
        </mxCell>
        <mxCell id="wjjLb-r1_PYfqjPJEx2v-41" value="drives /\" style="edgeLabel;html=1;align=center;verticalAlign=middle;resizable=0;points=[];" parent="wjjLb-r1_PYfqjPJEx2v-32" vertex="1" connectable="0">
          <mxGeometry x="-0.2255" y="-1" relative="1" as="geometry">
            <mxPoint as="offset" />
          </mxGeometry>
        </mxCell>
        <mxCell id="wjjLb-r1_PYfqjPJEx2v-42" value="Bus" style="swimlane;fontStyle=0;childLayout=stackLayout;horizontal=1;startSize=30;horizontalStack=0;resizeParent=1;resizeParentMax=0;resizeLast=0;collapsible=1;marginBottom=0;whiteSpace=wrap;html=1;" parent="1" vertex="1">
          <mxGeometry x="460" y="520" width="140" height="60" as="geometry" />
        </mxCell>
        <mxCell id="wjjLb-r1_PYfqjPJEx2v-43" value="driver_license_plate" style="text;strokeColor=none;fillColor=none;align=left;verticalAlign=middle;spacingLeft=4;spacingRight=4;overflow=hidden;points=[[0,0.5],[1,0.5]];portConstraint=eastwest;rotatable=0;whiteSpace=wrap;html=1;" parent="wjjLb-r1_PYfqjPJEx2v-42" vertex="1">
          <mxGeometry y="30" width="140" height="30" as="geometry" />
        </mxCell>
        <mxCell id="wjjLb-r1_PYfqjPJEx2v-46" value="Driver" style="swimlane;fontStyle=0;childLayout=stackLayout;horizontal=1;startSize=30;horizontalStack=0;resizeParent=1;resizeParentMax=0;resizeLast=0;collapsible=1;marginBottom=0;whiteSpace=wrap;html=1;" parent="1" vertex="1">
          <mxGeometry x="660" y="590" width="140" height="60" as="geometry" />
        </mxCell>
        <mxCell id="wjjLb-r1_PYfqjPJEx2v-47" value="name" style="text;strokeColor=none;fillColor=none;align=left;verticalAlign=middle;spacingLeft=4;spacingRight=4;overflow=hidden;points=[[0,0.5],[1,0.5]];portConstraint=eastwest;rotatable=0;whiteSpace=wrap;html=1;" parent="wjjLb-r1_PYfqjPJEx2v-46" vertex="1">
          <mxGeometry y="30" width="140" height="30" as="geometry" />
        </mxCell>
        <mxCell id="wjjLb-r1_PYfqjPJEx2v-48" value="" style="endArrow=none;html=1;rounded=0;exitX=0.5;exitY=0;exitDx=0;exitDy=0;entryX=0.507;entryY=1;entryDx=0;entryDy=0;entryPerimeter=0;" parent="1" source="wjjLb-r1_PYfqjPJEx2v-46" target="wjjLb-r1_PYfqjPJEx2v-25" edge="1">
          <mxGeometry width="50" height="50" relative="1" as="geometry">
            <mxPoint x="440" y="480" as="sourcePoint" />
            <mxPoint x="490" y="430" as="targetPoint" />
          </mxGeometry>
        </mxCell>
        <mxCell id="wjjLb-r1_PYfqjPJEx2v-50" value="1" style="edgeLabel;html=1;align=center;verticalAlign=middle;resizable=0;points=[];" parent="wjjLb-r1_PYfqjPJEx2v-48" vertex="1" connectable="0">
          <mxGeometry x="-0.7413" y="2" relative="1" as="geometry">
            <mxPoint as="offset" />
          </mxGeometry>
        </mxCell>
        <mxCell id="wjjLb-r1_PYfqjPJEx2v-51" value="1..*" style="edgeLabel;html=1;align=center;verticalAlign=middle;resizable=0;points=[];" parent="wjjLb-r1_PYfqjPJEx2v-48" vertex="1" connectable="0">
          <mxGeometry x="0.6943" y="-2" relative="1" as="geometry">
            <mxPoint as="offset" />
          </mxGeometry>
        </mxCell>
        <mxCell id="wjjLb-r1_PYfqjPJEx2v-52" value="assigned to /\&amp;nbsp;" style="edgeLabel;html=1;align=center;verticalAlign=middle;resizable=0;points=[];" parent="wjjLb-r1_PYfqjPJEx2v-48" vertex="1" connectable="0">
          <mxGeometry x="-0.0234" y="-2" relative="1" as="geometry">
            <mxPoint as="offset" />
          </mxGeometry>
        </mxCell>
        <mxCell id="wjjLb-r1_PYfqjPJEx2v-49" value="" style="endArrow=none;html=1;rounded=0;entryX=-0.007;entryY=0;entryDx=0;entryDy=0;entryPerimeter=0;exitX=0.5;exitY=0;exitDx=0;exitDy=0;" parent="1" source="wjjLb-r1_PYfqjPJEx2v-42" target="wjjLb-r1_PYfqjPJEx2v-25" edge="1">
          <mxGeometry width="50" height="50" relative="1" as="geometry">
            <mxPoint x="440" y="480" as="sourcePoint" />
            <mxPoint x="490" y="430" as="targetPoint" />
            <Array as="points">
              <mxPoint x="530" y="390" />
            </Array>
          </mxGeometry>
        </mxCell>
        <mxCell id="wjjLb-r1_PYfqjPJEx2v-53" value="0..*" style="edgeLabel;html=1;align=center;verticalAlign=middle;resizable=0;points=[];" parent="wjjLb-r1_PYfqjPJEx2v-49" vertex="1" connectable="0">
          <mxGeometry x="0.7836" y="3" relative="1" as="geometry">
            <mxPoint as="offset" />
          </mxGeometry>
        </mxCell>
        <mxCell id="wjjLb-r1_PYfqjPJEx2v-54" value="1" style="edgeLabel;html=1;align=center;verticalAlign=middle;resizable=0;points=[];" parent="wjjLb-r1_PYfqjPJEx2v-49" vertex="1" connectable="0">
          <mxGeometry x="-0.7838" y="2" relative="1" as="geometry">
            <mxPoint as="offset" />
          </mxGeometry>
        </mxCell>
        <mxCell id="wjjLb-r1_PYfqjPJEx2v-55" value="driven by V" style="edgeLabel;html=1;align=center;verticalAlign=middle;resizable=0;points=[];" parent="wjjLb-r1_PYfqjPJEx2v-49" vertex="1" connectable="0">
          <mxGeometry x="-0.1661" relative="1" as="geometry">
            <mxPoint as="offset" />
          </mxGeometry>
        </mxCell>
        <mxCell id="wjjLb-r1_PYfqjPJEx2v-56" value="" style="endArrow=none;dashed=1;html=1;dashPattern=1 3;strokeWidth=2;rounded=0;" parent="1" target="wjjLb-r1_PYfqjPJEx2v-57" edge="1">
          <mxGeometry width="50" height="50" relative="1" as="geometry">
            <mxPoint x="430" y="180" as="sourcePoint" />
            <mxPoint x="440" y="120" as="targetPoint" />
          </mxGeometry>
        </mxCell>
        <mxCell id="wjjLb-r1_PYfqjPJEx2v-57" value="Includes" style="swimlane;fontStyle=0;childLayout=stackLayout;horizontal=1;startSize=30;horizontalStack=0;resizeParent=1;resizeParentMax=0;resizeLast=0;collapsible=1;marginBottom=0;whiteSpace=wrap;html=1;" parent="1" vertex="1">
          <mxGeometry x="360" y="20" width="140" height="90" as="geometry" />
        </mxCell>
        <mxCell id="wjjLb-r1_PYfqjPJEx2v-58" value="minutes_from_terminal" style="text;strokeColor=none;fillColor=none;align=left;verticalAlign=middle;spacingLeft=4;spacingRight=4;overflow=hidden;points=[[0,0.5],[1,0.5]];portConstraint=eastwest;rotatable=0;whiteSpace=wrap;html=1;" parent="wjjLb-r1_PYfqjPJEx2v-57" vertex="1">
          <mxGeometry y="30" width="140" height="30" as="geometry" />
        </mxCell>
        <mxCell id="wjjLb-r1_PYfqjPJEx2v-59" value="order" style="text;strokeColor=none;fillColor=none;align=left;verticalAlign=middle;spacingLeft=4;spacingRight=4;overflow=hidden;points=[[0,0.5],[1,0.5]];portConstraint=eastwest;rotatable=0;whiteSpace=wrap;html=1;" parent="wjjLb-r1_PYfqjPJEx2v-57" vertex="1">
          <mxGeometry y="60" width="140" height="30" as="geometry" />
        </mxCell>
        <mxCell id="wjjLb-r1_PYfqjPJEx2v-65" value="" style="endArrow=none;html=1;rounded=0;exitX=0.5;exitY=0;exitDx=0;exitDy=0;entryX=1;entryY=0.5;entryDx=0;entryDy=0;" parent="1" source="wjjLb-r1_PYfqjPJEx2v-14" target="wjjLb-r1_PYfqjPJEx2v-34" edge="1">
          <mxGeometry width="50" height="50" relative="1" as="geometry">
            <mxPoint x="350" y="360" as="sourcePoint" />
            <mxPoint x="250.98000000000002" y="200.99" as="targetPoint" />
            <Array as="points">
              <mxPoint x="350" y="300" />
              <mxPoint x="251" y="300" />
            </Array>
          </mxGeometry>
        </mxCell>
        <mxCell id="wjjLb-r1_PYfqjPJEx2v-34" value="" style="triangle;whiteSpace=wrap;html=1;rotation=-90;" parent="1" vertex="1">
          <mxGeometry x="242.5" y="200" width="15" height="20" as="geometry" />
        </mxCell>
      </root>
    </mxGraphModel>
  </diagram>
  <diagram id="UF_1N8ZB8lLl8D3C-Q80" name="Ex 2. - WebFlix">
    <mxGraphModel dx="1768" dy="617" grid="1" gridSize="10" guides="1" tooltips="1" connect="1" arrows="1" fold="1" page="1" pageScale="1" pageWidth="850" pageHeight="1100" math="0" shadow="0">
      <root>
        <mxCell id="0" />
        <mxCell id="1" parent="0" />
        <mxCell id="ye36ROyUvA33ieE3yJKo-1" value="Account" style="swimlane;fontStyle=0;childLayout=stackLayout;horizontal=1;startSize=30;horizontalStack=0;resizeParent=1;resizeParentMax=0;resizeLast=0;collapsible=1;marginBottom=0;whiteSpace=wrap;html=1;" parent="1" vertex="1">
          <mxGeometry x="-360" y="80" width="140" height="120" as="geometry" />
        </mxCell>
        <mxCell id="ye36ROyUvA33ieE3yJKo-2" value="email" style="text;strokeColor=none;fillColor=none;align=left;verticalAlign=middle;spacingLeft=4;spacingRight=4;overflow=hidden;points=[[0,0.5],[1,0.5]];portConstraint=eastwest;rotatable=0;whiteSpace=wrap;html=1;" parent="ye36ROyUvA33ieE3yJKo-1" vertex="1">
          <mxGeometry y="30" width="140" height="30" as="geometry" />
        </mxCell>
        <mxCell id="ye36ROyUvA33ieE3yJKo-3" value="password" style="text;strokeColor=none;fillColor=none;align=left;verticalAlign=middle;spacingLeft=4;spacingRight=4;overflow=hidden;points=[[0,0.5],[1,0.5]];portConstraint=eastwest;rotatable=0;whiteSpace=wrap;html=1;" parent="ye36ROyUvA33ieE3yJKo-1" vertex="1">
          <mxGeometry y="60" width="140" height="30" as="geometry" />
        </mxCell>
        <mxCell id="ye36ROyUvA33ieE3yJKo-4" value="subscription" style="text;strokeColor=none;fillColor=none;align=left;verticalAlign=middle;spacingLeft=4;spacingRight=4;overflow=hidden;points=[[0,0.5],[1,0.5]];portConstraint=eastwest;rotatable=0;whiteSpace=wrap;html=1;" parent="ye36ROyUvA33ieE3yJKo-1" vertex="1">
          <mxGeometry y="90" width="140" height="30" as="geometry" />
        </mxCell>
        <mxCell id="ye36ROyUvA33ieE3yJKo-5" value="media" style="swimlane;fontStyle=0;childLayout=stackLayout;horizontal=1;startSize=30;horizontalStack=0;resizeParent=1;resizeParentMax=0;resizeLast=0;collapsible=1;marginBottom=0;whiteSpace=wrap;html=1;" parent="1" vertex="1">
          <mxGeometry x="-360" y="540" width="140" height="120" as="geometry" />
        </mxCell>
        <mxCell id="ye36ROyUvA33ieE3yJKo-6" value="title" style="text;strokeColor=none;fillColor=none;align=left;verticalAlign=middle;spacingLeft=4;spacingRight=4;overflow=hidden;points=[[0,0.5],[1,0.5]];portConstraint=eastwest;rotatable=0;whiteSpace=wrap;html=1;" parent="ye36ROyUvA33ieE3yJKo-5" vertex="1">
          <mxGeometry y="30" width="140" height="30" as="geometry" />
        </mxCell>
        <mxCell id="ye36ROyUvA33ieE3yJKo-7" value="year_of_release" style="text;strokeColor=none;fillColor=none;align=left;verticalAlign=middle;spacingLeft=4;spacingRight=4;overflow=hidden;points=[[0,0.5],[1,0.5]];portConstraint=eastwest;rotatable=0;whiteSpace=wrap;html=1;" parent="ye36ROyUvA33ieE3yJKo-5" vertex="1">
          <mxGeometry y="60" width="140" height="30" as="geometry" />
        </mxCell>
        <mxCell id="ye36ROyUvA33ieE3yJKo-8" value="description" style="text;strokeColor=none;fillColor=none;align=left;verticalAlign=middle;spacingLeft=4;spacingRight=4;overflow=hidden;points=[[0,0.5],[1,0.5]];portConstraint=eastwest;rotatable=0;whiteSpace=wrap;html=1;" parent="ye36ROyUvA33ieE3yJKo-5" vertex="1">
          <mxGeometry y="90" width="140" height="30" as="geometry" />
        </mxCell>
        <mxCell id="ye36ROyUvA33ieE3yJKo-9" value="Movie" style="swimlane;fontStyle=0;childLayout=stackLayout;horizontal=1;startSize=30;horizontalStack=0;resizeParent=1;resizeParentMax=0;resizeLast=0;collapsible=1;marginBottom=0;whiteSpace=wrap;html=1;" parent="1" vertex="1">
          <mxGeometry x="-520" y="780" width="140" height="90" as="geometry" />
        </mxCell>
        <mxCell id="ye36ROyUvA33ieE3yJKo-10" value="run_time" style="text;strokeColor=none;fillColor=none;align=left;verticalAlign=middle;spacingLeft=4;spacingRight=4;overflow=hidden;points=[[0,0.5],[1,0.5]];portConstraint=eastwest;rotatable=0;whiteSpace=wrap;html=1;" parent="ye36ROyUvA33ieE3yJKo-9" vertex="1">
          <mxGeometry y="30" width="140" height="30" as="geometry" />
        </mxCell>
        <mxCell id="ye36ROyUvA33ieE3yJKo-11" value="genre" style="text;strokeColor=none;fillColor=none;align=left;verticalAlign=middle;spacingLeft=4;spacingRight=4;overflow=hidden;points=[[0,0.5],[1,0.5]];portConstraint=eastwest;rotatable=0;whiteSpace=wrap;html=1;" parent="ye36ROyUvA33ieE3yJKo-9" vertex="1">
          <mxGeometry y="60" width="140" height="30" as="geometry" />
        </mxCell>
        <mxCell id="ye36ROyUvA33ieE3yJKo-13" value="Documentary" style="swimlane;fontStyle=0;childLayout=stackLayout;horizontal=1;startSize=30;horizontalStack=0;resizeParent=1;resizeParentMax=0;resizeLast=0;collapsible=1;marginBottom=0;whiteSpace=wrap;html=1;" parent="1" vertex="1">
          <mxGeometry x="-360" y="780" width="140" height="90" as="geometry" />
        </mxCell>
        <mxCell id="ye36ROyUvA33ieE3yJKo-14" value="run_time" style="text;strokeColor=none;fillColor=none;align=left;verticalAlign=middle;spacingLeft=4;spacingRight=4;overflow=hidden;points=[[0,0.5],[1,0.5]];portConstraint=eastwest;rotatable=0;whiteSpace=wrap;html=1;" parent="ye36ROyUvA33ieE3yJKo-13" vertex="1">
          <mxGeometry y="30" width="140" height="30" as="geometry" />
        </mxCell>
        <mxCell id="ye36ROyUvA33ieE3yJKo-15" value="type" style="text;strokeColor=none;fillColor=none;align=left;verticalAlign=middle;spacingLeft=4;spacingRight=4;overflow=hidden;points=[[0,0.5],[1,0.5]];portConstraint=eastwest;rotatable=0;whiteSpace=wrap;html=1;" parent="ye36ROyUvA33ieE3yJKo-13" vertex="1">
          <mxGeometry y="60" width="140" height="30" as="geometry" />
        </mxCell>
        <mxCell id="ye36ROyUvA33ieE3yJKo-17" value="Tv Show" style="swimlane;fontStyle=0;childLayout=stackLayout;horizontal=1;startSize=30;horizontalStack=0;resizeParent=1;resizeParentMax=0;resizeLast=0;collapsible=1;marginBottom=0;whiteSpace=wrap;html=1;" parent="1" vertex="1">
          <mxGeometry x="-200" y="780" width="140" height="60" as="geometry" />
        </mxCell>
        <mxCell id="ye36ROyUvA33ieE3yJKo-18" value="number_of_seasons" style="text;strokeColor=none;fillColor=none;align=left;verticalAlign=middle;spacingLeft=4;spacingRight=4;overflow=hidden;points=[[0,0.5],[1,0.5]];portConstraint=eastwest;rotatable=0;whiteSpace=wrap;html=1;" parent="ye36ROyUvA33ieE3yJKo-17" vertex="1">
          <mxGeometry y="30" width="140" height="30" as="geometry" />
        </mxCell>
        <mxCell id="ye36ROyUvA33ieE3yJKo-21" value="Top 10" style="swimlane;fontStyle=0;childLayout=stackLayout;horizontal=1;startSize=30;horizontalStack=0;resizeParent=1;resizeParentMax=0;resizeLast=0;collapsible=1;marginBottom=0;whiteSpace=wrap;html=1;" parent="1" vertex="1">
          <mxGeometry x="-840" y="790" width="140" height="60" as="geometry" />
        </mxCell>
        <mxCell id="ye36ROyUvA33ieE3yJKo-44" value="country" style="text;strokeColor=none;fillColor=none;align=left;verticalAlign=middle;spacingLeft=4;spacingRight=4;overflow=hidden;points=[[0,0.5],[1,0.5]];portConstraint=eastwest;rotatable=0;whiteSpace=wrap;html=1;" parent="ye36ROyUvA33ieE3yJKo-21" vertex="1">
          <mxGeometry y="30" width="140" height="30" as="geometry" />
        </mxCell>
        <mxCell id="ye36ROyUvA33ieE3yJKo-25" value="Season" style="swimlane;fontStyle=0;childLayout=stackLayout;horizontal=1;startSize=30;horizontalStack=0;resizeParent=1;resizeParentMax=0;resizeLast=0;collapsible=1;marginBottom=0;whiteSpace=wrap;html=1;" parent="1" vertex="1">
          <mxGeometry x="-190" y="950" width="140" height="120" as="geometry" />
        </mxCell>
        <mxCell id="ye36ROyUvA33ieE3yJKo-26" value="number" style="text;strokeColor=none;fillColor=none;align=left;verticalAlign=middle;spacingLeft=4;spacingRight=4;overflow=hidden;points=[[0,0.5],[1,0.5]];portConstraint=eastwest;rotatable=0;whiteSpace=wrap;html=1;" parent="ye36ROyUvA33ieE3yJKo-25" vertex="1">
          <mxGeometry y="30" width="140" height="30" as="geometry" />
        </mxCell>
        <mxCell id="ye36ROyUvA33ieE3yJKo-27" value="release_year" style="text;strokeColor=none;fillColor=none;align=left;verticalAlign=middle;spacingLeft=4;spacingRight=4;overflow=hidden;points=[[0,0.5],[1,0.5]];portConstraint=eastwest;rotatable=0;whiteSpace=wrap;html=1;" parent="ye36ROyUvA33ieE3yJKo-25" vertex="1">
          <mxGeometry y="60" width="140" height="30" as="geometry" />
        </mxCell>
        <mxCell id="ye36ROyUvA33ieE3yJKo-28" value="number_of_episodes" style="text;strokeColor=none;fillColor=none;align=left;verticalAlign=middle;spacingLeft=4;spacingRight=4;overflow=hidden;points=[[0,0.5],[1,0.5]];portConstraint=eastwest;rotatable=0;whiteSpace=wrap;html=1;" parent="ye36ROyUvA33ieE3yJKo-25" vertex="1">
          <mxGeometry y="90" width="140" height="30" as="geometry" />
        </mxCell>
        <mxCell id="ye36ROyUvA33ieE3yJKo-30" value="Episode" style="swimlane;fontStyle=0;childLayout=stackLayout;horizontal=1;startSize=30;horizontalStack=0;resizeParent=1;resizeParentMax=0;resizeLast=0;collapsible=1;marginBottom=0;whiteSpace=wrap;html=1;" parent="1" vertex="1">
          <mxGeometry x="-520" y="950" width="140" height="120" as="geometry" />
        </mxCell>
        <mxCell id="ye36ROyUvA33ieE3yJKo-31" value="number" style="text;strokeColor=none;fillColor=none;align=left;verticalAlign=middle;spacingLeft=4;spacingRight=4;overflow=hidden;points=[[0,0.5],[1,0.5]];portConstraint=eastwest;rotatable=0;whiteSpace=wrap;html=1;" parent="ye36ROyUvA33ieE3yJKo-30" vertex="1">
          <mxGeometry y="30" width="140" height="30" as="geometry" />
        </mxCell>
        <mxCell id="ye36ROyUvA33ieE3yJKo-32" value="title" style="text;strokeColor=none;fillColor=none;align=left;verticalAlign=middle;spacingLeft=4;spacingRight=4;overflow=hidden;points=[[0,0.5],[1,0.5]];portConstraint=eastwest;rotatable=0;whiteSpace=wrap;html=1;" parent="ye36ROyUvA33ieE3yJKo-30" vertex="1">
          <mxGeometry y="60" width="140" height="30" as="geometry" />
        </mxCell>
        <mxCell id="ye36ROyUvA33ieE3yJKo-33" value="run_time" style="text;strokeColor=none;fillColor=none;align=left;verticalAlign=middle;spacingLeft=4;spacingRight=4;overflow=hidden;points=[[0,0.5],[1,0.5]];portConstraint=eastwest;rotatable=0;whiteSpace=wrap;html=1;" parent="ye36ROyUvA33ieE3yJKo-30" vertex="1">
          <mxGeometry y="90" width="140" height="30" as="geometry" />
        </mxCell>
        <mxCell id="ye36ROyUvA33ieE3yJKo-34" value="Profile" style="swimlane;fontStyle=0;childLayout=stackLayout;horizontal=1;startSize=30;horizontalStack=0;resizeParent=1;resizeParentMax=0;resizeLast=0;collapsible=1;marginBottom=0;whiteSpace=wrap;html=1;" parent="1" vertex="1">
          <mxGeometry x="-700" y="95" width="140" height="90" as="geometry" />
        </mxCell>
        <mxCell id="ye36ROyUvA33ieE3yJKo-35" value="profile_name" style="text;strokeColor=none;fillColor=none;align=left;verticalAlign=middle;spacingLeft=4;spacingRight=4;overflow=hidden;points=[[0,0.5],[1,0.5]];portConstraint=eastwest;rotatable=0;whiteSpace=wrap;html=1;" parent="ye36ROyUvA33ieE3yJKo-34" vertex="1">
          <mxGeometry y="30" width="140" height="30" as="geometry" />
        </mxCell>
        <mxCell id="ye36ROyUvA33ieE3yJKo-36" value="child_friendly" style="text;strokeColor=none;fillColor=none;align=left;verticalAlign=middle;spacingLeft=4;spacingRight=4;overflow=hidden;points=[[0,0.5],[1,0.5]];portConstraint=eastwest;rotatable=0;whiteSpace=wrap;html=1;" parent="ye36ROyUvA33ieE3yJKo-34" vertex="1">
          <mxGeometry y="60" width="140" height="30" as="geometry" />
        </mxCell>
        <mxCell id="ye36ROyUvA33ieE3yJKo-39" value="" style="endArrow=none;html=1;rounded=0;exitX=0.497;exitY=1.186;exitDx=0;exitDy=0;exitPerimeter=0;entryX=0.5;entryY=0;entryDx=0;entryDy=0;" parent="1" source="ye36ROyUvA33ieE3yJKo-4" target="ye36ROyUvA33ieE3yJKo-40" edge="1">
          <mxGeometry width="50" height="50" relative="1" as="geometry">
            <mxPoint x="-570" y="600" as="sourcePoint" />
            <mxPoint x="-500" y="760" as="targetPoint" />
            <Array as="points" />
          </mxGeometry>
        </mxCell>
        <mxCell id="ye36ROyUvA33ieE3yJKo-60" value="&amp;nbsp;1&amp;nbsp;" style="edgeLabel;html=1;align=center;verticalAlign=middle;resizable=0;points=[];" parent="ye36ROyUvA33ieE3yJKo-39" vertex="1" connectable="0">
          <mxGeometry x="-0.8076" y="2" relative="1" as="geometry">
            <mxPoint x="7" as="offset" />
          </mxGeometry>
        </mxCell>
        <mxCell id="ye36ROyUvA33ieE3yJKo-61" value="&amp;nbsp;0..1&amp;nbsp;" style="edgeLabel;html=1;align=center;verticalAlign=middle;resizable=0;points=[];" parent="ye36ROyUvA33ieE3yJKo-39" vertex="1" connectable="0">
          <mxGeometry x="0.831" y="3" relative="1" as="geometry">
            <mxPoint x="-9" as="offset" />
          </mxGeometry>
        </mxCell>
        <mxCell id="ye36ROyUvA33ieE3yJKo-75" value="&amp;nbsp;has a &amp;gt;&amp;nbsp;" style="edgeLabel;html=1;align=center;verticalAlign=middle;resizable=0;points=[];" parent="ye36ROyUvA33ieE3yJKo-39" vertex="1" connectable="0">
          <mxGeometry x="0.1595" y="-2" relative="1" as="geometry">
            <mxPoint x="-17" y="-3" as="offset" />
          </mxGeometry>
        </mxCell>
        <mxCell id="ye36ROyUvA33ieE3yJKo-40" value="Watch list" style="swimlane;fontStyle=0;childLayout=stackLayout;horizontal=1;startSize=30;horizontalStack=0;resizeParent=1;resizeParentMax=0;resizeLast=0;collapsible=1;marginBottom=0;whiteSpace=wrap;html=1;" parent="1" vertex="1">
          <mxGeometry x="-360" y="310" width="140" height="60" as="geometry" />
        </mxCell>
        <mxCell id="ye36ROyUvA33ieE3yJKo-45" value="" style="endArrow=none;html=1;rounded=0;exitX=1;exitY=0.5;exitDx=0;exitDy=0;entryX=-0.007;entryY=0.033;entryDx=0;entryDy=0;entryPerimeter=0;" parent="1" source="ye36ROyUvA33ieE3yJKo-35" target="ye36ROyUvA33ieE3yJKo-3" edge="1">
          <mxGeometry width="50" height="50" relative="1" as="geometry">
            <mxPoint x="-640" y="840" as="sourcePoint" />
            <mxPoint x="-590" y="790" as="targetPoint" />
            <Array as="points" />
          </mxGeometry>
        </mxCell>
        <mxCell id="ye36ROyUvA33ieE3yJKo-57" value="&amp;nbsp;1..*&amp;nbsp;" style="edgeLabel;html=1;align=center;verticalAlign=middle;resizable=0;points=[];" parent="ye36ROyUvA33ieE3yJKo-45" vertex="1" connectable="0">
          <mxGeometry x="-0.7944" relative="1" as="geometry">
            <mxPoint as="offset" />
          </mxGeometry>
        </mxCell>
        <mxCell id="ye36ROyUvA33ieE3yJKo-58" value="&amp;nbsp;1..*&amp;nbsp;" style="edgeLabel;html=1;align=center;verticalAlign=middle;resizable=0;points=[];" parent="ye36ROyUvA33ieE3yJKo-45" vertex="1" connectable="0">
          <mxGeometry x="0.8503" y="1" relative="1" as="geometry">
            <mxPoint x="-9" as="offset" />
          </mxGeometry>
        </mxCell>
        <mxCell id="ye36ROyUvA33ieE3yJKo-59" value="&amp;nbsp;&amp;lt; be used&amp;nbsp;" style="edgeLabel;html=1;align=center;verticalAlign=middle;resizable=0;points=[];" parent="ye36ROyUvA33ieE3yJKo-45" vertex="1" connectable="0">
          <mxGeometry x="-0.2712" y="1" relative="1" as="geometry">
            <mxPoint x="16" as="offset" />
          </mxGeometry>
        </mxCell>
        <mxCell id="ye36ROyUvA33ieE3yJKo-46" value="" style="endArrow=none;html=1;rounded=0;entryX=0.5;entryY=1.067;entryDx=0;entryDy=0;entryPerimeter=0;exitX=0.5;exitY=0;exitDx=0;exitDy=0;" parent="1" source="ye36ROyUvA33ieE3yJKo-62" target="ye36ROyUvA33ieE3yJKo-8" edge="1">
          <mxGeometry width="50" height="50" relative="1" as="geometry">
            <mxPoint x="-640" y="840" as="sourcePoint" />
            <mxPoint x="-590" y="790" as="targetPoint" />
            <Array as="points" />
          </mxGeometry>
        </mxCell>
        <mxCell id="ye36ROyUvA33ieE3yJKo-47" value="" style="endArrow=none;html=1;rounded=0;entryX=0.5;entryY=0;entryDx=0;entryDy=0;exitX=0.493;exitY=1;exitDx=0;exitDy=0;exitPerimeter=0;" parent="1" source="ye36ROyUvA33ieE3yJKo-8" target="ye36ROyUvA33ieE3yJKo-13" edge="1">
          <mxGeometry width="50" height="50" relative="1" as="geometry">
            <mxPoint x="-490" y="840" as="sourcePoint" />
            <mxPoint x="-440" y="790" as="targetPoint" />
          </mxGeometry>
        </mxCell>
        <mxCell id="ye36ROyUvA33ieE3yJKo-48" value="" style="endArrow=none;html=1;rounded=0;exitX=0.007;exitY=0.8;exitDx=0;exitDy=0;exitPerimeter=0;entryX=1;entryY=0.5;entryDx=0;entryDy=0;" parent="1" source="ye36ROyUvA33ieE3yJKo-10" target="ye36ROyUvA33ieE3yJKo-44" edge="1">
          <mxGeometry width="50" height="50" relative="1" as="geometry">
            <mxPoint x="-490" y="840" as="sourcePoint" />
            <mxPoint x="-440" y="790" as="targetPoint" />
          </mxGeometry>
        </mxCell>
        <mxCell id="ye36ROyUvA33ieE3yJKo-65" value="&amp;nbsp;includes&amp;nbsp; &amp;gt;&amp;nbsp;" style="edgeLabel;html=1;align=center;verticalAlign=middle;resizable=0;points=[];" parent="ye36ROyUvA33ieE3yJKo-48" vertex="1" connectable="0">
          <mxGeometry x="-0.147" y="2" relative="1" as="geometry">
            <mxPoint x="-21" as="offset" />
          </mxGeometry>
        </mxCell>
        <mxCell id="ye36ROyUvA33ieE3yJKo-66" value="&amp;nbsp;0..*&amp;nbsp;" style="edgeLabel;html=1;align=center;verticalAlign=middle;resizable=0;points=[];" parent="ye36ROyUvA33ieE3yJKo-48" vertex="1" connectable="0">
          <mxGeometry x="0.8293" y="-1" relative="1" as="geometry">
            <mxPoint as="offset" />
          </mxGeometry>
        </mxCell>
        <mxCell id="ye36ROyUvA33ieE3yJKo-67" value="&amp;nbsp;0..*&amp;nbsp;" style="edgeLabel;html=1;align=center;verticalAlign=middle;resizable=0;points=[];" parent="ye36ROyUvA33ieE3yJKo-48" vertex="1" connectable="0">
          <mxGeometry x="-0.8769" y="1" relative="1" as="geometry">
            <mxPoint x="-8" as="offset" />
          </mxGeometry>
        </mxCell>
        <mxCell id="ye36ROyUvA33ieE3yJKo-49" value="" style="endArrow=none;html=1;rounded=0;exitX=0.5;exitY=0;exitDx=0;exitDy=0;entryX=0.493;entryY=1.133;entryDx=0;entryDy=0;entryPerimeter=0;" parent="1" source="ye36ROyUvA33ieE3yJKo-17" target="ye36ROyUvA33ieE3yJKo-8" edge="1">
          <mxGeometry width="50" height="50" relative="1" as="geometry">
            <mxPoint x="-490" y="840" as="sourcePoint" />
            <mxPoint x="-440" y="790" as="targetPoint" />
            <Array as="points">
              <mxPoint x="-130" y="720" />
              <mxPoint x="-290" y="720" />
            </Array>
          </mxGeometry>
        </mxCell>
        <mxCell id="ye36ROyUvA33ieE3yJKo-50" value="" style="endArrow=none;html=1;rounded=0;entryX=0.514;entryY=0.967;entryDx=0;entryDy=0;entryPerimeter=0;exitX=0.45;exitY=-0.008;exitDx=0;exitDy=0;exitPerimeter=0;" parent="1" source="ye36ROyUvA33ieE3yJKo-25" target="ye36ROyUvA33ieE3yJKo-18" edge="1">
          <mxGeometry width="50" height="50" relative="1" as="geometry">
            <mxPoint x="-490" y="1000" as="sourcePoint" />
            <mxPoint x="-440" y="950" as="targetPoint" />
          </mxGeometry>
        </mxCell>
        <mxCell id="ye36ROyUvA33ieE3yJKo-68" value="1" style="edgeLabel;html=1;align=center;verticalAlign=middle;resizable=0;points=[];" parent="ye36ROyUvA33ieE3yJKo-50" vertex="1" connectable="0">
          <mxGeometry x="0.7865" y="-4" relative="1" as="geometry">
            <mxPoint x="-6" y="15" as="offset" />
          </mxGeometry>
        </mxCell>
        <mxCell id="ye36ROyUvA33ieE3yJKo-69" value="1..*" style="edgeLabel;html=1;align=center;verticalAlign=middle;resizable=0;points=[];" parent="ye36ROyUvA33ieE3yJKo-50" vertex="1" connectable="0">
          <mxGeometry x="-0.8129" y="-1" relative="1" as="geometry">
            <mxPoint as="offset" />
          </mxGeometry>
        </mxCell>
        <mxCell id="ye36ROyUvA33ieE3yJKo-70" value="has V" style="edgeLabel;html=1;align=center;verticalAlign=middle;resizable=0;points=[];" parent="ye36ROyUvA33ieE3yJKo-50" vertex="1" connectable="0">
          <mxGeometry x="0.0671" y="1" relative="1" as="geometry">
            <mxPoint as="offset" />
          </mxGeometry>
        </mxCell>
        <mxCell id="ye36ROyUvA33ieE3yJKo-51" value="" style="endArrow=none;html=1;rounded=0;entryX=0;entryY=0.5;entryDx=0;entryDy=0;exitX=1;exitY=0.5;exitDx=0;exitDy=0;" parent="1" source="ye36ROyUvA33ieE3yJKo-32" target="ye36ROyUvA33ieE3yJKo-27" edge="1">
          <mxGeometry width="50" height="50" relative="1" as="geometry">
            <mxPoint x="-360" y="1170" as="sourcePoint" />
            <mxPoint x="-310" y="1120" as="targetPoint" />
          </mxGeometry>
        </mxCell>
        <mxCell id="ye36ROyUvA33ieE3yJKo-71" value="&amp;nbsp;1..*&amp;nbsp;" style="edgeLabel;html=1;align=center;verticalAlign=middle;resizable=0;points=[];" parent="ye36ROyUvA33ieE3yJKo-51" vertex="1" connectable="0">
          <mxGeometry x="-0.8316" y="2" relative="1" as="geometry">
            <mxPoint as="offset" />
          </mxGeometry>
        </mxCell>
        <mxCell id="ye36ROyUvA33ieE3yJKo-72" value="&amp;nbsp;1&amp;nbsp;" style="edgeLabel;html=1;align=center;verticalAlign=middle;resizable=0;points=[];" parent="ye36ROyUvA33ieE3yJKo-51" vertex="1" connectable="0">
          <mxGeometry x="0.8" y="1" relative="1" as="geometry">
            <mxPoint as="offset" />
          </mxGeometry>
        </mxCell>
        <mxCell id="ye36ROyUvA33ieE3yJKo-73" value="&amp;nbsp;&amp;lt; has&amp;nbsp;" style="edgeLabel;html=1;align=center;verticalAlign=middle;resizable=0;points=[];" parent="ye36ROyUvA33ieE3yJKo-51" vertex="1" connectable="0">
          <mxGeometry x="0.0105" relative="1" as="geometry">
            <mxPoint as="offset" />
          </mxGeometry>
        </mxCell>
        <mxCell id="ye36ROyUvA33ieE3yJKo-63" value="" style="endArrow=none;html=1;rounded=0;entryX=1;entryY=0.5;entryDx=0;entryDy=0;exitX=0.5;exitY=0;exitDx=0;exitDy=0;" parent="1" source="ye36ROyUvA33ieE3yJKo-9" target="ye36ROyUvA33ieE3yJKo-62" edge="1">
          <mxGeometry width="50" height="50" relative="1" as="geometry">
            <mxPoint x="-450" y="780" as="sourcePoint" />
            <mxPoint x="-290" y="662" as="targetPoint" />
            <Array as="points">
              <mxPoint x="-450" y="720" />
              <mxPoint x="-290" y="720" />
            </Array>
          </mxGeometry>
        </mxCell>
        <mxCell id="ye36ROyUvA33ieE3yJKo-64" value="{ mandatory, or }" style="edgeLabel;html=1;align=center;verticalAlign=middle;resizable=0;points=[];" parent="ye36ROyUvA33ieE3yJKo-63" vertex="1" connectable="0">
          <mxGeometry x="0.7369" y="-2" relative="1" as="geometry">
            <mxPoint as="offset" />
          </mxGeometry>
        </mxCell>
        <mxCell id="ye36ROyUvA33ieE3yJKo-62" value="" style="triangle;whiteSpace=wrap;html=1;rotation=-90;" parent="1" vertex="1">
          <mxGeometry x="-297.5" y="660" width="15" height="20" as="geometry" />
        </mxCell>
        <mxCell id="ye36ROyUvA33ieE3yJKo-74" value="" style="endArrow=none;html=1;rounded=0;exitX=0.5;exitY=0;exitDx=0;exitDy=0;entryX=0.5;entryY=1;entryDx=0;entryDy=0;" parent="1" source="ye36ROyUvA33ieE3yJKo-5" target="ye36ROyUvA33ieE3yJKo-40" edge="1">
          <mxGeometry width="50" height="50" relative="1" as="geometry">
            <mxPoint x="-710" y="660" as="sourcePoint" />
            <mxPoint x="-660" y="610" as="targetPoint" />
          </mxGeometry>
        </mxCell>
        <mxCell id="ye36ROyUvA33ieE3yJKo-76" value="&amp;nbsp;0..*&amp;nbsp;" style="edgeLabel;html=1;align=center;verticalAlign=middle;resizable=0;points=[];" parent="ye36ROyUvA33ieE3yJKo-74" vertex="1" connectable="0">
          <mxGeometry x="0.8462" y="2" relative="1" as="geometry">
            <mxPoint x="7" y="-2" as="offset" />
          </mxGeometry>
        </mxCell>
        <mxCell id="ye36ROyUvA33ieE3yJKo-77" value="&amp;nbsp;0..*&amp;nbsp;" style="edgeLabel;html=1;align=center;verticalAlign=middle;resizable=0;points=[];" parent="ye36ROyUvA33ieE3yJKo-74" vertex="1" connectable="0">
          <mxGeometry x="-0.8104" y="2" relative="1" as="geometry">
            <mxPoint as="offset" />
          </mxGeometry>
        </mxCell>
        <mxCell id="ye36ROyUvA33ieE3yJKo-78" value="&amp;nbsp;includes &amp;gt;&amp;nbsp;" style="edgeLabel;html=1;align=center;verticalAlign=middle;resizable=0;points=[];" parent="ye36ROyUvA33ieE3yJKo-74" vertex="1" connectable="0">
          <mxGeometry x="-0.0413" y="1" relative="1" as="geometry">
            <mxPoint as="offset" />
          </mxGeometry>
        </mxCell>
      </root>
    </mxGraphModel>
  </diagram>
  <diagram id="0go2z9lncK0VjWWMDrCv" name="Ex 3. - Airport">
    <mxGraphModel dx="1101" dy="740" grid="1" gridSize="10" guides="1" tooltips="1" connect="1" arrows="1" fold="1" page="1" pageScale="1" pageWidth="850" pageHeight="1100" math="0" shadow="0">
      <root>
        <mxCell id="0" />
        <mxCell id="1" parent="0" />
        <mxCell id="1Cc_elyCJKuZDZVgmeJm-1" value="Terminal" style="swimlane;fontStyle=0;childLayout=stackLayout;horizontal=1;startSize=30;horizontalStack=0;resizeParent=1;resizeParentMax=0;resizeLast=0;collapsible=1;marginBottom=0;whiteSpace=wrap;html=1;" parent="1" vertex="1">
          <mxGeometry x="250" y="330" width="140" height="120" as="geometry" />
        </mxCell>
        <mxCell id="1Cc_elyCJKuZDZVgmeJm-2" value="id" style="text;strokeColor=none;fillColor=none;align=left;verticalAlign=middle;spacingLeft=4;spacingRight=4;overflow=hidden;points=[[0,0.5],[1,0.5]];portConstraint=eastwest;rotatable=0;whiteSpace=wrap;html=1;" parent="1Cc_elyCJKuZDZVgmeJm-1" vertex="1">
          <mxGeometry y="30" width="140" height="30" as="geometry" />
        </mxCell>
        <mxCell id="1Cc_elyCJKuZDZVgmeJm-3" value="name" style="text;strokeColor=none;fillColor=none;align=left;verticalAlign=middle;spacingLeft=4;spacingRight=4;overflow=hidden;points=[[0,0.5],[1,0.5]];portConstraint=eastwest;rotatable=0;whiteSpace=wrap;html=1;" parent="1Cc_elyCJKuZDZVgmeJm-1" vertex="1">
          <mxGeometry y="60" width="140" height="30" as="geometry" />
        </mxCell>
        <mxCell id="1Cc_elyCJKuZDZVgmeJm-4" value="location" style="text;strokeColor=none;fillColor=none;align=left;verticalAlign=middle;spacingLeft=4;spacingRight=4;overflow=hidden;points=[[0,0.5],[1,0.5]];portConstraint=eastwest;rotatable=0;whiteSpace=wrap;html=1;" parent="1Cc_elyCJKuZDZVgmeJm-1" vertex="1">
          <mxGeometry y="90" width="140" height="30" as="geometry" />
        </mxCell>
        <mxCell id="1Cc_elyCJKuZDZVgmeJm-9" value="Gate" style="swimlane;fontStyle=0;childLayout=stackLayout;horizontal=1;startSize=30;horizontalStack=0;resizeParent=1;resizeParentMax=0;resizeLast=0;collapsible=1;marginBottom=0;whiteSpace=wrap;html=1;" parent="1" vertex="1">
          <mxGeometry x="565" y="345" width="140" height="90" as="geometry" />
        </mxCell>
        <mxCell id="1Cc_elyCJKuZDZVgmeJm-10" value="id" style="text;strokeColor=none;fillColor=none;align=left;verticalAlign=middle;spacingLeft=4;spacingRight=4;overflow=hidden;points=[[0,0.5],[1,0.5]];portConstraint=eastwest;rotatable=0;whiteSpace=wrap;html=1;" parent="1Cc_elyCJKuZDZVgmeJm-9" vertex="1">
          <mxGeometry y="30" width="140" height="30" as="geometry" />
        </mxCell>
        <mxCell id="1Cc_elyCJKuZDZVgmeJm-11" value="location" style="text;strokeColor=none;fillColor=none;align=left;verticalAlign=middle;spacingLeft=4;spacingRight=4;overflow=hidden;points=[[0,0.5],[1,0.5]];portConstraint=eastwest;rotatable=0;whiteSpace=wrap;html=1;" parent="1Cc_elyCJKuZDZVgmeJm-9" vertex="1">
          <mxGeometry y="60" width="140" height="30" as="geometry" />
        </mxCell>
        <mxCell id="1Cc_elyCJKuZDZVgmeJm-13" value="" style="endArrow=none;html=1;rounded=0;entryX=0;entryY=0.5;entryDx=0;entryDy=0;exitX=1;exitY=0.933;exitDx=0;exitDy=0;exitPerimeter=0;" parent="1" source="1Cc_elyCJKuZDZVgmeJm-2" target="1Cc_elyCJKuZDZVgmeJm-10" edge="1">
          <mxGeometry width="50" height="50" relative="1" as="geometry">
            <mxPoint x="360" y="420" as="sourcePoint" />
            <mxPoint x="410" y="370" as="targetPoint" />
          </mxGeometry>
        </mxCell>
        <mxCell id="1Cc_elyCJKuZDZVgmeJm-14" value="&amp;nbsp;1&amp;nbsp;" style="edgeLabel;html=1;align=center;verticalAlign=middle;resizable=0;points=[];" parent="1Cc_elyCJKuZDZVgmeJm-13" vertex="1" connectable="0">
          <mxGeometry x="-0.83" y="-1" relative="1" as="geometry">
            <mxPoint as="offset" />
          </mxGeometry>
        </mxCell>
        <mxCell id="1Cc_elyCJKuZDZVgmeJm-15" value="0..*" style="edgeLabel;html=1;align=center;verticalAlign=middle;resizable=0;points=[];" parent="1Cc_elyCJKuZDZVgmeJm-13" vertex="1" connectable="0">
          <mxGeometry x="0.86" relative="1" as="geometry">
            <mxPoint as="offset" />
          </mxGeometry>
        </mxCell>
        <mxCell id="1Cc_elyCJKuZDZVgmeJm-16" value="&amp;nbsp;consists of &amp;gt;" style="edgeLabel;html=1;align=center;verticalAlign=middle;resizable=0;points=[];" parent="1Cc_elyCJKuZDZVgmeJm-13" vertex="1" connectable="0">
          <mxGeometry x="-0.03" y="1" relative="1" as="geometry">
            <mxPoint as="offset" />
          </mxGeometry>
        </mxCell>
        <mxCell id="1Cc_elyCJKuZDZVgmeJm-17" value="Airline" style="swimlane;fontStyle=0;childLayout=stackLayout;horizontal=1;startSize=30;horizontalStack=0;resizeParent=1;resizeParentMax=0;resizeLast=0;collapsible=1;marginBottom=0;whiteSpace=wrap;html=1;" parent="1" vertex="1">
          <mxGeometry x="420" y="740" width="140" height="120" as="geometry" />
        </mxCell>
        <mxCell id="1Cc_elyCJKuZDZVgmeJm-18" value="id" style="text;strokeColor=none;fillColor=none;align=left;verticalAlign=middle;spacingLeft=4;spacingRight=4;overflow=hidden;points=[[0,0.5],[1,0.5]];portConstraint=eastwest;rotatable=0;whiteSpace=wrap;html=1;" parent="1Cc_elyCJKuZDZVgmeJm-17" vertex="1">
          <mxGeometry y="30" width="140" height="30" as="geometry" />
        </mxCell>
        <mxCell id="1Cc_elyCJKuZDZVgmeJm-19" value="name" style="text;strokeColor=none;fillColor=none;align=left;verticalAlign=middle;spacingLeft=4;spacingRight=4;overflow=hidden;points=[[0,0.5],[1,0.5]];portConstraint=eastwest;rotatable=0;whiteSpace=wrap;html=1;" parent="1Cc_elyCJKuZDZVgmeJm-17" vertex="1">
          <mxGeometry y="60" width="140" height="30" as="geometry" />
        </mxCell>
        <mxCell id="1Cc_elyCJKuZDZVgmeJm-20" value="contact_information" style="text;strokeColor=none;fillColor=none;align=left;verticalAlign=middle;spacingLeft=4;spacingRight=4;overflow=hidden;points=[[0,0.5],[1,0.5]];portConstraint=eastwest;rotatable=0;whiteSpace=wrap;html=1;" parent="1Cc_elyCJKuZDZVgmeJm-17" vertex="1">
          <mxGeometry y="90" width="140" height="30" as="geometry" />
        </mxCell>
        <mxCell id="1Cc_elyCJKuZDZVgmeJm-21" value="Flyght" style="swimlane;fontStyle=0;childLayout=stackLayout;horizontal=1;startSize=30;horizontalStack=0;resizeParent=1;resizeParentMax=0;resizeLast=0;collapsible=1;marginBottom=0;whiteSpace=wrap;html=1;" parent="1" vertex="1">
          <mxGeometry x="900" y="330" width="140" height="120" as="geometry" />
        </mxCell>
        <mxCell id="1Cc_elyCJKuZDZVgmeJm-22" value="number" style="text;strokeColor=none;fillColor=none;align=left;verticalAlign=middle;spacingLeft=4;spacingRight=4;overflow=hidden;points=[[0,0.5],[1,0.5]];portConstraint=eastwest;rotatable=0;whiteSpace=wrap;html=1;" parent="1Cc_elyCJKuZDZVgmeJm-21" vertex="1">
          <mxGeometry y="30" width="140" height="30" as="geometry" />
        </mxCell>
        <mxCell id="1Cc_elyCJKuZDZVgmeJm-23" value="departure_time" style="text;strokeColor=none;fillColor=none;align=left;verticalAlign=middle;spacingLeft=4;spacingRight=4;overflow=hidden;points=[[0,0.5],[1,0.5]];portConstraint=eastwest;rotatable=0;whiteSpace=wrap;html=1;" parent="1Cc_elyCJKuZDZVgmeJm-21" vertex="1">
          <mxGeometry y="60" width="140" height="30" as="geometry" />
        </mxCell>
        <mxCell id="1Cc_elyCJKuZDZVgmeJm-24" value="arrival_time" style="text;strokeColor=none;fillColor=none;align=left;verticalAlign=middle;spacingLeft=4;spacingRight=4;overflow=hidden;points=[[0,0.5],[1,0.5]];portConstraint=eastwest;rotatable=0;whiteSpace=wrap;html=1;" parent="1Cc_elyCJKuZDZVgmeJm-21" vertex="1">
          <mxGeometry y="90" width="140" height="30" as="geometry" />
        </mxCell>
        <mxCell id="1Cc_elyCJKuZDZVgmeJm-25" value="Destination" style="swimlane;fontStyle=0;childLayout=stackLayout;horizontal=1;startSize=30;horizontalStack=0;resizeParent=1;resizeParentMax=0;resizeLast=0;collapsible=1;marginBottom=0;whiteSpace=wrap;html=1;" parent="1" vertex="1">
          <mxGeometry x="30" y="755" width="140" height="90" as="geometry" />
        </mxCell>
        <mxCell id="1Cc_elyCJKuZDZVgmeJm-26" value="id" style="text;strokeColor=none;fillColor=none;align=left;verticalAlign=middle;spacingLeft=4;spacingRight=4;overflow=hidden;points=[[0,0.5],[1,0.5]];portConstraint=eastwest;rotatable=0;whiteSpace=wrap;html=1;" parent="1Cc_elyCJKuZDZVgmeJm-25" vertex="1">
          <mxGeometry y="30" width="140" height="30" as="geometry" />
        </mxCell>
        <mxCell id="1Cc_elyCJKuZDZVgmeJm-27" value="name" style="text;strokeColor=none;fillColor=none;align=left;verticalAlign=middle;spacingLeft=4;spacingRight=4;overflow=hidden;points=[[0,0.5],[1,0.5]];portConstraint=eastwest;rotatable=0;whiteSpace=wrap;html=1;" parent="1Cc_elyCJKuZDZVgmeJm-25" vertex="1">
          <mxGeometry y="60" width="140" height="30" as="geometry" />
        </mxCell>
        <mxCell id="1Cc_elyCJKuZDZVgmeJm-29" value="Aircraft" style="swimlane;fontStyle=0;childLayout=stackLayout;horizontal=1;startSize=30;horizontalStack=0;resizeParent=1;resizeParentMax=0;resizeLast=0;collapsible=1;marginBottom=0;whiteSpace=wrap;html=1;" parent="1" vertex="1">
          <mxGeometry x="720" y="740" width="140" height="120" as="geometry" />
        </mxCell>
        <mxCell id="1Cc_elyCJKuZDZVgmeJm-30" value="make" style="text;strokeColor=none;fillColor=none;align=left;verticalAlign=middle;spacingLeft=4;spacingRight=4;overflow=hidden;points=[[0,0.5],[1,0.5]];portConstraint=eastwest;rotatable=0;whiteSpace=wrap;html=1;" parent="1Cc_elyCJKuZDZVgmeJm-29" vertex="1">
          <mxGeometry y="30" width="140" height="30" as="geometry" />
        </mxCell>
        <mxCell id="1Cc_elyCJKuZDZVgmeJm-31" value="model" style="text;strokeColor=none;fillColor=none;align=left;verticalAlign=middle;spacingLeft=4;spacingRight=4;overflow=hidden;points=[[0,0.5],[1,0.5]];portConstraint=eastwest;rotatable=0;whiteSpace=wrap;html=1;" parent="1Cc_elyCJKuZDZVgmeJm-29" vertex="1">
          <mxGeometry y="60" width="140" height="30" as="geometry" />
        </mxCell>
        <mxCell id="1Cc_elyCJKuZDZVgmeJm-32" value="registration_number" style="text;strokeColor=none;fillColor=none;align=left;verticalAlign=middle;spacingLeft=4;spacingRight=4;overflow=hidden;points=[[0,0.5],[1,0.5]];portConstraint=eastwest;rotatable=0;whiteSpace=wrap;html=1;" parent="1Cc_elyCJKuZDZVgmeJm-29" vertex="1">
          <mxGeometry y="90" width="140" height="30" as="geometry" />
        </mxCell>
        <mxCell id="1Cc_elyCJKuZDZVgmeJm-33" value="" style="endArrow=none;html=1;rounded=0;entryX=-0.029;entryY=0;entryDx=0;entryDy=0;entryPerimeter=0;exitX=1.007;exitY=-0.033;exitDx=0;exitDy=0;exitPerimeter=0;" parent="1" source="1Cc_elyCJKuZDZVgmeJm-19" target="1Cc_elyCJKuZDZVgmeJm-31" edge="1">
          <mxGeometry width="50" height="50" relative="1" as="geometry">
            <mxPoint x="-30" y="1080" as="sourcePoint" />
            <mxPoint x="20" y="1030" as="targetPoint" />
            <Array as="points" />
          </mxGeometry>
        </mxCell>
        <mxCell id="1Cc_elyCJKuZDZVgmeJm-34" value="&amp;nbsp;0..1&amp;nbsp;" style="edgeLabel;html=1;align=center;verticalAlign=middle;resizable=0;points=[];" parent="1Cc_elyCJKuZDZVgmeJm-33" vertex="1" connectable="0">
          <mxGeometry x="-0.8098" relative="1" as="geometry">
            <mxPoint as="offset" />
          </mxGeometry>
        </mxCell>
        <mxCell id="1Cc_elyCJKuZDZVgmeJm-35" value="&amp;nbsp;1..*&amp;nbsp;" style="edgeLabel;html=1;align=center;verticalAlign=middle;resizable=0;points=[];" parent="1Cc_elyCJKuZDZVgmeJm-33" vertex="1" connectable="0">
          <mxGeometry x="0.7906" y="-1" relative="1" as="geometry">
            <mxPoint as="offset" />
          </mxGeometry>
        </mxCell>
        <mxCell id="1Cc_elyCJKuZDZVgmeJm-36" value="&amp;nbsp;has &amp;gt;&amp;nbsp;" style="edgeLabel;html=1;align=center;verticalAlign=middle;resizable=0;points=[];" parent="1Cc_elyCJKuZDZVgmeJm-33" vertex="1" connectable="0">
          <mxGeometry x="-0.1198" y="3" relative="1" as="geometry">
            <mxPoint x="6" y="4" as="offset" />
          </mxGeometry>
        </mxCell>
        <mxCell id="1Cc_elyCJKuZDZVgmeJm-37" value="Passenger Plane" style="swimlane;fontStyle=0;childLayout=stackLayout;horizontal=1;startSize=30;horizontalStack=0;resizeParent=1;resizeParentMax=0;resizeLast=0;collapsible=1;marginBottom=0;whiteSpace=wrap;html=1;" parent="1" vertex="1">
          <mxGeometry x="1100" y="860" width="140" height="60" as="geometry" />
        </mxCell>
        <mxCell id="1Cc_elyCJKuZDZVgmeJm-38" value="passenger_capacity" style="text;strokeColor=none;fillColor=none;align=left;verticalAlign=middle;spacingLeft=4;spacingRight=4;overflow=hidden;points=[[0,0.5],[1,0.5]];portConstraint=eastwest;rotatable=0;whiteSpace=wrap;html=1;" parent="1Cc_elyCJKuZDZVgmeJm-37" vertex="1">
          <mxGeometry y="30" width="140" height="30" as="geometry" />
        </mxCell>
        <mxCell id="1Cc_elyCJKuZDZVgmeJm-41" value="Cargo Plane" style="swimlane;fontStyle=0;childLayout=stackLayout;horizontal=1;startSize=30;horizontalStack=0;resizeParent=1;resizeParentMax=0;resizeLast=0;collapsible=1;marginBottom=0;whiteSpace=wrap;html=1;" parent="1" vertex="1">
          <mxGeometry x="1100" y="660" width="140" height="60" as="geometry" />
        </mxCell>
        <mxCell id="1Cc_elyCJKuZDZVgmeJm-42" value="cargo_capacity" style="text;strokeColor=none;fillColor=none;align=left;verticalAlign=middle;spacingLeft=4;spacingRight=4;overflow=hidden;points=[[0,0.5],[1,0.5]];portConstraint=eastwest;rotatable=0;whiteSpace=wrap;html=1;" parent="1Cc_elyCJKuZDZVgmeJm-41" vertex="1">
          <mxGeometry y="30" width="140" height="30" as="geometry" />
        </mxCell>
        <mxCell id="1Cc_elyCJKuZDZVgmeJm-45" value="Passenger" style="swimlane;fontStyle=0;childLayout=stackLayout;horizontal=1;startSize=30;horizontalStack=0;resizeParent=1;resizeParentMax=0;resizeLast=0;collapsible=1;marginBottom=0;whiteSpace=wrap;html=1;" parent="1" vertex="1">
          <mxGeometry x="1540" y="345" width="140" height="120" as="geometry" />
        </mxCell>
        <mxCell id="1Cc_elyCJKuZDZVgmeJm-46" value="name" style="text;strokeColor=none;fillColor=none;align=left;verticalAlign=middle;spacingLeft=4;spacingRight=4;overflow=hidden;points=[[0,0.5],[1,0.5]];portConstraint=eastwest;rotatable=0;whiteSpace=wrap;html=1;" parent="1Cc_elyCJKuZDZVgmeJm-45" vertex="1">
          <mxGeometry y="30" width="140" height="30" as="geometry" />
        </mxCell>
        <mxCell id="1Cc_elyCJKuZDZVgmeJm-47" value="contact_info" style="text;strokeColor=none;fillColor=none;align=left;verticalAlign=middle;spacingLeft=4;spacingRight=4;overflow=hidden;points=[[0,0.5],[1,0.5]];portConstraint=eastwest;rotatable=0;whiteSpace=wrap;html=1;" parent="1Cc_elyCJKuZDZVgmeJm-45" vertex="1">
          <mxGeometry y="60" width="140" height="30" as="geometry" />
        </mxCell>
        <mxCell id="1Cc_elyCJKuZDZVgmeJm-48" value="passport_number" style="text;strokeColor=none;fillColor=none;align=left;verticalAlign=middle;spacingLeft=4;spacingRight=4;overflow=hidden;points=[[0,0.5],[1,0.5]];portConstraint=eastwest;rotatable=0;whiteSpace=wrap;html=1;" parent="1Cc_elyCJKuZDZVgmeJm-45" vertex="1">
          <mxGeometry y="90" width="140" height="30" as="geometry" />
        </mxCell>
        <mxCell id="1Cc_elyCJKuZDZVgmeJm-50" value="Baggage" style="swimlane;fontStyle=0;childLayout=stackLayout;horizontal=1;startSize=30;horizontalStack=0;resizeParent=1;resizeParentMax=0;resizeLast=0;collapsible=1;marginBottom=0;whiteSpace=wrap;html=1;" parent="1" vertex="1">
          <mxGeometry x="1270" y="345" width="140" height="90" as="geometry" />
        </mxCell>
        <mxCell id="1Cc_elyCJKuZDZVgmeJm-51" value="id" style="text;strokeColor=none;fillColor=none;align=left;verticalAlign=middle;spacingLeft=4;spacingRight=4;overflow=hidden;points=[[0,0.5],[1,0.5]];portConstraint=eastwest;rotatable=0;whiteSpace=wrap;html=1;" parent="1Cc_elyCJKuZDZVgmeJm-50" vertex="1">
          <mxGeometry y="30" width="140" height="30" as="geometry" />
        </mxCell>
        <mxCell id="1Cc_elyCJKuZDZVgmeJm-52" value="weight" style="text;strokeColor=none;fillColor=none;align=left;verticalAlign=middle;spacingLeft=4;spacingRight=4;overflow=hidden;points=[[0,0.5],[1,0.5]];portConstraint=eastwest;rotatable=0;whiteSpace=wrap;html=1;" parent="1Cc_elyCJKuZDZVgmeJm-50" vertex="1">
          <mxGeometry y="60" width="140" height="30" as="geometry" />
        </mxCell>
        <mxCell id="1Cc_elyCJKuZDZVgmeJm-54" value="" style="endArrow=none;html=1;rounded=0;exitX=-0.014;exitY=0.3;exitDx=0;exitDy=0;entryX=0.993;entryY=0.933;entryDx=0;entryDy=0;exitPerimeter=0;entryPerimeter=0;" parent="1" source="1Cc_elyCJKuZDZVgmeJm-51" target="1Cc_elyCJKuZDZVgmeJm-22" edge="1">
          <mxGeometry width="50" height="50" relative="1" as="geometry">
            <mxPoint x="640" y="780" as="sourcePoint" />
            <mxPoint x="690" y="730" as="targetPoint" />
            <Array as="points" />
          </mxGeometry>
        </mxCell>
        <mxCell id="1Cc_elyCJKuZDZVgmeJm-77" value="&amp;nbsp;0..*&amp;nbsp;" style="edgeLabel;html=1;align=center;verticalAlign=middle;resizable=0;points=[];" parent="1Cc_elyCJKuZDZVgmeJm-54" vertex="1" connectable="0">
          <mxGeometry x="-0.8163" relative="1" as="geometry">
            <mxPoint as="offset" />
          </mxGeometry>
        </mxCell>
        <mxCell id="1Cc_elyCJKuZDZVgmeJm-78" value="&amp;nbsp;0..1&amp;nbsp;" style="edgeLabel;html=1;align=center;verticalAlign=middle;resizable=0;points=[];" parent="1Cc_elyCJKuZDZVgmeJm-54" vertex="1" connectable="0">
          <mxGeometry x="0.7556" y="-1" relative="1" as="geometry">
            <mxPoint as="offset" />
          </mxGeometry>
        </mxCell>
        <mxCell id="1Cc_elyCJKuZDZVgmeJm-79" value="&amp;nbsp;&amp;lt; sent on&amp;nbsp;" style="edgeLabel;html=1;align=center;verticalAlign=middle;resizable=0;points=[];" parent="1Cc_elyCJKuZDZVgmeJm-54" vertex="1" connectable="0">
          <mxGeometry x="-0.0479" y="-1" relative="1" as="geometry">
            <mxPoint as="offset" />
          </mxGeometry>
        </mxCell>
        <mxCell id="1Cc_elyCJKuZDZVgmeJm-57" value="" style="endArrow=none;html=1;rounded=0;entryX=1.007;entryY=0.1;entryDx=0;entryDy=0;entryPerimeter=0;exitX=-0.021;exitY=0.092;exitDx=0;exitDy=0;exitPerimeter=0;edgeStyle=orthogonalEdgeStyle;" parent="1" source="1Cc_elyCJKuZDZVgmeJm-38" target="1Cc_elyCJKuZDZVgmeJm-31" edge="1">
          <mxGeometry width="50" height="50" relative="1" as="geometry">
            <mxPoint x="70" y="1160" as="sourcePoint" />
            <mxPoint x="120" y="1110" as="targetPoint" />
            <Array as="points">
              <mxPoint x="1100" y="893" />
              <mxPoint x="1100" y="890" />
              <mxPoint x="1080" y="890" />
              <mxPoint x="1080" y="803" />
            </Array>
          </mxGeometry>
        </mxCell>
        <mxCell id="1Cc_elyCJKuZDZVgmeJm-58" value="" style="endArrow=none;html=1;rounded=0;entryX=0.993;entryY=0.067;entryDx=0;entryDy=0;exitX=0.5;exitY=0;exitDx=0;exitDy=0;entryPerimeter=0;" parent="1" source="1Cc_elyCJKuZDZVgmeJm-86" target="1Cc_elyCJKuZDZVgmeJm-31" edge="1">
          <mxGeometry width="50" height="50" relative="1" as="geometry">
            <mxPoint x="70" y="1160" as="sourcePoint" />
            <mxPoint x="120" y="1110" as="targetPoint" />
            <Array as="points" />
          </mxGeometry>
        </mxCell>
        <mxCell id="1Cc_elyCJKuZDZVgmeJm-59" value="" style="endArrow=none;html=1;rounded=0;exitX=1;exitY=0.5;exitDx=0;exitDy=0;entryX=0;entryY=0.5;entryDx=0;entryDy=0;" parent="1" source="1Cc_elyCJKuZDZVgmeJm-51" target="1Cc_elyCJKuZDZVgmeJm-46" edge="1">
          <mxGeometry width="50" height="50" relative="1" as="geometry">
            <mxPoint x="640" y="780" as="sourcePoint" />
            <mxPoint x="690" y="730" as="targetPoint" />
          </mxGeometry>
        </mxCell>
        <mxCell id="1Cc_elyCJKuZDZVgmeJm-74" value="&amp;nbsp;1&amp;nbsp;" style="edgeLabel;html=1;align=center;verticalAlign=middle;resizable=0;points=[];" parent="1Cc_elyCJKuZDZVgmeJm-59" vertex="1" connectable="0">
          <mxGeometry x="0.8529" y="3" relative="1" as="geometry">
            <mxPoint as="offset" />
          </mxGeometry>
        </mxCell>
        <mxCell id="1Cc_elyCJKuZDZVgmeJm-75" value="&amp;nbsp;0..*" style="edgeLabel;html=1;align=center;verticalAlign=middle;resizable=0;points=[];" parent="1Cc_elyCJKuZDZVgmeJm-59" vertex="1" connectable="0">
          <mxGeometry x="-0.8384" relative="1" as="geometry">
            <mxPoint as="offset" />
          </mxGeometry>
        </mxCell>
        <mxCell id="1Cc_elyCJKuZDZVgmeJm-76" value="&amp;nbsp;&amp;lt; has&amp;nbsp;" style="edgeLabel;html=1;align=center;verticalAlign=middle;resizable=0;points=[];" parent="1Cc_elyCJKuZDZVgmeJm-59" vertex="1" connectable="0">
          <mxGeometry x="0.0836" y="3" relative="1" as="geometry">
            <mxPoint as="offset" />
          </mxGeometry>
        </mxCell>
        <mxCell id="1Cc_elyCJKuZDZVgmeJm-61" value="" style="endArrow=none;html=1;rounded=0;exitX=-0.007;exitY=0.267;exitDx=0;exitDy=0;entryX=1.014;entryY=0.767;entryDx=0;entryDy=0;entryPerimeter=0;exitPerimeter=0;" parent="1" source="1Cc_elyCJKuZDZVgmeJm-19" target="1Cc_elyCJKuZDZVgmeJm-26" edge="1">
          <mxGeometry width="50" height="50" relative="1" as="geometry">
            <mxPoint x="70" y="1160" as="sourcePoint" />
            <mxPoint x="120" y="1110" as="targetPoint" />
          </mxGeometry>
        </mxCell>
        <mxCell id="1Cc_elyCJKuZDZVgmeJm-89" value="&amp;nbsp;0..*&amp;nbsp;" style="edgeLabel;html=1;align=center;verticalAlign=middle;resizable=0;points=[];" parent="1Cc_elyCJKuZDZVgmeJm-61" vertex="1" connectable="0">
          <mxGeometry x="-0.8136" y="-3" relative="1" as="geometry">
            <mxPoint as="offset" />
          </mxGeometry>
        </mxCell>
        <mxCell id="1Cc_elyCJKuZDZVgmeJm-90" value="&amp;nbsp;0..*&amp;nbsp;" style="edgeLabel;html=1;align=center;verticalAlign=middle;resizable=0;points=[];" parent="1Cc_elyCJKuZDZVgmeJm-61" vertex="1" connectable="0">
          <mxGeometry x="0.7811" relative="1" as="geometry">
            <mxPoint as="offset" />
          </mxGeometry>
        </mxCell>
        <mxCell id="1Cc_elyCJKuZDZVgmeJm-91" value="&amp;nbsp;&amp;lt; fly to&amp;nbsp;" style="edgeLabel;html=1;align=center;verticalAlign=middle;resizable=0;points=[];" parent="1Cc_elyCJKuZDZVgmeJm-61" vertex="1" connectable="0">
          <mxGeometry x="-0.0203" y="-4" relative="1" as="geometry">
            <mxPoint as="offset" />
          </mxGeometry>
        </mxCell>
        <mxCell id="1Cc_elyCJKuZDZVgmeJm-62" value="Cargo" style="swimlane;fontStyle=0;childLayout=stackLayout;horizontal=1;startSize=30;horizontalStack=0;resizeParent=1;resizeParentMax=0;resizeLast=0;collapsible=1;marginBottom=0;whiteSpace=wrap;html=1;" parent="1" vertex="1">
          <mxGeometry x="1420" y="645" width="140" height="90" as="geometry" />
        </mxCell>
        <mxCell id="1Cc_elyCJKuZDZVgmeJm-63" value="id" style="text;strokeColor=none;fillColor=none;align=left;verticalAlign=middle;spacingLeft=4;spacingRight=4;overflow=hidden;points=[[0,0.5],[1,0.5]];portConstraint=eastwest;rotatable=0;whiteSpace=wrap;html=1;" parent="1Cc_elyCJKuZDZVgmeJm-62" vertex="1">
          <mxGeometry y="30" width="140" height="30" as="geometry" />
        </mxCell>
        <mxCell id="1Cc_elyCJKuZDZVgmeJm-64" value="weight" style="text;strokeColor=none;fillColor=none;align=left;verticalAlign=middle;spacingLeft=4;spacingRight=4;overflow=hidden;points=[[0,0.5],[1,0.5]];portConstraint=eastwest;rotatable=0;whiteSpace=wrap;html=1;" parent="1Cc_elyCJKuZDZVgmeJm-62" vertex="1">
          <mxGeometry y="60" width="140" height="30" as="geometry" />
        </mxCell>
        <mxCell id="1Cc_elyCJKuZDZVgmeJm-66" value="" style="endArrow=none;html=1;rounded=0;exitX=0.5;exitY=0;exitDx=0;exitDy=0;edgeStyle=orthogonalEdgeStyle;" parent="1" source="1Cc_elyCJKuZDZVgmeJm-62" edge="1">
          <mxGeometry width="50" height="50" relative="1" as="geometry">
            <mxPoint x="640" y="900" as="sourcePoint" />
            <mxPoint x="970" y="450" as="targetPoint" />
            <Array as="points">
              <mxPoint x="1480" y="645" />
              <mxPoint x="1480" y="560" />
              <mxPoint x="970" y="560" />
            </Array>
          </mxGeometry>
        </mxCell>
        <mxCell id="1Cc_elyCJKuZDZVgmeJm-80" value="&amp;nbsp;0..*&amp;nbsp;" style="edgeLabel;html=1;align=center;verticalAlign=middle;resizable=0;points=[];" parent="1Cc_elyCJKuZDZVgmeJm-66" vertex="1" connectable="0">
          <mxGeometry x="-0.9512" y="-1" relative="1" as="geometry">
            <mxPoint x="-1" y="-27" as="offset" />
          </mxGeometry>
        </mxCell>
        <mxCell id="1Cc_elyCJKuZDZVgmeJm-81" value="0..1" style="edgeLabel;html=1;align=center;verticalAlign=middle;resizable=0;points=[];" parent="1Cc_elyCJKuZDZVgmeJm-66" vertex="1" connectable="0">
          <mxGeometry x="0.966" y="-1" relative="1" as="geometry">
            <mxPoint as="offset" />
          </mxGeometry>
        </mxCell>
        <mxCell id="1Cc_elyCJKuZDZVgmeJm-82" value="&amp;nbsp;&amp;lt; sent on&amp;nbsp;" style="edgeLabel;html=1;align=center;verticalAlign=middle;resizable=0;points=[];" parent="1Cc_elyCJKuZDZVgmeJm-66" vertex="1" connectable="0">
          <mxGeometry x="0.1279" y="-1" relative="1" as="geometry">
            <mxPoint as="offset" />
          </mxGeometry>
        </mxCell>
        <mxCell id="1Cc_elyCJKuZDZVgmeJm-67" value="" style="endArrow=none;html=1;rounded=0;entryX=-0.021;entryY=0;entryDx=0;entryDy=0;entryPerimeter=0;exitX=1;exitY=0.5;exitDx=0;exitDy=0;" parent="1" source="1Cc_elyCJKuZDZVgmeJm-10" target="1Cc_elyCJKuZDZVgmeJm-23" edge="1">
          <mxGeometry width="50" height="50" relative="1" as="geometry">
            <mxPoint x="640" y="670" as="sourcePoint" />
            <mxPoint x="690" y="620" as="targetPoint" />
            <Array as="points" />
          </mxGeometry>
        </mxCell>
        <mxCell id="1Cc_elyCJKuZDZVgmeJm-68" value="&amp;nbsp;2&amp;nbsp;" style="edgeLabel;html=1;align=center;verticalAlign=middle;resizable=0;points=[];" parent="1Cc_elyCJKuZDZVgmeJm-67" vertex="1" connectable="0">
          <mxGeometry x="-0.5965" relative="1" as="geometry">
            <mxPoint as="offset" />
          </mxGeometry>
        </mxCell>
        <mxCell id="1Cc_elyCJKuZDZVgmeJm-69" value="&amp;nbsp;0..*&amp;nbsp;" style="edgeLabel;html=1;align=center;verticalAlign=middle;resizable=0;points=[];" parent="1Cc_elyCJKuZDZVgmeJm-67" vertex="1" connectable="0">
          <mxGeometry x="0.7592" y="2" relative="1" as="geometry">
            <mxPoint as="offset" />
          </mxGeometry>
        </mxCell>
        <mxCell id="1Cc_elyCJKuZDZVgmeJm-70" value="&amp;nbsp;&amp;lt; depart and go&amp;nbsp;" style="edgeLabel;html=1;align=center;verticalAlign=middle;resizable=0;points=[];" parent="1Cc_elyCJKuZDZVgmeJm-67" vertex="1" connectable="0">
          <mxGeometry x="-0.0272" y="4" relative="1" as="geometry">
            <mxPoint y="1" as="offset" />
          </mxGeometry>
        </mxCell>
        <mxCell id="1Cc_elyCJKuZDZVgmeJm-72" value="" style="endArrow=none;html=1;rounded=0;exitX=1.014;exitY=0.233;exitDx=0;exitDy=0;exitPerimeter=0;entryX=0;entryY=0.5;entryDx=0;entryDy=0;" parent="1" source="1Cc_elyCJKuZDZVgmeJm-42" target="1Cc_elyCJKuZDZVgmeJm-63" edge="1">
          <mxGeometry width="50" height="50" relative="1" as="geometry">
            <mxPoint x="500" y="1090" as="sourcePoint" />
            <mxPoint x="1360" y="880" as="targetPoint" />
          </mxGeometry>
        </mxCell>
        <mxCell id="1Cc_elyCJKuZDZVgmeJm-83" value="&amp;nbsp;0..1&amp;nbsp;" style="edgeLabel;html=1;align=center;verticalAlign=middle;resizable=0;points=[];" parent="1Cc_elyCJKuZDZVgmeJm-72" vertex="1" connectable="0">
          <mxGeometry x="-0.7611" y="2" relative="1" as="geometry">
            <mxPoint as="offset" />
          </mxGeometry>
        </mxCell>
        <mxCell id="1Cc_elyCJKuZDZVgmeJm-84" value="&amp;nbsp;has a &amp;gt;&amp;nbsp;" style="edgeLabel;html=1;align=center;verticalAlign=middle;resizable=0;points=[];" parent="1Cc_elyCJKuZDZVgmeJm-72" vertex="1" connectable="0">
          <mxGeometry x="-0.009" y="3" relative="1" as="geometry">
            <mxPoint as="offset" />
          </mxGeometry>
        </mxCell>
        <mxCell id="1Cc_elyCJKuZDZVgmeJm-85" value="&amp;nbsp;0..*&amp;nbsp;" style="edgeLabel;html=1;align=center;verticalAlign=middle;resizable=0;points=[];" parent="1Cc_elyCJKuZDZVgmeJm-72" vertex="1" connectable="0">
          <mxGeometry x="0.7523" relative="1" as="geometry">
            <mxPoint x="1" as="offset" />
          </mxGeometry>
        </mxCell>
        <mxCell id="1Cc_elyCJKuZDZVgmeJm-87" value="" style="endArrow=none;html=1;rounded=0;entryX=1;entryY=0.5;entryDx=0;entryDy=0;exitX=0.005;exitY=-0.033;exitDx=0;exitDy=0;exitPerimeter=0;" parent="1" source="1Cc_elyCJKuZDZVgmeJm-42" target="1Cc_elyCJKuZDZVgmeJm-86" edge="1">
          <mxGeometry width="50" height="50" relative="1" as="geometry">
            <mxPoint x="1080" y="690" as="sourcePoint" />
            <mxPoint x="859" y="802" as="targetPoint" />
            <Array as="points">
              <mxPoint x="1080" y="690" />
              <mxPoint x="1080" y="802" />
            </Array>
          </mxGeometry>
        </mxCell>
        <mxCell id="1Cc_elyCJKuZDZVgmeJm-88" value="{ mandatory, or }" style="edgeLabel;html=1;align=center;verticalAlign=middle;resizable=0;points=[];" parent="1Cc_elyCJKuZDZVgmeJm-87" vertex="1" connectable="0">
          <mxGeometry x="0.0821" y="1" relative="1" as="geometry">
            <mxPoint x="-31" y="-4" as="offset" />
          </mxGeometry>
        </mxCell>
        <mxCell id="1Cc_elyCJKuZDZVgmeJm-86" value="" style="triangle;whiteSpace=wrap;html=1;rotation=-180;" parent="1" vertex="1">
          <mxGeometry x="860" y="795" width="20" height="20" as="geometry" />
        </mxCell>
        <mxCell id="r-0yysx6mZfbD7RKwAyN-1" value="" style="endArrow=none;html=1;rounded=0;entryX=0;entryY=1.067;entryDx=0;entryDy=0;entryPerimeter=0;exitX=0.5;exitY=0;exitDx=0;exitDy=0;" parent="1" source="1Cc_elyCJKuZDZVgmeJm-17" target="1Cc_elyCJKuZDZVgmeJm-24" edge="1">
          <mxGeometry width="50" height="50" relative="1" as="geometry">
            <mxPoint x="870" y="570" as="sourcePoint" />
            <mxPoint x="920" y="520" as="targetPoint" />
          </mxGeometry>
        </mxCell>
        <mxCell id="r-0yysx6mZfbD7RKwAyN-13" value="1" style="edgeLabel;html=1;align=center;verticalAlign=middle;resizable=0;points=[];" parent="r-0yysx6mZfbD7RKwAyN-1" connectable="0" vertex="1">
          <mxGeometry x="-0.8422" y="-1" relative="1" as="geometry">
            <mxPoint y="1" as="offset" />
          </mxGeometry>
        </mxCell>
        <mxCell id="r-0yysx6mZfbD7RKwAyN-14" value="1..*" style="edgeLabel;html=1;align=center;verticalAlign=middle;resizable=0;points=[];" parent="r-0yysx6mZfbD7RKwAyN-1" connectable="0" vertex="1">
          <mxGeometry x="0.8171" y="-4" relative="1" as="geometry">
            <mxPoint x="-1" as="offset" />
          </mxGeometry>
        </mxCell>
        <mxCell id="r-0yysx6mZfbD7RKwAyN-15" value="operates &amp;gt;" style="edgeLabel;html=1;align=center;verticalAlign=middle;resizable=0;points=[];" parent="r-0yysx6mZfbD7RKwAyN-1" connectable="0" vertex="1">
          <mxGeometry x="-0.0705" y="-5" relative="1" as="geometry">
            <mxPoint as="offset" />
          </mxGeometry>
        </mxCell>
        <mxCell id="r-0yysx6mZfbD7RKwAyN-2" value="" style="endArrow=none;html=1;rounded=0;entryX=0.286;entryY=1.2;entryDx=0;entryDy=0;entryPerimeter=0;exitX=0.5;exitY=0;exitDx=0;exitDy=0;" parent="1" source="1Cc_elyCJKuZDZVgmeJm-29" target="1Cc_elyCJKuZDZVgmeJm-24" edge="1">
          <mxGeometry width="50" height="50" relative="1" as="geometry">
            <mxPoint x="950" y="570" as="sourcePoint" />
            <mxPoint x="1000" y="520" as="targetPoint" />
          </mxGeometry>
        </mxCell>
        <mxCell id="r-0yysx6mZfbD7RKwAyN-9" value="&amp;nbsp;0..*&amp;nbsp;" style="edgeLabel;html=1;align=center;verticalAlign=middle;resizable=0;points=[];" parent="r-0yysx6mZfbD7RKwAyN-2" connectable="0" vertex="1">
          <mxGeometry x="0.8079" y="-2" relative="1" as="geometry">
            <mxPoint y="-1" as="offset" />
          </mxGeometry>
        </mxCell>
        <mxCell id="r-0yysx6mZfbD7RKwAyN-10" value="0..*" style="edgeLabel;html=1;align=center;verticalAlign=middle;resizable=0;points=[];" parent="r-0yysx6mZfbD7RKwAyN-2" connectable="0" vertex="1">
          <mxGeometry x="-0.7759" y="-4" relative="1" as="geometry">
            <mxPoint as="offset" />
          </mxGeometry>
        </mxCell>
        <mxCell id="r-0yysx6mZfbD7RKwAyN-11" value="operates &amp;gt;&amp;nbsp;" style="edgeLabel;html=1;align=center;verticalAlign=middle;resizable=0;points=[];" parent="r-0yysx6mZfbD7RKwAyN-2" connectable="0" vertex="1">
          <mxGeometry x="-0.0552" y="-4" relative="1" as="geometry">
            <mxPoint as="offset" />
          </mxGeometry>
        </mxCell>
        <mxCell id="r-0yysx6mZfbD7RKwAyN-3" value="" style="endArrow=none;html=1;rounded=0;entryX=-0.013;entryY=1.092;entryDx=0;entryDy=0;entryPerimeter=0;exitX=1;exitY=0;exitDx=0;exitDy=0;" parent="1" source="1Cc_elyCJKuZDZVgmeJm-25" target="1Cc_elyCJKuZDZVgmeJm-23" edge="1">
          <mxGeometry width="50" height="50" relative="1" as="geometry">
            <mxPoint x="500" y="560" as="sourcePoint" />
            <mxPoint x="550" y="510" as="targetPoint" />
          </mxGeometry>
        </mxCell>
        <mxCell id="r-0yysx6mZfbD7RKwAyN-16" value="1..*" style="edgeLabel;html=1;align=center;verticalAlign=middle;resizable=0;points=[];" parent="r-0yysx6mZfbD7RKwAyN-3" connectable="0" vertex="1">
          <mxGeometry x="-0.925" y="-1" relative="1" as="geometry">
            <mxPoint as="offset" />
          </mxGeometry>
        </mxCell>
        <mxCell id="r-0yysx6mZfbD7RKwAyN-17" value="0..*" style="edgeLabel;html=1;align=center;verticalAlign=middle;resizable=0;points=[];" parent="r-0yysx6mZfbD7RKwAyN-3" connectable="0" vertex="1">
          <mxGeometry x="0.8882" y="1" relative="1" as="geometry">
            <mxPoint as="offset" />
          </mxGeometry>
        </mxCell>
        <mxCell id="r-0yysx6mZfbD7RKwAyN-18" value="&amp;lt; has&amp;nbsp;" style="edgeLabel;html=1;align=center;verticalAlign=middle;resizable=0;points=[];" parent="r-0yysx6mZfbD7RKwAyN-3" connectable="0" vertex="1">
          <mxGeometry x="0.1006" y="3" relative="1" as="geometry">
            <mxPoint as="offset" />
          </mxGeometry>
        </mxCell>
        <mxCell id="r-0yysx6mZfbD7RKwAyN-4" value="" style="endArrow=none;html=1;rounded=0;exitX=1.014;exitY=-0.075;exitDx=0;exitDy=0;exitPerimeter=0;entryX=0.496;entryY=1.133;entryDx=0;entryDy=0;entryPerimeter=0;" parent="1" source="1Cc_elyCJKuZDZVgmeJm-38" target="1Cc_elyCJKuZDZVgmeJm-48" edge="1">
          <mxGeometry width="50" height="50" relative="1" as="geometry">
            <mxPoint x="1360" y="570" as="sourcePoint" />
            <mxPoint x="1410" y="520" as="targetPoint" />
            <Array as="points">
              <mxPoint x="1609" y="888" />
            </Array>
          </mxGeometry>
        </mxCell>
        <mxCell id="r-0yysx6mZfbD7RKwAyN-6" value="&amp;nbsp;1..*&amp;nbsp;" style="edgeLabel;html=1;align=center;verticalAlign=middle;resizable=0;points=[];" parent="r-0yysx6mZfbD7RKwAyN-4" connectable="0" vertex="1">
          <mxGeometry x="-0.9246" y="-1" relative="1" as="geometry">
            <mxPoint y="1" as="offset" />
          </mxGeometry>
        </mxCell>
        <mxCell id="r-0yysx6mZfbD7RKwAyN-7" value="&amp;nbsp;transports &amp;gt;&amp;nbsp;" style="edgeLabel;html=1;align=center;verticalAlign=middle;resizable=0;points=[];" parent="r-0yysx6mZfbD7RKwAyN-4" connectable="0" vertex="1">
          <mxGeometry x="0.5111" y="-1" relative="1" as="geometry">
            <mxPoint x="-1" as="offset" />
          </mxGeometry>
        </mxCell>
        <mxCell id="r-0yysx6mZfbD7RKwAyN-8" value="&amp;nbsp;1..*&amp;nbsp;" style="edgeLabel;html=1;align=center;verticalAlign=middle;resizable=0;points=[];" parent="r-0yysx6mZfbD7RKwAyN-4" connectable="0" vertex="1">
          <mxGeometry x="0.8706" y="1" relative="1" as="geometry">
            <mxPoint x="1" as="offset" />
          </mxGeometry>
        </mxCell>
      </root>
    </mxGraphModel>
  </diagram>
  <diagram id="fYlr0YhGRshjP0uuD3_Q" name="Ex 4. - Musicify">
    <mxGraphModel dx="1434" dy="1865" grid="1" gridSize="10" guides="1" tooltips="1" connect="1" arrows="1" fold="1" page="1" pageScale="1" pageWidth="850" pageHeight="1100" math="0" shadow="0">
      <root>
        <mxCell id="0" />
        <mxCell id="1" parent="0" />
        <mxCell id="XfmtBNuZIH59qyqwO2bj-1" value="User" style="swimlane;fontStyle=0;childLayout=stackLayout;horizontal=1;startSize=30;horizontalStack=0;resizeParent=1;resizeParentMax=0;resizeLast=0;collapsible=1;marginBottom=0;whiteSpace=wrap;html=1;" parent="1" vertex="1">
          <mxGeometry x="88" y="670" width="140" height="90" as="geometry" />
        </mxCell>
        <mxCell id="XfmtBNuZIH59qyqwO2bj-2" value="email" style="text;strokeColor=none;fillColor=none;align=left;verticalAlign=middle;spacingLeft=4;spacingRight=4;overflow=hidden;points=[[0,0.5],[1,0.5]];portConstraint=eastwest;rotatable=0;whiteSpace=wrap;html=1;" parent="XfmtBNuZIH59qyqwO2bj-1" vertex="1">
          <mxGeometry y="30" width="140" height="30" as="geometry" />
        </mxCell>
        <mxCell id="XfmtBNuZIH59qyqwO2bj-3" value="password" style="text;strokeColor=none;fillColor=none;align=left;verticalAlign=middle;spacingLeft=4;spacingRight=4;overflow=hidden;points=[[0,0.5],[1,0.5]];portConstraint=eastwest;rotatable=0;whiteSpace=wrap;html=1;" parent="XfmtBNuZIH59qyqwO2bj-1" vertex="1">
          <mxGeometry y="60" width="140" height="30" as="geometry" />
        </mxCell>
        <mxCell id="XfmtBNuZIH59qyqwO2bj-5" value="Subscription" style="swimlane;fontStyle=0;childLayout=stackLayout;horizontal=1;startSize=30;horizontalStack=0;resizeParent=1;resizeParentMax=0;resizeLast=0;collapsible=1;marginBottom=0;whiteSpace=wrap;html=1;" parent="1" vertex="1">
          <mxGeometry x="423" y="680" width="140" height="60" as="geometry" />
        </mxCell>
        <mxCell id="XfmtBNuZIH59qyqwO2bj-9" value="Monthly" style="swimlane;fontStyle=0;childLayout=stackLayout;horizontal=1;startSize=30;horizontalStack=0;resizeParent=1;resizeParentMax=0;resizeLast=0;collapsible=1;marginBottom=0;whiteSpace=wrap;html=1;" parent="1" vertex="1">
          <mxGeometry x="288" y="910" width="140" height="60" as="geometry" />
        </mxCell>
        <mxCell id="XfmtBNuZIH59qyqwO2bj-13" value="Quater-yearly" style="swimlane;fontStyle=0;childLayout=stackLayout;horizontal=1;startSize=30;horizontalStack=0;resizeParent=1;resizeParentMax=0;resizeLast=0;collapsible=1;marginBottom=0;whiteSpace=wrap;html=1;" parent="1" vertex="1">
          <mxGeometry x="528" y="910" width="140" height="60" as="geometry" />
        </mxCell>
        <mxCell id="XfmtBNuZIH59qyqwO2bj-17" value="Premium User" style="swimlane;fontStyle=0;childLayout=stackLayout;horizontal=1;startSize=30;horizontalStack=0;resizeParent=1;resizeParentMax=0;resizeLast=0;collapsible=1;marginBottom=0;whiteSpace=wrap;html=1;" parent="1" vertex="1">
          <mxGeometry x="702.02" y="680" width="140" height="60" as="geometry" />
        </mxCell>
        <mxCell id="XfmtBNuZIH59qyqwO2bj-21" value="Playlist" style="swimlane;fontStyle=0;childLayout=stackLayout;horizontal=1;startSize=30;horizontalStack=0;resizeParent=1;resizeParentMax=0;resizeLast=0;collapsible=1;marginBottom=0;whiteSpace=wrap;html=1;" parent="1" vertex="1">
          <mxGeometry x="458" y="410" width="140" height="120" as="geometry" />
        </mxCell>
        <mxCell id="XfmtBNuZIH59qyqwO2bj-22" value="title" style="text;strokeColor=none;fillColor=none;align=left;verticalAlign=middle;spacingLeft=4;spacingRight=4;overflow=hidden;points=[[0,0.5],[1,0.5]];portConstraint=eastwest;rotatable=0;whiteSpace=wrap;html=1;" parent="XfmtBNuZIH59qyqwO2bj-21" vertex="1">
          <mxGeometry y="30" width="140" height="30" as="geometry" />
        </mxCell>
        <mxCell id="XfmtBNuZIH59qyqwO2bj-23" value="description" style="text;strokeColor=none;fillColor=none;align=left;verticalAlign=middle;spacingLeft=4;spacingRight=4;overflow=hidden;points=[[0,0.5],[1,0.5]];portConstraint=eastwest;rotatable=0;whiteSpace=wrap;html=1;" parent="XfmtBNuZIH59qyqwO2bj-21" vertex="1">
          <mxGeometry y="60" width="140" height="30" as="geometry" />
        </mxCell>
        <mxCell id="XfmtBNuZIH59qyqwO2bj-24" value="total_length" style="text;strokeColor=none;fillColor=none;align=left;verticalAlign=middle;spacingLeft=4;spacingRight=4;overflow=hidden;points=[[0,0.5],[1,0.5]];portConstraint=eastwest;rotatable=0;whiteSpace=wrap;html=1;" parent="XfmtBNuZIH59qyqwO2bj-21" vertex="1">
          <mxGeometry y="90" width="140" height="30" as="geometry" />
        </mxCell>
        <mxCell id="XfmtBNuZIH59qyqwO2bj-25" value="Song" style="swimlane;fontStyle=0;childLayout=stackLayout;horizontal=1;startSize=30;horizontalStack=0;resizeParent=1;resizeParentMax=0;resizeLast=0;collapsible=1;marginBottom=0;whiteSpace=wrap;html=1;" parent="1" vertex="1">
          <mxGeometry x="618" y="10" width="140" height="90" as="geometry" />
        </mxCell>
        <mxCell id="XfmtBNuZIH59qyqwO2bj-26" value="title" style="text;strokeColor=none;fillColor=none;align=left;verticalAlign=middle;spacingLeft=4;spacingRight=4;overflow=hidden;points=[[0,0.5],[1,0.5]];portConstraint=eastwest;rotatable=0;whiteSpace=wrap;html=1;" parent="XfmtBNuZIH59qyqwO2bj-25" vertex="1">
          <mxGeometry y="30" width="140" height="30" as="geometry" />
        </mxCell>
        <mxCell id="XfmtBNuZIH59qyqwO2bj-27" value="length" style="text;strokeColor=none;fillColor=none;align=left;verticalAlign=middle;spacingLeft=4;spacingRight=4;overflow=hidden;points=[[0,0.5],[1,0.5]];portConstraint=eastwest;rotatable=0;whiteSpace=wrap;html=1;" parent="XfmtBNuZIH59qyqwO2bj-25" vertex="1">
          <mxGeometry y="60" width="140" height="30" as="geometry" />
        </mxCell>
        <mxCell id="XfmtBNuZIH59qyqwO2bj-30" value="1" style="endArrow=open;html=1;endSize=12;startArrow=diamondThin;startSize=14;startFill=1;edgeStyle=orthogonalEdgeStyle;align=left;verticalAlign=bottom;rounded=0;exitX=0.5;exitY=0;exitDx=0;exitDy=0;entryX=1;entryY=0.5;entryDx=0;entryDy=0;" parent="1" source="XfmtBNuZIH59qyqwO2bj-17" target="XfmtBNuZIH59qyqwO2bj-23" edge="1">
          <mxGeometry x="-0.6863" relative="1" as="geometry">
            <mxPoint x="338" y="520" as="sourcePoint" />
            <mxPoint x="498" y="520" as="targetPoint" />
            <mxPoint as="offset" />
          </mxGeometry>
        </mxCell>
        <mxCell id="XfmtBNuZIH59qyqwO2bj-31" value="&amp;nbsp;0..*&amp;nbsp;" style="edgeLabel;html=1;align=center;verticalAlign=middle;resizable=0;points=[];" parent="XfmtBNuZIH59qyqwO2bj-30" vertex="1" connectable="0">
          <mxGeometry x="0.6471" y="-1" relative="1" as="geometry">
            <mxPoint as="offset" />
          </mxGeometry>
        </mxCell>
        <mxCell id="XfmtBNuZIH59qyqwO2bj-32" value="owned by V" style="edgeLabel;html=1;align=center;verticalAlign=middle;resizable=0;points=[];" parent="XfmtBNuZIH59qyqwO2bj-30" vertex="1" connectable="0">
          <mxGeometry x="-0.0902" y="2" relative="1" as="geometry">
            <mxPoint y="16" as="offset" />
          </mxGeometry>
        </mxCell>
        <mxCell id="XfmtBNuZIH59qyqwO2bj-33" value="" style="endArrow=none;html=1;rounded=0;exitX=0.5;exitY=0;exitDx=0;exitDy=0;entryX=-0.021;entryY=0.267;entryDx=0;entryDy=0;entryPerimeter=0;" parent="1" source="XfmtBNuZIH59qyqwO2bj-1" target="XfmtBNuZIH59qyqwO2bj-23" edge="1">
          <mxGeometry width="50" height="50" relative="1" as="geometry">
            <mxPoint x="398" y="550" as="sourcePoint" />
            <mxPoint x="448" y="500" as="targetPoint" />
            <Array as="points">
              <mxPoint x="158" y="480" />
            </Array>
          </mxGeometry>
        </mxCell>
        <mxCell id="XfmtBNuZIH59qyqwO2bj-34" value="&amp;nbsp;0..*&amp;nbsp;" style="edgeLabel;html=1;align=center;verticalAlign=middle;resizable=0;points=[];" parent="XfmtBNuZIH59qyqwO2bj-33" vertex="1" connectable="0">
          <mxGeometry x="0.8602" y="3" relative="1" as="geometry">
            <mxPoint as="offset" />
          </mxGeometry>
        </mxCell>
        <mxCell id="XfmtBNuZIH59qyqwO2bj-35" value="0..*" style="edgeLabel;html=1;align=center;verticalAlign=middle;resizable=0;points=[];" parent="XfmtBNuZIH59qyqwO2bj-33" vertex="1" connectable="0">
          <mxGeometry x="-0.8891" y="2" relative="1" as="geometry">
            <mxPoint as="offset" />
          </mxGeometry>
        </mxCell>
        <mxCell id="XfmtBNuZIH59qyqwO2bj-36" value="&amp;nbsp;follow &amp;gt;&amp;nbsp;" style="edgeLabel;html=1;align=center;verticalAlign=middle;resizable=0;points=[];" parent="XfmtBNuZIH59qyqwO2bj-33" vertex="1" connectable="0">
          <mxGeometry x="-0.0597" y="-2" relative="1" as="geometry">
            <mxPoint as="offset" />
          </mxGeometry>
        </mxCell>
        <mxCell id="XfmtBNuZIH59qyqwO2bj-37" value="Artist" style="swimlane;fontStyle=0;childLayout=stackLayout;horizontal=1;startSize=30;horizontalStack=0;resizeParent=1;resizeParentMax=0;resizeLast=0;collapsible=1;marginBottom=0;whiteSpace=wrap;html=1;" parent="1" vertex="1">
          <mxGeometry x="248" y="40" width="140" height="60" as="geometry" />
        </mxCell>
        <mxCell id="XfmtBNuZIH59qyqwO2bj-41" value="" style="endArrow=none;html=1;rounded=0;exitX=1;exitY=0.5;exitDx=0;exitDy=0;entryX=0;entryY=0.1;entryDx=0;entryDy=0;entryPerimeter=0;" parent="1" source="XfmtBNuZIH59qyqwO2bj-37" target="XfmtBNuZIH59qyqwO2bj-27" edge="1">
          <mxGeometry width="50" height="50" relative="1" as="geometry">
            <mxPoint x="388" y="55" as="sourcePoint" />
            <mxPoint x="628" y="70" as="targetPoint" />
            <Array as="points" />
          </mxGeometry>
        </mxCell>
        <mxCell id="XfmtBNuZIH59qyqwO2bj-42" value="&amp;nbsp;1..*&amp;nbsp;" style="edgeLabel;html=1;align=center;verticalAlign=middle;resizable=0;points=[];" parent="XfmtBNuZIH59qyqwO2bj-41" vertex="1" connectable="0">
          <mxGeometry x="-0.8261" relative="1" as="geometry">
            <mxPoint x="10" y="5" as="offset" />
          </mxGeometry>
        </mxCell>
        <mxCell id="XfmtBNuZIH59qyqwO2bj-43" value="&amp;nbsp;0..*&amp;nbsp;" style="edgeLabel;html=1;align=center;verticalAlign=middle;resizable=0;points=[];" parent="XfmtBNuZIH59qyqwO2bj-41" vertex="1" connectable="0">
          <mxGeometry x="0.7652" relative="1" as="geometry">
            <mxPoint as="offset" />
          </mxGeometry>
        </mxCell>
        <mxCell id="XfmtBNuZIH59qyqwO2bj-48" value="&amp;lt; owned by&amp;nbsp;" style="edgeLabel;html=1;align=center;verticalAlign=middle;resizable=0;points=[];" parent="XfmtBNuZIH59qyqwO2bj-41" vertex="1" connectable="0">
          <mxGeometry x="-0.1727" y="-1" relative="1" as="geometry">
            <mxPoint as="offset" />
          </mxGeometry>
        </mxCell>
        <mxCell id="XfmtBNuZIH59qyqwO2bj-44" value="Album" style="swimlane;fontStyle=0;childLayout=stackLayout;horizontal=1;startSize=30;horizontalStack=0;resizeParent=1;resizeParentMax=0;resizeLast=0;collapsible=1;marginBottom=0;whiteSpace=wrap;html=1;" parent="1" vertex="1">
          <mxGeometry x="388" y="-230" width="140" height="90" as="geometry" />
        </mxCell>
        <mxCell id="XfmtBNuZIH59qyqwO2bj-45" value="title" style="text;strokeColor=none;fillColor=none;align=left;verticalAlign=middle;spacingLeft=4;spacingRight=4;overflow=hidden;points=[[0,0.5],[1,0.5]];portConstraint=eastwest;rotatable=0;whiteSpace=wrap;html=1;" parent="XfmtBNuZIH59qyqwO2bj-44" vertex="1">
          <mxGeometry y="30" width="140" height="30" as="geometry" />
        </mxCell>
        <mxCell id="XfmtBNuZIH59qyqwO2bj-46" value="publication_year" style="text;strokeColor=none;fillColor=none;align=left;verticalAlign=middle;spacingLeft=4;spacingRight=4;overflow=hidden;points=[[0,0.5],[1,0.5]];portConstraint=eastwest;rotatable=0;whiteSpace=wrap;html=1;" parent="XfmtBNuZIH59qyqwO2bj-44" vertex="1">
          <mxGeometry y="60" width="140" height="30" as="geometry" />
        </mxCell>
        <mxCell id="XfmtBNuZIH59qyqwO2bj-49" value="Band" style="swimlane;fontStyle=0;childLayout=stackLayout;horizontal=1;startSize=30;horizontalStack=0;resizeParent=1;resizeParentMax=0;resizeLast=0;collapsible=1;marginBottom=0;whiteSpace=wrap;html=1;" parent="1" vertex="1">
          <mxGeometry x="58" y="240" width="140" height="60" as="geometry" />
        </mxCell>
        <mxCell id="XfmtBNuZIH59qyqwO2bj-53" value="Solo" style="swimlane;fontStyle=0;childLayout=stackLayout;horizontal=1;startSize=30;horizontalStack=0;resizeParent=1;resizeParentMax=0;resizeLast=0;collapsible=1;marginBottom=0;whiteSpace=wrap;html=1;" parent="1" vertex="1">
          <mxGeometry x="408" y="240" width="140" height="60" as="geometry" />
        </mxCell>
        <mxCell id="XfmtBNuZIH59qyqwO2bj-57" value="Genre" style="swimlane;fontStyle=0;childLayout=stackLayout;horizontal=1;startSize=30;horizontalStack=0;resizeParent=1;resizeParentMax=0;resizeLast=0;collapsible=1;marginBottom=0;whiteSpace=wrap;html=1;" parent="1" vertex="1">
          <mxGeometry x="388" y="-430" width="140" height="60" as="geometry" />
        </mxCell>
        <mxCell id="XfmtBNuZIH59qyqwO2bj-61" value="" style="endArrow=none;html=1;rounded=0;exitX=0;exitY=0.5;exitDx=0;exitDy=0;entryX=-0.007;entryY=0.133;entryDx=0;entryDy=0;entryPerimeter=0;" parent="1" source="XfmtBNuZIH59qyqwO2bj-2" target="XfmtBNuZIH59qyqwO2bj-46" edge="1">
          <mxGeometry width="50" height="50" relative="1" as="geometry">
            <mxPoint x="348" y="460" as="sourcePoint" />
            <mxPoint x="-112" y="170" as="targetPoint" />
            <Array as="points">
              <mxPoint x="40" y="720" />
              <mxPoint x="40" y="-170" />
            </Array>
          </mxGeometry>
        </mxCell>
        <mxCell id="XfmtBNuZIH59qyqwO2bj-99" value="favourite /\" style="edgeLabel;html=1;align=center;verticalAlign=middle;resizable=0;points=[];" parent="XfmtBNuZIH59qyqwO2bj-61" vertex="1" connectable="0">
          <mxGeometry x="-0.0303" y="-2" relative="1" as="geometry">
            <mxPoint as="offset" />
          </mxGeometry>
        </mxCell>
        <mxCell id="XfmtBNuZIH59qyqwO2bj-100" value="&amp;nbsp;0..*&amp;nbsp;" style="edgeLabel;html=1;align=center;verticalAlign=middle;resizable=0;points=[];" parent="XfmtBNuZIH59qyqwO2bj-61" vertex="1" connectable="0">
          <mxGeometry x="0.8873" y="-2" relative="1" as="geometry">
            <mxPoint as="offset" />
          </mxGeometry>
        </mxCell>
        <mxCell id="XfmtBNuZIH59qyqwO2bj-101" value="&amp;nbsp;0..*&amp;nbsp;" style="edgeLabel;html=1;align=center;verticalAlign=middle;resizable=0;points=[];" parent="XfmtBNuZIH59qyqwO2bj-61" vertex="1" connectable="0">
          <mxGeometry x="-0.9301" y="1" relative="1" as="geometry">
            <mxPoint as="offset" />
          </mxGeometry>
        </mxCell>
        <mxCell id="XfmtBNuZIH59qyqwO2bj-62" value="" style="endArrow=none;html=1;rounded=0;exitX=1;exitY=0.5;exitDx=0;exitDy=0;entryX=-0.007;entryY=0.1;entryDx=0;entryDy=0;entryPerimeter=0;" parent="1" source="XfmtBNuZIH59qyqwO2bj-2" edge="1">
          <mxGeometry width="50" height="50" relative="1" as="geometry">
            <mxPoint x="338" y="750" as="sourcePoint" />
            <mxPoint x="422.02" y="713" as="targetPoint" />
          </mxGeometry>
        </mxCell>
        <mxCell id="XfmtBNuZIH59qyqwO2bj-63" value="&amp;nbsp;0..*&amp;nbsp;" style="edgeLabel;html=1;align=center;verticalAlign=middle;resizable=0;points=[];" parent="XfmtBNuZIH59qyqwO2bj-62" vertex="1" connectable="0">
          <mxGeometry x="-0.8221" y="2" relative="1" as="geometry">
            <mxPoint x="9" y="2" as="offset" />
          </mxGeometry>
        </mxCell>
        <mxCell id="XfmtBNuZIH59qyqwO2bj-64" value="&amp;nbsp;1&amp;nbsp;" style="edgeLabel;html=1;align=center;verticalAlign=middle;resizable=0;points=[];" parent="XfmtBNuZIH59qyqwO2bj-62" vertex="1" connectable="0">
          <mxGeometry x="0.7581" y="1" relative="1" as="geometry">
            <mxPoint as="offset" />
          </mxGeometry>
        </mxCell>
        <mxCell id="XfmtBNuZIH59qyqwO2bj-65" value="&amp;nbsp;choose &amp;gt;" style="edgeLabel;html=1;align=center;verticalAlign=middle;resizable=0;points=[];" parent="XfmtBNuZIH59qyqwO2bj-62" vertex="1" connectable="0">
          <mxGeometry x="0.0974" y="3" relative="1" as="geometry">
            <mxPoint as="offset" />
          </mxGeometry>
        </mxCell>
        <mxCell id="XfmtBNuZIH59qyqwO2bj-66" value="" style="endArrow=none;html=1;rounded=0;entryX=0;entryY=0.5;entryDx=0;entryDy=0;exitX=1.007;exitY=0.167;exitDx=0;exitDy=0;exitPerimeter=0;" parent="1" target="XfmtBNuZIH59qyqwO2bj-17" edge="1">
          <mxGeometry width="50" height="50" relative="1" as="geometry">
            <mxPoint x="563.98" y="715.0100000000002" as="sourcePoint" />
            <mxPoint x="698.94" y="687.9899999999998" as="targetPoint" />
          </mxGeometry>
        </mxCell>
        <mxCell id="XfmtBNuZIH59qyqwO2bj-73" value="&amp;nbsp;0..*&amp;nbsp;" style="edgeLabel;html=1;align=center;verticalAlign=middle;resizable=0;points=[];" parent="XfmtBNuZIH59qyqwO2bj-66" vertex="1" connectable="0">
          <mxGeometry x="0.7387" relative="1" as="geometry">
            <mxPoint as="offset" />
          </mxGeometry>
        </mxCell>
        <mxCell id="XfmtBNuZIH59qyqwO2bj-74" value="&amp;nbsp;1&amp;nbsp;" style="edgeLabel;html=1;align=center;verticalAlign=middle;resizable=0;points=[];" parent="XfmtBNuZIH59qyqwO2bj-66" vertex="1" connectable="0">
          <mxGeometry x="-0.7511" y="4" relative="1" as="geometry">
            <mxPoint as="offset" />
          </mxGeometry>
        </mxCell>
        <mxCell id="XfmtBNuZIH59qyqwO2bj-75" value="&amp;nbsp;&amp;lt; has&amp;nbsp;" style="edgeLabel;html=1;align=center;verticalAlign=middle;resizable=0;points=[];" parent="XfmtBNuZIH59qyqwO2bj-66" vertex="1" connectable="0">
          <mxGeometry x="-0.0292" relative="1" as="geometry">
            <mxPoint as="offset" />
          </mxGeometry>
        </mxCell>
        <mxCell id="XfmtBNuZIH59qyqwO2bj-67" value="" style="endArrow=none;html=1;rounded=0;entryX=0.457;entryY=1;entryDx=0;entryDy=0;entryPerimeter=0;exitX=0.5;exitY=0;exitDx=0;exitDy=0;" parent="1" source="XfmtBNuZIH59qyqwO2bj-9" edge="1">
          <mxGeometry width="50" height="50" relative="1" as="geometry">
            <mxPoint x="408" y="730" as="sourcePoint" />
            <mxPoint x="486.98" y="740" as="targetPoint" />
            <Array as="points">
              <mxPoint x="358" y="830" />
              <mxPoint x="418" y="830" />
              <mxPoint x="487" y="830" />
            </Array>
          </mxGeometry>
        </mxCell>
        <mxCell id="XfmtBNuZIH59qyqwO2bj-68" value="" style="endArrow=none;html=1;rounded=0;exitX=0.5;exitY=0;exitDx=0;exitDy=0;" parent="1" source="XfmtBNuZIH59qyqwO2bj-70" edge="1">
          <mxGeometry width="50" height="50" relative="1" as="geometry">
            <mxPoint x="408" y="730" as="sourcePoint" />
            <mxPoint x="488" y="740" as="targetPoint" />
            <Array as="points" />
          </mxGeometry>
        </mxCell>
        <mxCell id="XfmtBNuZIH59qyqwO2bj-71" value="" style="endArrow=none;html=1;rounded=0;exitX=0.5;exitY=0;exitDx=0;exitDy=0;" parent="1" source="XfmtBNuZIH59qyqwO2bj-13" target="XfmtBNuZIH59qyqwO2bj-70" edge="1">
          <mxGeometry width="50" height="50" relative="1" as="geometry">
            <mxPoint x="598" y="910" as="sourcePoint" />
            <mxPoint x="488" y="740" as="targetPoint" />
            <Array as="points">
              <mxPoint x="598" y="830" />
              <mxPoint x="488" y="830" />
            </Array>
          </mxGeometry>
        </mxCell>
        <mxCell id="XfmtBNuZIH59qyqwO2bj-72" value="{ mandatory, or }" style="edgeLabel;html=1;align=center;verticalAlign=middle;resizable=0;points=[];" parent="XfmtBNuZIH59qyqwO2bj-71" vertex="1" connectable="0">
          <mxGeometry x="0.6308" y="1" relative="1" as="geometry">
            <mxPoint as="offset" />
          </mxGeometry>
        </mxCell>
        <mxCell id="XfmtBNuZIH59qyqwO2bj-70" value="" style="triangle;whiteSpace=wrap;html=1;rotation=-90;" parent="1" vertex="1">
          <mxGeometry x="478" y="740" width="20" height="20" as="geometry" />
        </mxCell>
        <mxCell id="XfmtBNuZIH59qyqwO2bj-77" value="" style="endArrow=none;html=1;rounded=0;entryX=0.479;entryY=1.067;entryDx=0;entryDy=0;entryPerimeter=0;exitX=0.5;exitY=0;exitDx=0;exitDy=0;" parent="1" source="XfmtBNuZIH59qyqwO2bj-49" edge="1">
          <mxGeometry width="50" height="50" relative="1" as="geometry">
            <mxPoint x="408" y="280" as="sourcePoint" />
            <mxPoint x="315.05999999999995" y="102.00999999999999" as="targetPoint" />
            <Array as="points">
              <mxPoint x="128" y="200" />
              <mxPoint x="315" y="200" />
            </Array>
          </mxGeometry>
        </mxCell>
        <mxCell id="XfmtBNuZIH59qyqwO2bj-78" value="" style="endArrow=none;html=1;rounded=0;entryX=0.5;entryY=0;entryDx=0;entryDy=0;exitX=1;exitY=0.5;exitDx=0;exitDy=0;" parent="1" source="XfmtBNuZIH59qyqwO2bj-80" target="XfmtBNuZIH59qyqwO2bj-53" edge="1">
          <mxGeometry width="50" height="50" relative="1" as="geometry">
            <mxPoint x="408" y="280" as="sourcePoint" />
            <mxPoint x="458" y="230" as="targetPoint" />
            <Array as="points">
              <mxPoint x="316" y="200" />
              <mxPoint x="478" y="200" />
            </Array>
          </mxGeometry>
        </mxCell>
        <mxCell id="XfmtBNuZIH59qyqwO2bj-81" value="" style="endArrow=none;html=1;rounded=0;entryX=0.5;entryY=0;entryDx=0;entryDy=0;exitX=0.486;exitY=1.067;exitDx=0;exitDy=0;exitPerimeter=0;" parent="1" target="XfmtBNuZIH59qyqwO2bj-80" edge="1">
          <mxGeometry width="50" height="50" relative="1" as="geometry">
            <mxPoint x="316.03999999999996" y="102.00999999999999" as="sourcePoint" />
            <mxPoint x="433" y="240" as="targetPoint" />
            <Array as="points" />
          </mxGeometry>
        </mxCell>
        <mxCell id="XfmtBNuZIH59qyqwO2bj-82" value="{ mandatory, or }" style="edgeLabel;html=1;align=center;verticalAlign=middle;resizable=0;points=[];" parent="XfmtBNuZIH59qyqwO2bj-81" vertex="1" connectable="0">
          <mxGeometry x="-0.5112" y="4" relative="1" as="geometry">
            <mxPoint x="-1" y="45" as="offset" />
          </mxGeometry>
        </mxCell>
        <mxCell id="XfmtBNuZIH59qyqwO2bj-80" value="" style="triangle;whiteSpace=wrap;html=1;rotation=-90;" parent="1" vertex="1">
          <mxGeometry x="308" y="130" width="20" height="20" as="geometry" />
        </mxCell>
        <mxCell id="XfmtBNuZIH59qyqwO2bj-83" value="" style="endArrow=none;html=1;rounded=0;exitX=0.5;exitY=0;exitDx=0;exitDy=0;entryX=0.521;entryY=1.067;entryDx=0;entryDy=0;entryPerimeter=0;" parent="1" source="XfmtBNuZIH59qyqwO2bj-21" target="XfmtBNuZIH59qyqwO2bj-27" edge="1">
          <mxGeometry width="50" height="50" relative="1" as="geometry">
            <mxPoint x="468" y="390" as="sourcePoint" />
            <mxPoint x="693" y="130" as="targetPoint" />
            <Array as="points">
              <mxPoint x="528" y="320" />
              <mxPoint x="693" y="320" />
            </Array>
          </mxGeometry>
        </mxCell>
        <mxCell id="XfmtBNuZIH59qyqwO2bj-84" value="0..*" style="edgeLabel;html=1;align=center;verticalAlign=middle;resizable=0;points=[];" parent="XfmtBNuZIH59qyqwO2bj-83" vertex="1" connectable="0">
          <mxGeometry x="-0.9243" y="1" relative="1" as="geometry">
            <mxPoint as="offset" />
          </mxGeometry>
        </mxCell>
        <mxCell id="XfmtBNuZIH59qyqwO2bj-85" value="0..*" style="edgeLabel;html=1;align=center;verticalAlign=middle;resizable=0;points=[];" parent="XfmtBNuZIH59qyqwO2bj-83" vertex="1" connectable="0">
          <mxGeometry x="0.8706" y="-1" relative="1" as="geometry">
            <mxPoint as="offset" />
          </mxGeometry>
        </mxCell>
        <mxCell id="XfmtBNuZIH59qyqwO2bj-86" value="&amp;nbsp;consist of &amp;gt;&amp;nbsp;" style="edgeLabel;html=1;align=center;verticalAlign=middle;resizable=0;points=[];" parent="XfmtBNuZIH59qyqwO2bj-83" vertex="1" connectable="0">
          <mxGeometry x="-0.2703" y="2" relative="1" as="geometry">
            <mxPoint as="offset" />
          </mxGeometry>
        </mxCell>
        <mxCell id="XfmtBNuZIH59qyqwO2bj-87" value="" style="endArrow=none;html=1;rounded=0;exitX=0.5;exitY=0;exitDx=0;exitDy=0;entryX=1;entryY=0.5;entryDx=0;entryDy=0;" parent="1" source="XfmtBNuZIH59qyqwO2bj-25" target="XfmtBNuZIH59qyqwO2bj-45" edge="1">
          <mxGeometry width="50" height="50" relative="1" as="geometry">
            <mxPoint x="478" y="-50" as="sourcePoint" />
            <mxPoint x="685.06" y="-120.99000000000001" as="targetPoint" />
            <Array as="points">
              <mxPoint x="688" y="-185" />
            </Array>
          </mxGeometry>
        </mxCell>
        <mxCell id="XfmtBNuZIH59qyqwO2bj-88" value="1..*" style="edgeLabel;html=1;align=center;verticalAlign=middle;resizable=0;points=[];" parent="XfmtBNuZIH59qyqwO2bj-87" vertex="1" connectable="0">
          <mxGeometry x="-0.8172" y="-1" relative="1" as="geometry">
            <mxPoint as="offset" />
          </mxGeometry>
        </mxCell>
        <mxCell id="XfmtBNuZIH59qyqwO2bj-89" value="0..1" style="edgeLabel;html=1;align=center;verticalAlign=middle;resizable=0;points=[];" parent="XfmtBNuZIH59qyqwO2bj-87" vertex="1" connectable="0">
          <mxGeometry x="0.7706" y="-2" relative="1" as="geometry">
            <mxPoint as="offset" />
          </mxGeometry>
        </mxCell>
        <mxCell id="XfmtBNuZIH59qyqwO2bj-90" value="associated with /\" style="edgeLabel;html=1;align=center;verticalAlign=middle;resizable=0;points=[];" parent="XfmtBNuZIH59qyqwO2bj-87" vertex="1" connectable="0">
          <mxGeometry x="-0.0996" y="-1" relative="1" as="geometry">
            <mxPoint as="offset" />
          </mxGeometry>
        </mxCell>
        <mxCell id="XfmtBNuZIH59qyqwO2bj-91" value="" style="endArrow=none;html=1;rounded=0;exitX=0.5;exitY=0;exitDx=0;exitDy=0;entryX=0.536;entryY=1.033;entryDx=0;entryDy=0;entryPerimeter=0;" parent="1" source="XfmtBNuZIH59qyqwO2bj-37" target="XfmtBNuZIH59qyqwO2bj-46" edge="1">
          <mxGeometry width="50" height="50" relative="1" as="geometry">
            <mxPoint x="468" y="-80" as="sourcePoint" />
            <mxPoint x="518" y="-130" as="targetPoint" />
            <Array as="points">
              <mxPoint x="318" y="-60" />
              <mxPoint x="463" y="-60" />
            </Array>
          </mxGeometry>
        </mxCell>
        <mxCell id="XfmtBNuZIH59qyqwO2bj-92" value="1..*" style="edgeLabel;html=1;align=center;verticalAlign=middle;resizable=0;points=[];" parent="XfmtBNuZIH59qyqwO2bj-91" vertex="1" connectable="0">
          <mxGeometry x="-0.8503" y="-2" relative="1" as="geometry">
            <mxPoint as="offset" />
          </mxGeometry>
        </mxCell>
        <mxCell id="XfmtBNuZIH59qyqwO2bj-93" value="0..*" style="edgeLabel;html=1;align=center;verticalAlign=middle;resizable=0;points=[];" parent="XfmtBNuZIH59qyqwO2bj-91" vertex="1" connectable="0">
          <mxGeometry x="0.8979" y="-1" relative="1" as="geometry">
            <mxPoint as="offset" />
          </mxGeometry>
        </mxCell>
        <mxCell id="XfmtBNuZIH59qyqwO2bj-94" value="&amp;nbsp;owned by V" style="edgeLabel;html=1;align=center;verticalAlign=middle;resizable=0;points=[];" parent="XfmtBNuZIH59qyqwO2bj-91" vertex="1" connectable="0">
          <mxGeometry x="-0.0136" relative="1" as="geometry">
            <mxPoint as="offset" />
          </mxGeometry>
        </mxCell>
        <mxCell id="XfmtBNuZIH59qyqwO2bj-95" value="" style="endArrow=none;html=1;rounded=0;entryX=0.5;entryY=1;entryDx=0;entryDy=0;exitX=0.5;exitY=0;exitDx=0;exitDy=0;" parent="1" source="XfmtBNuZIH59qyqwO2bj-44" target="XfmtBNuZIH59qyqwO2bj-57" edge="1">
          <mxGeometry width="50" height="50" relative="1" as="geometry">
            <mxPoint x="408" y="-100" as="sourcePoint" />
            <mxPoint x="458" y="-150" as="targetPoint" />
          </mxGeometry>
        </mxCell>
        <mxCell id="XfmtBNuZIH59qyqwO2bj-96" value="1..*" style="edgeLabel;html=1;align=center;verticalAlign=middle;resizable=0;points=[];" parent="XfmtBNuZIH59qyqwO2bj-95" vertex="1" connectable="0">
          <mxGeometry x="-0.7474" y="3" relative="1" as="geometry">
            <mxPoint as="offset" />
          </mxGeometry>
        </mxCell>
        <mxCell id="XfmtBNuZIH59qyqwO2bj-97" value="1..*" style="edgeLabel;html=1;align=center;verticalAlign=middle;resizable=0;points=[];" parent="XfmtBNuZIH59qyqwO2bj-95" vertex="1" connectable="0">
          <mxGeometry x="0.7053" y="-2" relative="1" as="geometry">
            <mxPoint as="offset" />
          </mxGeometry>
        </mxCell>
        <mxCell id="XfmtBNuZIH59qyqwO2bj-98" value="has /\" style="edgeLabel;html=1;align=center;verticalAlign=middle;resizable=0;points=[];" parent="XfmtBNuZIH59qyqwO2bj-95" vertex="1" connectable="0">
          <mxGeometry x="0.0316" y="1" relative="1" as="geometry">
            <mxPoint as="offset" />
          </mxGeometry>
        </mxCell>
        <mxCell id="XfmtBNuZIH59qyqwO2bj-102" value="" style="endArrow=none;html=1;rounded=0;exitX=0;exitY=0.5;exitDx=0;exitDy=0;entryX=1;entryY=0.5;entryDx=0;entryDy=0;" parent="1" source="XfmtBNuZIH59qyqwO2bj-53" target="XfmtBNuZIH59qyqwO2bj-49" edge="1">
          <mxGeometry width="50" height="50" relative="1" as="geometry">
            <mxPoint x="368" y="230" as="sourcePoint" />
            <mxPoint x="418" y="180" as="targetPoint" />
            <Array as="points" />
          </mxGeometry>
        </mxCell>
        <mxCell id="XfmtBNuZIH59qyqwO2bj-105" value="&amp;nbsp;0..*&amp;nbsp;" style="edgeLabel;html=1;align=center;verticalAlign=middle;resizable=0;points=[];" parent="XfmtBNuZIH59qyqwO2bj-102" vertex="1" connectable="0">
          <mxGeometry x="0.7905" y="1" relative="1" as="geometry">
            <mxPoint as="offset" />
          </mxGeometry>
        </mxCell>
        <mxCell id="XfmtBNuZIH59qyqwO2bj-106" value="&amp;nbsp;&amp;lt; play in&amp;nbsp;" style="edgeLabel;html=1;align=center;verticalAlign=middle;resizable=0;points=[];" parent="XfmtBNuZIH59qyqwO2bj-102" vertex="1" connectable="0">
          <mxGeometry x="-0.1333" relative="1" as="geometry">
            <mxPoint x="-19" as="offset" />
          </mxGeometry>
        </mxCell>
        <mxCell id="XfmtBNuZIH59qyqwO2bj-107" value="&amp;nbsp;0..*&amp;nbsp;" style="edgeLabel;html=1;align=center;verticalAlign=middle;resizable=0;points=[];" parent="XfmtBNuZIH59qyqwO2bj-102" vertex="1" connectable="0">
          <mxGeometry x="-0.8" y="2" relative="1" as="geometry">
            <mxPoint as="offset" />
          </mxGeometry>
        </mxCell>
        <mxCell id="E94vgl2gUAIImOs3w6qi-1" value="name" style="text;html=1;align=center;verticalAlign=middle;resizable=0;points=[];autosize=1;strokeColor=none;fillColor=none;" vertex="1" parent="1">
          <mxGeometry x="245" y="68" width="50" height="30" as="geometry" />
        </mxCell>
      </root>
    </mxGraphModel>
  </diagram>
  <diagram id="gijBLE7uaLErCtrjfhpG" name="Ex 5. - VIA">
    <mxGraphModel dx="2284" dy="765" grid="1" gridSize="10" guides="1" tooltips="1" connect="1" arrows="1" fold="1" page="1" pageScale="1" pageWidth="850" pageHeight="1100" math="0" shadow="0">
      <root>
        <mxCell id="0" />
        <mxCell id="1" parent="0" />
        <mxCell id="PWovvfR49v7TxZQlNOI5-1" value="Employee" style="swimlane;fontStyle=0;childLayout=stackLayout;horizontal=1;startSize=30;horizontalStack=0;resizeParent=1;resizeParentMax=0;resizeLast=0;collapsible=1;marginBottom=0;whiteSpace=wrap;html=1;" parent="1" vertex="1">
          <mxGeometry x="480" y="350" width="140" height="210" as="geometry" />
        </mxCell>
        <mxCell id="PWovvfR49v7TxZQlNOI5-2" value="initials" style="text;strokeColor=none;fillColor=none;align=left;verticalAlign=middle;spacingLeft=4;spacingRight=4;overflow=hidden;points=[[0,0.5],[1,0.5]];portConstraint=eastwest;rotatable=0;whiteSpace=wrap;html=1;" parent="PWovvfR49v7TxZQlNOI5-1" vertex="1">
          <mxGeometry y="30" width="140" height="30" as="geometry" />
        </mxCell>
        <mxCell id="PWovvfR49v7TxZQlNOI5-3" value="first_name" style="text;strokeColor=none;fillColor=none;align=left;verticalAlign=middle;spacingLeft=4;spacingRight=4;overflow=hidden;points=[[0,0.5],[1,0.5]];portConstraint=eastwest;rotatable=0;whiteSpace=wrap;html=1;" parent="PWovvfR49v7TxZQlNOI5-1" vertex="1">
          <mxGeometry y="60" width="140" height="30" as="geometry" />
        </mxCell>
        <mxCell id="PWovvfR49v7TxZQlNOI5-4" value="last_name" style="text;strokeColor=none;fillColor=none;align=left;verticalAlign=middle;spacingLeft=4;spacingRight=4;overflow=hidden;points=[[0,0.5],[1,0.5]];portConstraint=eastwest;rotatable=0;whiteSpace=wrap;html=1;" parent="PWovvfR49v7TxZQlNOI5-1" vertex="1">
          <mxGeometry y="90" width="140" height="30" as="geometry" />
        </mxCell>
        <mxCell id="PWovvfR49v7TxZQlNOI5-5" value="salary" style="text;strokeColor=none;fillColor=none;align=left;verticalAlign=middle;spacingLeft=4;spacingRight=4;overflow=hidden;points=[[0,0.5],[1,0.5]];portConstraint=eastwest;rotatable=0;whiteSpace=wrap;html=1;" parent="PWovvfR49v7TxZQlNOI5-1" vertex="1">
          <mxGeometry y="120" width="140" height="30" as="geometry" />
        </mxCell>
        <mxCell id="PWovvfR49v7TxZQlNOI5-6" value="phone_number" style="text;strokeColor=none;fillColor=none;align=left;verticalAlign=middle;spacingLeft=4;spacingRight=4;overflow=hidden;points=[[0,0.5],[1,0.5]];portConstraint=eastwest;rotatable=0;whiteSpace=wrap;html=1;" parent="PWovvfR49v7TxZQlNOI5-1" vertex="1">
          <mxGeometry y="150" width="140" height="30" as="geometry" />
        </mxCell>
        <mxCell id="PWovvfR49v7TxZQlNOI5-7" value="office" style="text;strokeColor=none;fillColor=none;align=left;verticalAlign=middle;spacingLeft=4;spacingRight=4;overflow=hidden;points=[[0,0.5],[1,0.5]];portConstraint=eastwest;rotatable=0;whiteSpace=wrap;html=1;" parent="PWovvfR49v7TxZQlNOI5-1" vertex="1">
          <mxGeometry y="180" width="140" height="30" as="geometry" />
        </mxCell>
        <mxCell id="PWovvfR49v7TxZQlNOI5-8" value="Study Programme" style="swimlane;fontStyle=0;childLayout=stackLayout;horizontal=1;startSize=30;horizontalStack=0;resizeParent=1;resizeParentMax=0;resizeLast=0;collapsible=1;marginBottom=0;whiteSpace=wrap;html=1;" parent="1" vertex="1">
          <mxGeometry x="20" y="665" width="140" height="90" as="geometry" />
        </mxCell>
        <mxCell id="PWovvfR49v7TxZQlNOI5-9" value="short_name" style="text;strokeColor=none;fillColor=none;align=left;verticalAlign=middle;spacingLeft=4;spacingRight=4;overflow=hidden;points=[[0,0.5],[1,0.5]];portConstraint=eastwest;rotatable=0;whiteSpace=wrap;html=1;" parent="PWovvfR49v7TxZQlNOI5-8" vertex="1">
          <mxGeometry y="30" width="140" height="30" as="geometry" />
        </mxCell>
        <mxCell id="PWovvfR49v7TxZQlNOI5-10" value="descriptive_name" style="text;strokeColor=none;fillColor=none;align=left;verticalAlign=middle;spacingLeft=4;spacingRight=4;overflow=hidden;points=[[0,0.5],[1,0.5]];portConstraint=eastwest;rotatable=0;whiteSpace=wrap;html=1;" parent="PWovvfR49v7TxZQlNOI5-8" vertex="1">
          <mxGeometry y="60" width="140" height="30" as="geometry" />
        </mxCell>
        <mxCell id="PWovvfR49v7TxZQlNOI5-12" value="Head of Programme" style="swimlane;fontStyle=0;childLayout=stackLayout;horizontal=1;startSize=30;horizontalStack=0;resizeParent=1;resizeParentMax=0;resizeLast=0;collapsible=1;marginBottom=0;whiteSpace=wrap;html=1;" parent="1" vertex="1">
          <mxGeometry x="320" y="690" width="140" height="60" as="geometry" />
        </mxCell>
        <mxCell id="PWovvfR49v7TxZQlNOI5-16" value="" style="endArrow=none;html=1;rounded=0;exitX=0;exitY=0.5;exitDx=0;exitDy=0;entryX=1;entryY=-0.033;entryDx=0;entryDy=0;entryPerimeter=0;" parent="1" source="PWovvfR49v7TxZQlNOI5-12" target="PWovvfR49v7TxZQlNOI5-10" edge="1">
          <mxGeometry width="50" height="50" relative="1" as="geometry">
            <mxPoint x="320" y="695" as="sourcePoint" />
            <mxPoint x="450" y="660" as="targetPoint" />
          </mxGeometry>
        </mxCell>
        <mxCell id="PWovvfR49v7TxZQlNOI5-17" value="&amp;nbsp;1..*&amp;nbsp;" style="edgeLabel;html=1;align=center;verticalAlign=middle;resizable=0;points=[];" parent="PWovvfR49v7TxZQlNOI5-16" vertex="1" connectable="0">
          <mxGeometry x="0.8" y="1" relative="1" as="geometry">
            <mxPoint as="offset" />
          </mxGeometry>
        </mxCell>
        <mxCell id="PWovvfR49v7TxZQlNOI5-18" value="&amp;nbsp;1&amp;nbsp;" style="edgeLabel;html=1;align=center;verticalAlign=middle;resizable=0;points=[];" parent="PWovvfR49v7TxZQlNOI5-16" vertex="1" connectable="0">
          <mxGeometry x="-0.8" y="1" relative="1" as="geometry">
            <mxPoint as="offset" />
          </mxGeometry>
        </mxCell>
        <mxCell id="PWovvfR49v7TxZQlNOI5-20" value="&amp;nbsp;&amp;lt; leads&amp;nbsp;" style="edgeLabel;html=1;align=center;verticalAlign=middle;resizable=0;points=[];" parent="PWovvfR49v7TxZQlNOI5-16" vertex="1" connectable="0">
          <mxGeometry x="0.0375" y="-2" relative="1" as="geometry">
            <mxPoint as="offset" />
          </mxGeometry>
        </mxCell>
        <mxCell id="PWovvfR49v7TxZQlNOI5-21" value="Teacher" style="swimlane;fontStyle=0;childLayout=stackLayout;horizontal=1;startSize=30;horizontalStack=0;resizeParent=1;resizeParentMax=0;resizeLast=0;collapsible=1;marginBottom=0;whiteSpace=wrap;html=1;" parent="1" vertex="1">
          <mxGeometry x="630" y="680" width="140" height="90" as="geometry" />
        </mxCell>
        <mxCell id="PWovvfR49v7TxZQlNOI5-22" value="is_coordinator" style="text;strokeColor=none;fillColor=none;align=left;verticalAlign=middle;spacingLeft=4;spacingRight=4;overflow=hidden;points=[[0,0.5],[1,0.5]];portConstraint=eastwest;rotatable=0;whiteSpace=wrap;html=1;" parent="PWovvfR49v7TxZQlNOI5-21" vertex="1">
          <mxGeometry y="30" width="140" height="30" as="geometry" />
        </mxCell>
        <mxCell id="d4JsPL3d9oYAhFFPDHcH-1" value="specialization" style="text;strokeColor=none;fillColor=none;align=left;verticalAlign=middle;spacingLeft=4;spacingRight=4;overflow=hidden;points=[[0,0.5],[1,0.5]];portConstraint=eastwest;rotatable=0;whiteSpace=wrap;html=1;" vertex="1" parent="PWovvfR49v7TxZQlNOI5-21">
          <mxGeometry y="60" width="140" height="30" as="geometry" />
        </mxCell>
        <mxCell id="PWovvfR49v7TxZQlNOI5-25" value="" style="endArrow=none;html=1;rounded=0;exitX=0;exitY=0.333;exitDx=0;exitDy=0;entryX=1;entryY=0.5;entryDx=0;entryDy=0;exitPerimeter=0;" parent="1" target="PWovvfR49v7TxZQlNOI5-12" edge="1">
          <mxGeometry width="50" height="50" relative="1" as="geometry">
            <mxPoint x="630" y="719.99" as="sourcePoint" />
            <mxPoint x="460" y="689" as="targetPoint" />
          </mxGeometry>
        </mxCell>
        <mxCell id="PWovvfR49v7TxZQlNOI5-26" value="&amp;nbsp;0..*&amp;nbsp;" style="edgeLabel;html=1;align=center;verticalAlign=middle;resizable=0;points=[];" parent="PWovvfR49v7TxZQlNOI5-25" vertex="1" connectable="0">
          <mxGeometry x="-0.7765" y="1" relative="1" as="geometry">
            <mxPoint as="offset" />
          </mxGeometry>
        </mxCell>
        <mxCell id="PWovvfR49v7TxZQlNOI5-27" value="&amp;nbsp;1&amp;nbsp;" style="edgeLabel;html=1;align=center;verticalAlign=middle;resizable=0;points=[];" parent="PWovvfR49v7TxZQlNOI5-25" vertex="1" connectable="0">
          <mxGeometry x="0.8001" y="-1" relative="1" as="geometry">
            <mxPoint as="offset" />
          </mxGeometry>
        </mxCell>
        <mxCell id="PWovvfR49v7TxZQlNOI5-28" value="&amp;nbsp;&amp;lt; asnwer&amp;nbsp;to&amp;nbsp;" style="edgeLabel;html=1;align=center;verticalAlign=middle;resizable=0;points=[];" parent="PWovvfR49v7TxZQlNOI5-25" vertex="1" connectable="0">
          <mxGeometry x="-0.0117" y="-1" relative="1" as="geometry">
            <mxPoint x="-6" as="offset" />
          </mxGeometry>
        </mxCell>
        <mxCell id="PWovvfR49v7TxZQlNOI5-29" value="Student" style="swimlane;fontStyle=0;childLayout=stackLayout;horizontal=1;startSize=30;horizontalStack=0;resizeParent=1;resizeParentMax=0;resizeLast=0;collapsible=1;marginBottom=0;whiteSpace=wrap;html=1;" parent="1" vertex="1">
          <mxGeometry x="-390" y="650" width="140" height="150" as="geometry" />
        </mxCell>
        <mxCell id="PWovvfR49v7TxZQlNOI5-30" value="number" style="text;strokeColor=none;fillColor=none;align=left;verticalAlign=middle;spacingLeft=4;spacingRight=4;overflow=hidden;points=[[0,0.5],[1,0.5]];portConstraint=eastwest;rotatable=0;whiteSpace=wrap;html=1;" parent="PWovvfR49v7TxZQlNOI5-29" vertex="1">
          <mxGeometry y="30" width="140" height="30" as="geometry" />
        </mxCell>
        <mxCell id="PWovvfR49v7TxZQlNOI5-31" value="first_name" style="text;strokeColor=none;fillColor=none;align=left;verticalAlign=middle;spacingLeft=4;spacingRight=4;overflow=hidden;points=[[0,0.5],[1,0.5]];portConstraint=eastwest;rotatable=0;whiteSpace=wrap;html=1;" parent="PWovvfR49v7TxZQlNOI5-29" vertex="1">
          <mxGeometry y="60" width="140" height="30" as="geometry" />
        </mxCell>
        <mxCell id="PWovvfR49v7TxZQlNOI5-32" value="last_name" style="text;strokeColor=none;fillColor=none;align=left;verticalAlign=middle;spacingLeft=4;spacingRight=4;overflow=hidden;points=[[0,0.5],[1,0.5]];portConstraint=eastwest;rotatable=0;whiteSpace=wrap;html=1;" parent="PWovvfR49v7TxZQlNOI5-29" vertex="1">
          <mxGeometry y="90" width="140" height="30" as="geometry" />
        </mxCell>
        <mxCell id="PWovvfR49v7TxZQlNOI5-61" value="enrollment_year" style="text;strokeColor=none;fillColor=none;align=left;verticalAlign=middle;spacingLeft=4;spacingRight=4;overflow=hidden;points=[[0,0.5],[1,0.5]];portConstraint=eastwest;rotatable=0;whiteSpace=wrap;html=1;" parent="PWovvfR49v7TxZQlNOI5-29" vertex="1">
          <mxGeometry y="120" width="140" height="30" as="geometry" />
        </mxCell>
        <mxCell id="PWovvfR49v7TxZQlNOI5-33" value="Course" style="swimlane;fontStyle=0;childLayout=stackLayout;horizontal=1;startSize=30;horizontalStack=0;resizeParent=1;resizeParentMax=0;resizeLast=0;collapsible=1;marginBottom=0;whiteSpace=wrap;html=1;" parent="1" vertex="1">
          <mxGeometry x="20" y="930" width="140" height="150" as="geometry" />
        </mxCell>
        <mxCell id="PWovvfR49v7TxZQlNOI5-34" value="code" style="text;strokeColor=none;fillColor=none;align=left;verticalAlign=middle;spacingLeft=4;spacingRight=4;overflow=hidden;points=[[0,0.5],[1,0.5]];portConstraint=eastwest;rotatable=0;whiteSpace=wrap;html=1;" parent="PWovvfR49v7TxZQlNOI5-33" vertex="1">
          <mxGeometry y="30" width="140" height="30" as="geometry" />
        </mxCell>
        <mxCell id="PWovvfR49v7TxZQlNOI5-35" value="name" style="text;strokeColor=none;fillColor=none;align=left;verticalAlign=middle;spacingLeft=4;spacingRight=4;overflow=hidden;points=[[0,0.5],[1,0.5]];portConstraint=eastwest;rotatable=0;whiteSpace=wrap;html=1;" parent="PWovvfR49v7TxZQlNOI5-33" vertex="1">
          <mxGeometry y="60" width="140" height="30" as="geometry" />
        </mxCell>
        <mxCell id="PWovvfR49v7TxZQlNOI5-36" value="description" style="text;strokeColor=none;fillColor=none;align=left;verticalAlign=middle;spacingLeft=4;spacingRight=4;overflow=hidden;points=[[0,0.5],[1,0.5]];portConstraint=eastwest;rotatable=0;whiteSpace=wrap;html=1;" parent="PWovvfR49v7TxZQlNOI5-33" vertex="1">
          <mxGeometry y="90" width="140" height="30" as="geometry" />
        </mxCell>
        <mxCell id="PWovvfR49v7TxZQlNOI5-37" value="semester" style="text;strokeColor=none;fillColor=none;align=left;verticalAlign=middle;spacingLeft=4;spacingRight=4;overflow=hidden;points=[[0,0.5],[1,0.5]];portConstraint=eastwest;rotatable=0;whiteSpace=wrap;html=1;" parent="PWovvfR49v7TxZQlNOI5-33" vertex="1">
          <mxGeometry y="120" width="140" height="30" as="geometry" />
        </mxCell>
        <mxCell id="PWovvfR49v7TxZQlNOI5-38" value="" style="endArrow=none;html=1;rounded=0;entryX=0.536;entryY=1.133;entryDx=0;entryDy=0;entryPerimeter=0;exitX=1;exitY=0.5;exitDx=0;exitDy=0;" parent="1" source="PWovvfR49v7TxZQlNOI5-35" edge="1" target="d4JsPL3d9oYAhFFPDHcH-1">
          <mxGeometry width="50" height="50" relative="1" as="geometry">
            <mxPoint x="390" y="860" as="sourcePoint" />
            <mxPoint x="706.02" y="740.99" as="targetPoint" />
            <Array as="points">
              <mxPoint x="710" y="1000" />
            </Array>
          </mxGeometry>
        </mxCell>
        <mxCell id="PWovvfR49v7TxZQlNOI5-39" value="1..*" style="edgeLabel;html=1;align=center;verticalAlign=middle;resizable=0;points=[];" parent="PWovvfR49v7TxZQlNOI5-38" vertex="1" connectable="0">
          <mxGeometry x="0.9459" y="-2" relative="1" as="geometry">
            <mxPoint as="offset" />
          </mxGeometry>
        </mxCell>
        <mxCell id="PWovvfR49v7TxZQlNOI5-40" value="&amp;nbsp;1..*&amp;nbsp;" style="edgeLabel;html=1;align=center;verticalAlign=middle;resizable=0;points=[];" parent="PWovvfR49v7TxZQlNOI5-38" vertex="1" connectable="0">
          <mxGeometry x="-0.9162" y="-2" relative="1" as="geometry">
            <mxPoint as="offset" />
          </mxGeometry>
        </mxCell>
        <mxCell id="PWovvfR49v7TxZQlNOI5-41" value="&amp;nbsp;&amp;lt; teaches&amp;nbsp;" style="edgeLabel;html=1;align=center;verticalAlign=middle;resizable=0;points=[];" parent="PWovvfR49v7TxZQlNOI5-38" vertex="1" connectable="0">
          <mxGeometry x="-0.0135" y="-3" relative="1" as="geometry">
            <mxPoint as="offset" />
          </mxGeometry>
        </mxCell>
        <mxCell id="PWovvfR49v7TxZQlNOI5-46" value="1" style="endArrow=open;html=1;endSize=12;startArrow=diamondThin;startSize=14;startFill=1;edgeStyle=orthogonalEdgeStyle;align=left;verticalAlign=bottom;rounded=0;entryX=0.571;entryY=0;entryDx=0;entryDy=0;entryPerimeter=0;exitX=0.6;exitY=1.067;exitDx=0;exitDy=0;exitPerimeter=0;" parent="1" source="PWovvfR49v7TxZQlNOI5-10" target="PWovvfR49v7TxZQlNOI5-33" edge="1">
          <mxGeometry x="-0.6" relative="1" as="geometry">
            <mxPoint x="100" y="780" as="sourcePoint" />
            <mxPoint x="490" y="830" as="targetPoint" />
            <Array as="points">
              <mxPoint x="100" y="757" />
            </Array>
            <mxPoint as="offset" />
          </mxGeometry>
        </mxCell>
        <mxCell id="PWovvfR49v7TxZQlNOI5-47" value="1..*" style="edgeLabel;html=1;align=center;verticalAlign=middle;resizable=0;points=[];" parent="PWovvfR49v7TxZQlNOI5-46" vertex="1" connectable="0">
          <mxGeometry x="0.6612" y="1" relative="1" as="geometry">
            <mxPoint as="offset" />
          </mxGeometry>
        </mxCell>
        <mxCell id="PWovvfR49v7TxZQlNOI5-48" value="has V" style="edgeLabel;html=1;align=center;verticalAlign=middle;resizable=0;points=[];" parent="PWovvfR49v7TxZQlNOI5-46" vertex="1" connectable="0">
          <mxGeometry x="-0.039" y="1" relative="1" as="geometry">
            <mxPoint as="offset" />
          </mxGeometry>
        </mxCell>
        <mxCell id="PWovvfR49v7TxZQlNOI5-49" value="Campus" style="swimlane;fontStyle=0;childLayout=stackLayout;horizontal=1;startSize=30;horizontalStack=0;resizeParent=1;resizeParentMax=0;resizeLast=0;collapsible=1;marginBottom=0;whiteSpace=wrap;html=1;" parent="1" vertex="1">
          <mxGeometry x="30" y="380" width="140" height="90" as="geometry" />
        </mxCell>
        <mxCell id="PWovvfR49v7TxZQlNOI5-50" value="name" style="text;strokeColor=none;fillColor=none;align=left;verticalAlign=middle;spacingLeft=4;spacingRight=4;overflow=hidden;points=[[0,0.5],[1,0.5]];portConstraint=eastwest;rotatable=0;whiteSpace=wrap;html=1;" parent="PWovvfR49v7TxZQlNOI5-49" vertex="1">
          <mxGeometry y="30" width="140" height="30" as="geometry" />
        </mxCell>
        <mxCell id="PWovvfR49v7TxZQlNOI5-51" value="address" style="text;strokeColor=none;fillColor=none;align=left;verticalAlign=middle;spacingLeft=4;spacingRight=4;overflow=hidden;points=[[0,0.5],[1,0.5]];portConstraint=eastwest;rotatable=0;whiteSpace=wrap;html=1;" parent="PWovvfR49v7TxZQlNOI5-49" vertex="1">
          <mxGeometry y="60" width="140" height="30" as="geometry" />
        </mxCell>
        <mxCell id="PWovvfR49v7TxZQlNOI5-53" value="" style="endArrow=none;html=1;rounded=0;exitX=0.5;exitY=0;exitDx=0;exitDy=0;entryX=0.436;entryY=0.967;entryDx=0;entryDy=0;entryPerimeter=0;" parent="1" source="PWovvfR49v7TxZQlNOI5-8" edge="1">
          <mxGeometry width="50" height="50" relative="1" as="geometry">
            <mxPoint x="390" y="770" as="sourcePoint" />
            <mxPoint x="91.03999999999996" y="469.01" as="targetPoint" />
          </mxGeometry>
        </mxCell>
        <mxCell id="PWovvfR49v7TxZQlNOI5-54" value="taught at /\" style="edgeLabel;html=1;align=center;verticalAlign=middle;resizable=0;points=[];" parent="PWovvfR49v7TxZQlNOI5-53" vertex="1" connectable="0">
          <mxGeometry x="-0.1123" y="2" relative="1" as="geometry">
            <mxPoint as="offset" />
          </mxGeometry>
        </mxCell>
        <mxCell id="PWovvfR49v7TxZQlNOI5-55" value="0..*" style="edgeLabel;html=1;align=center;verticalAlign=middle;resizable=0;points=[];" parent="PWovvfR49v7TxZQlNOI5-53" vertex="1" connectable="0">
          <mxGeometry x="-0.7959" relative="1" as="geometry">
            <mxPoint as="offset" />
          </mxGeometry>
        </mxCell>
        <mxCell id="PWovvfR49v7TxZQlNOI5-56" value="1..*" style="edgeLabel;html=1;align=center;verticalAlign=middle;resizable=0;points=[];" parent="PWovvfR49v7TxZQlNOI5-53" vertex="1" connectable="0">
          <mxGeometry x="0.7961" y="-1" relative="1" as="geometry">
            <mxPoint as="offset" />
          </mxGeometry>
        </mxCell>
        <mxCell id="PWovvfR49v7TxZQlNOI5-57" value="" style="endArrow=none;html=1;rounded=0;exitX=0.993;exitY=0.133;exitDx=0;exitDy=0;entryX=0;entryY=0.25;entryDx=0;entryDy=0;exitPerimeter=0;" parent="1" source="PWovvfR49v7TxZQlNOI5-30" target="PWovvfR49v7TxZQlNOI5-8" edge="1">
          <mxGeometry width="50" height="50" relative="1" as="geometry">
            <mxPoint x="-120" y="650" as="sourcePoint" />
            <mxPoint x="-70" y="600" as="targetPoint" />
            <Array as="points" />
          </mxGeometry>
        </mxCell>
        <mxCell id="PWovvfR49v7TxZQlNOI5-58" value="&amp;nbsp;sign up for &amp;gt;&amp;nbsp;" style="edgeLabel;html=1;align=center;verticalAlign=middle;resizable=0;points=[];" parent="PWovvfR49v7TxZQlNOI5-57" vertex="1" connectable="0">
          <mxGeometry x="-0.107" y="-1" relative="1" as="geometry">
            <mxPoint as="offset" />
          </mxGeometry>
        </mxCell>
        <mxCell id="PWovvfR49v7TxZQlNOI5-59" value="&amp;nbsp;1&amp;nbsp;" style="edgeLabel;html=1;align=center;verticalAlign=middle;resizable=0;points=[];" parent="PWovvfR49v7TxZQlNOI5-57" vertex="1" connectable="0">
          <mxGeometry x="0.8452" relative="1" as="geometry">
            <mxPoint as="offset" />
          </mxGeometry>
        </mxCell>
        <mxCell id="PWovvfR49v7TxZQlNOI5-60" value="&amp;nbsp;0..*&amp;nbsp;" style="edgeLabel;html=1;align=center;verticalAlign=middle;resizable=0;points=[];" parent="PWovvfR49v7TxZQlNOI5-57" vertex="1" connectable="0">
          <mxGeometry x="-0.8451" y="-2" relative="1" as="geometry">
            <mxPoint as="offset" />
          </mxGeometry>
        </mxCell>
        <mxCell id="PWovvfR49v7TxZQlNOI5-62" value="Workshop" style="swimlane;fontStyle=0;childLayout=stackLayout;horizontal=1;startSize=30;horizontalStack=0;resizeParent=1;resizeParentMax=0;resizeLast=0;collapsible=1;marginBottom=0;whiteSpace=wrap;html=1;" parent="1" vertex="1">
          <mxGeometry x="-690" y="690" width="140" height="60" as="geometry" />
        </mxCell>
        <mxCell id="PWovvfR49v7TxZQlNOI5-67" value="Instructor" style="swimlane;fontStyle=0;childLayout=stackLayout;horizontal=1;startSize=30;horizontalStack=0;resizeParent=1;resizeParentMax=0;resizeLast=0;collapsible=1;marginBottom=0;whiteSpace=wrap;html=1;" parent="1" vertex="1">
          <mxGeometry x="-480" y="910" width="140" height="90" as="geometry" />
        </mxCell>
        <mxCell id="PWovvfR49v7TxZQlNOI5-68" value="salary" style="text;strokeColor=none;fillColor=none;align=left;verticalAlign=middle;spacingLeft=4;spacingRight=4;overflow=hidden;points=[[0,0.5],[1,0.5]];portConstraint=eastwest;rotatable=0;whiteSpace=wrap;html=1;" parent="PWovvfR49v7TxZQlNOI5-67" vertex="1">
          <mxGeometry y="30" width="140" height="30" as="geometry" />
        </mxCell>
        <mxCell id="PWovvfR49v7TxZQlNOI5-69" value="hours_worked" style="text;strokeColor=none;fillColor=none;align=left;verticalAlign=middle;spacingLeft=4;spacingRight=4;overflow=hidden;points=[[0,0.5],[1,0.5]];portConstraint=eastwest;rotatable=0;whiteSpace=wrap;html=1;" parent="PWovvfR49v7TxZQlNOI5-67" vertex="1">
          <mxGeometry y="60" width="140" height="30" as="geometry" />
        </mxCell>
        <mxCell id="PWovvfR49v7TxZQlNOI5-71" value="Tutor" style="swimlane;fontStyle=0;childLayout=stackLayout;horizontal=1;startSize=30;horizontalStack=0;resizeParent=1;resizeParentMax=0;resizeLast=0;collapsible=1;marginBottom=0;whiteSpace=wrap;html=1;" parent="1" vertex="1">
          <mxGeometry x="-300" y="910" width="140" height="90" as="geometry" />
        </mxCell>
        <mxCell id="PWovvfR49v7TxZQlNOI5-72" value="salary" style="text;strokeColor=none;fillColor=none;align=left;verticalAlign=middle;spacingLeft=4;spacingRight=4;overflow=hidden;points=[[0,0.5],[1,0.5]];portConstraint=eastwest;rotatable=0;whiteSpace=wrap;html=1;" parent="PWovvfR49v7TxZQlNOI5-71" vertex="1">
          <mxGeometry y="30" width="140" height="30" as="geometry" />
        </mxCell>
        <mxCell id="PWovvfR49v7TxZQlNOI5-73" value="hours_assigned" style="text;strokeColor=none;fillColor=none;align=left;verticalAlign=middle;spacingLeft=4;spacingRight=4;overflow=hidden;points=[[0,0.5],[1,0.5]];portConstraint=eastwest;rotatable=0;whiteSpace=wrap;html=1;" parent="PWovvfR49v7TxZQlNOI5-71" vertex="1">
          <mxGeometry y="60" width="140" height="30" as="geometry" />
        </mxCell>
        <mxCell id="PWovvfR49v7TxZQlNOI5-75" value="" style="endArrow=none;html=1;rounded=0;entryX=0.486;entryY=1.067;entryDx=0;entryDy=0;entryPerimeter=0;exitX=0.5;exitY=0;exitDx=0;exitDy=0;" parent="1" source="PWovvfR49v7TxZQlNOI5-12" target="PWovvfR49v7TxZQlNOI5-7" edge="1">
          <mxGeometry width="50" height="50" relative="1" as="geometry">
            <mxPoint x="250" y="720" as="sourcePoint" />
            <mxPoint x="300" y="670" as="targetPoint" />
            <Array as="points">
              <mxPoint x="390" y="630" />
              <mxPoint x="550" y="630" />
            </Array>
          </mxGeometry>
        </mxCell>
        <mxCell id="PWovvfR49v7TxZQlNOI5-76" value="" style="endArrow=none;html=1;rounded=0;entryX=0.5;entryY=0;entryDx=0;entryDy=0;exitX=1;exitY=0.5;exitDx=0;exitDy=0;" parent="1" source="PWovvfR49v7TxZQlNOI5-78" target="PWovvfR49v7TxZQlNOI5-21" edge="1">
          <mxGeometry width="50" height="50" relative="1" as="geometry">
            <mxPoint x="250" y="720" as="sourcePoint" />
            <mxPoint x="300" y="670" as="targetPoint" />
            <Array as="points">
              <mxPoint x="549" y="630" />
              <mxPoint x="700" y="630" />
            </Array>
          </mxGeometry>
        </mxCell>
        <mxCell id="PWovvfR49v7TxZQlNOI5-79" value="" style="endArrow=none;html=1;rounded=0;entryX=0.5;entryY=0;entryDx=0;entryDy=0;exitX=0.493;exitY=1;exitDx=0;exitDy=0;exitPerimeter=0;" parent="1" edge="1">
          <mxGeometry width="50" height="50" relative="1" as="geometry">
            <mxPoint x="552.01" y="610" as="sourcePoint" />
            <mxPoint x="547.99" y="620" as="targetPoint" />
            <Array as="points" />
          </mxGeometry>
        </mxCell>
        <mxCell id="PWovvfR49v7TxZQlNOI5-80" value="{ mandatory, or }" style="edgeLabel;html=1;align=center;verticalAlign=middle;resizable=0;points=[];" parent="PWovvfR49v7TxZQlNOI5-79" vertex="1" connectable="0">
          <mxGeometry x="-0.6336" y="-1" relative="1" as="geometry">
            <mxPoint as="offset" />
          </mxGeometry>
        </mxCell>
        <mxCell id="PWovvfR49v7TxZQlNOI5-78" value="" style="triangle;whiteSpace=wrap;html=1;rotation=-90;" parent="1" vertex="1">
          <mxGeometry x="540" y="560" width="20" height="20" as="geometry" />
        </mxCell>
        <mxCell id="PWovvfR49v7TxZQlNOI5-81" value="" style="endArrow=none;html=1;rounded=0;exitX=0.5;exitY=0;exitDx=0;exitDy=0;entryX=0.514;entryY=1.1;entryDx=0;entryDy=0;entryPerimeter=0;" parent="1" source="PWovvfR49v7TxZQlNOI5-83" target="PWovvfR49v7TxZQlNOI5-61" edge="1">
          <mxGeometry width="50" height="50" relative="1" as="geometry">
            <mxPoint x="-290" y="810" as="sourcePoint" />
            <mxPoint x="-240" y="760" as="targetPoint" />
            <Array as="points" />
          </mxGeometry>
        </mxCell>
        <mxCell id="PWovvfR49v7TxZQlNOI5-82" value="" style="endArrow=none;html=1;rounded=0;entryX=0.5;entryY=0;entryDx=0;entryDy=0;" parent="1" target="PWovvfR49v7TxZQlNOI5-71" edge="1">
          <mxGeometry width="50" height="50" relative="1" as="geometry">
            <mxPoint x="-320" y="800" as="sourcePoint" />
            <mxPoint x="-240" y="740" as="targetPoint" />
            <Array as="points">
              <mxPoint x="-320" y="880" />
              <mxPoint x="-230" y="880" />
            </Array>
          </mxGeometry>
        </mxCell>
        <mxCell id="PWovvfR49v7TxZQlNOI5-84" value="" style="endArrow=none;html=1;rounded=0;exitX=0.5;exitY=0;exitDx=0;exitDy=0;entryX=1;entryY=0.5;entryDx=0;entryDy=0;" parent="1" source="PWovvfR49v7TxZQlNOI5-67" target="PWovvfR49v7TxZQlNOI5-83" edge="1">
          <mxGeometry width="50" height="50" relative="1" as="geometry">
            <mxPoint x="-410" y="910" as="sourcePoint" />
            <mxPoint x="-318" y="803" as="targetPoint" />
            <Array as="points">
              <mxPoint x="-410" y="880" />
              <mxPoint x="-318" y="880" />
            </Array>
          </mxGeometry>
        </mxCell>
        <mxCell id="PWovvfR49v7TxZQlNOI5-85" value="{ mandatory, or }" style="edgeLabel;html=1;align=center;verticalAlign=middle;resizable=0;points=[];" parent="PWovvfR49v7TxZQlNOI5-84" vertex="1" connectable="0">
          <mxGeometry x="0.3854" y="-2" relative="1" as="geometry">
            <mxPoint as="offset" />
          </mxGeometry>
        </mxCell>
        <mxCell id="PWovvfR49v7TxZQlNOI5-83" value="" style="triangle;whiteSpace=wrap;html=1;rotation=-90;" parent="1" vertex="1">
          <mxGeometry x="-330" y="800" width="20" height="20" as="geometry" />
        </mxCell>
        <mxCell id="PWovvfR49v7TxZQlNOI5-86" value="" style="endArrow=none;html=1;rounded=0;exitX=0;exitY=0.5;exitDx=0;exitDy=0;entryX=0.5;entryY=1;entryDx=0;entryDy=0;" parent="1" source="PWovvfR49v7TxZQlNOI5-68" target="PWovvfR49v7TxZQlNOI5-62" edge="1">
          <mxGeometry width="50" height="50" relative="1" as="geometry">
            <mxPoint x="-290" y="790" as="sourcePoint" />
            <mxPoint x="-240" y="740" as="targetPoint" />
            <Array as="points">
              <mxPoint x="-620" y="955" />
            </Array>
          </mxGeometry>
        </mxCell>
        <mxCell id="PWovvfR49v7TxZQlNOI5-87" value="1..*" style="edgeLabel;html=1;align=center;verticalAlign=middle;resizable=0;points=[];" parent="PWovvfR49v7TxZQlNOI5-86" vertex="1" connectable="0">
          <mxGeometry x="0.8261" y="-2" relative="1" as="geometry">
            <mxPoint as="offset" />
          </mxGeometry>
        </mxCell>
        <mxCell id="PWovvfR49v7TxZQlNOI5-88" value="&amp;nbsp;1..*&amp;nbsp;" style="edgeLabel;html=1;align=center;verticalAlign=middle;resizable=0;points=[];" parent="PWovvfR49v7TxZQlNOI5-86" vertex="1" connectable="0">
          <mxGeometry x="-0.7855" y="2" relative="1" as="geometry">
            <mxPoint as="offset" />
          </mxGeometry>
        </mxCell>
        <mxCell id="PWovvfR49v7TxZQlNOI5-89" value="teaches /\" style="edgeLabel;html=1;align=center;verticalAlign=middle;resizable=0;points=[];" parent="PWovvfR49v7TxZQlNOI5-86" vertex="1" connectable="0">
          <mxGeometry x="0.1362" relative="1" as="geometry">
            <mxPoint as="offset" />
          </mxGeometry>
        </mxCell>
        <mxCell id="PWovvfR49v7TxZQlNOI5-90" value="" style="endArrow=none;html=1;rounded=0;entryX=0;entryY=0.5;entryDx=0;entryDy=0;exitX=1;exitY=0.5;exitDx=0;exitDy=0;" parent="1" source="PWovvfR49v7TxZQlNOI5-62" target="PWovvfR49v7TxZQlNOI5-31" edge="1">
          <mxGeometry width="50" height="50" relative="1" as="geometry">
            <mxPoint x="-290" y="790" as="sourcePoint" />
            <mxPoint x="-240" y="740" as="targetPoint" />
          </mxGeometry>
        </mxCell>
        <mxCell id="PWovvfR49v7TxZQlNOI5-91" value="&amp;nbsp;0..*&amp;nbsp;" style="edgeLabel;html=1;align=center;verticalAlign=middle;resizable=0;points=[];" parent="PWovvfR49v7TxZQlNOI5-90" vertex="1" connectable="0">
          <mxGeometry x="-0.737" y="-1" relative="1" as="geometry">
            <mxPoint as="offset" />
          </mxGeometry>
        </mxCell>
        <mxCell id="PWovvfR49v7TxZQlNOI5-92" value="&amp;nbsp;&amp;lt; follows&amp;nbsp;" style="edgeLabel;html=1;align=center;verticalAlign=middle;resizable=0;points=[];" parent="PWovvfR49v7TxZQlNOI5-90" vertex="1" connectable="0">
          <mxGeometry x="-0.2008" y="2" relative="1" as="geometry">
            <mxPoint x="16" as="offset" />
          </mxGeometry>
        </mxCell>
        <mxCell id="PWovvfR49v7TxZQlNOI5-93" value="&amp;nbsp;1..*&amp;nbsp;" style="edgeLabel;html=1;align=center;verticalAlign=middle;resizable=0;points=[];" parent="PWovvfR49v7TxZQlNOI5-90" vertex="1" connectable="0">
          <mxGeometry x="0.7986" y="3" relative="1" as="geometry">
            <mxPoint as="offset" />
          </mxGeometry>
        </mxCell>
        <mxCell id="PWovvfR49v7TxZQlNOI5-94" value="" style="endArrow=none;html=1;rounded=0;exitX=1;exitY=0.5;exitDx=0;exitDy=0;entryX=1;entryY=0.9;entryDx=0;entryDy=0;entryPerimeter=0;" parent="1" source="PWovvfR49v7TxZQlNOI5-72" target="PWovvfR49v7TxZQlNOI5-32" edge="1">
          <mxGeometry width="50" height="50" relative="1" as="geometry">
            <mxPoint x="-370" y="810" as="sourcePoint" />
            <mxPoint x="-320" y="760" as="targetPoint" />
            <Array as="points">
              <mxPoint x="-90" y="955" />
              <mxPoint x="-90" y="770" />
            </Array>
          </mxGeometry>
        </mxCell>
        <mxCell id="PWovvfR49v7TxZQlNOI5-95" value="&amp;nbsp;1..*&amp;nbsp;" style="edgeLabel;html=1;align=center;verticalAlign=middle;resizable=0;points=[];" parent="PWovvfR49v7TxZQlNOI5-94" vertex="1" connectable="0">
          <mxGeometry x="0.9035" y="1" relative="1" as="geometry">
            <mxPoint as="offset" />
          </mxGeometry>
        </mxCell>
        <mxCell id="PWovvfR49v7TxZQlNOI5-96" value="&amp;nbsp;0..1&amp;nbsp;" style="edgeLabel;html=1;align=center;verticalAlign=middle;resizable=0;points=[];" parent="PWovvfR49v7TxZQlNOI5-94" vertex="1" connectable="0">
          <mxGeometry x="-0.8506" relative="1" as="geometry">
            <mxPoint as="offset" />
          </mxGeometry>
        </mxCell>
        <mxCell id="PWovvfR49v7TxZQlNOI5-97" value="tute /\" style="edgeLabel;html=1;align=center;verticalAlign=middle;resizable=0;points=[];" parent="PWovvfR49v7TxZQlNOI5-94" vertex="1" connectable="0">
          <mxGeometry x="-0.2916" y="-2" relative="1" as="geometry">
            <mxPoint y="-28" as="offset" />
          </mxGeometry>
        </mxCell>
        <mxCell id="PWovvfR49v7TxZQlNOI5-98" value="" style="endArrow=none;html=1;rounded=0;exitX=1;exitY=0.5;exitDx=0;exitDy=0;entryX=-0.007;entryY=0.767;entryDx=0;entryDy=0;entryPerimeter=0;" parent="1" source="PWovvfR49v7TxZQlNOI5-31" target="PWovvfR49v7TxZQlNOI5-35" edge="1">
          <mxGeometry width="50" height="50" relative="1" as="geometry">
            <mxPoint x="-140" y="740" as="sourcePoint" />
            <mxPoint x="-90" y="690" as="targetPoint" />
            <Array as="points">
              <mxPoint x="-40" y="725" />
              <mxPoint x="-40" y="1010" />
            </Array>
          </mxGeometry>
        </mxCell>
        <mxCell id="PWovvfR49v7TxZQlNOI5-99" value="&amp;nbsp;1..*&amp;nbsp;" style="edgeLabel;html=1;align=center;verticalAlign=middle;resizable=0;points=[];" parent="PWovvfR49v7TxZQlNOI5-98" vertex="1" connectable="0">
          <mxGeometry x="0.9168" relative="1" as="geometry">
            <mxPoint as="offset" />
          </mxGeometry>
        </mxCell>
        <mxCell id="PWovvfR49v7TxZQlNOI5-100" value="&amp;nbsp;follows &amp;gt;&amp;nbsp;" style="edgeLabel;html=1;align=center;verticalAlign=middle;resizable=0;points=[];" parent="PWovvfR49v7TxZQlNOI5-98" vertex="1" connectable="0">
          <mxGeometry x="-0.5199" y="4" relative="1" as="geometry">
            <mxPoint as="offset" />
          </mxGeometry>
        </mxCell>
        <mxCell id="PWovvfR49v7TxZQlNOI5-101" value="&amp;nbsp;1..*&amp;nbsp;" style="edgeLabel;html=1;align=center;verticalAlign=middle;resizable=0;points=[];" parent="PWovvfR49v7TxZQlNOI5-98" vertex="1" connectable="0">
          <mxGeometry x="-0.8664" y="-2" relative="1" as="geometry">
            <mxPoint as="offset" />
          </mxGeometry>
        </mxCell>
      </root>
    </mxGraphModel>
  </diagram>
  <diagram id="UT_Jh4or0HYzo5S7KX23" name="Ex 6. - Car Rental">
    <mxGraphModel dx="1245" dy="740" grid="1" gridSize="10" guides="1" tooltips="1" connect="1" arrows="1" fold="1" page="1" pageScale="1" pageWidth="850" pageHeight="1100" math="0" shadow="0">
      <root>
        <mxCell id="0" />
        <mxCell id="1" parent="0" />
        <mxCell id="TK6vyfR3TE-BbToF-Jqf-1" value="Vehicle" style="swimlane;fontStyle=0;childLayout=stackLayout;horizontal=1;startSize=30;horizontalStack=0;resizeParent=1;resizeParentMax=0;resizeLast=0;collapsible=1;marginBottom=0;whiteSpace=wrap;html=1;" parent="1" vertex="1">
          <mxGeometry x="570" y="460" width="150" height="210" as="geometry" />
        </mxCell>
        <mxCell id="TK6vyfR3TE-BbToF-Jqf-2" value="fuel_type" style="text;strokeColor=none;fillColor=none;align=left;verticalAlign=middle;spacingLeft=4;spacingRight=4;overflow=hidden;points=[[0,0.5],[1,0.5]];portConstraint=eastwest;rotatable=0;whiteSpace=wrap;html=1;" parent="TK6vyfR3TE-BbToF-Jqf-1" vertex="1">
          <mxGeometry y="30" width="150" height="30" as="geometry" />
        </mxCell>
        <mxCell id="TK6vyfR3TE-BbToF-Jqf-3" value="license_plate_number" style="text;strokeColor=none;fillColor=none;align=left;verticalAlign=middle;spacingLeft=4;spacingRight=4;overflow=hidden;points=[[0,0.5],[1,0.5]];portConstraint=eastwest;rotatable=0;whiteSpace=wrap;html=1;" parent="TK6vyfR3TE-BbToF-Jqf-1" vertex="1">
          <mxGeometry y="60" width="150" height="30" as="geometry" />
        </mxCell>
        <mxCell id="TK6vyfR3TE-BbToF-Jqf-4" value="brand" style="text;strokeColor=none;fillColor=none;align=left;verticalAlign=middle;spacingLeft=4;spacingRight=4;overflow=hidden;points=[[0,0.5],[1,0.5]];portConstraint=eastwest;rotatable=0;whiteSpace=wrap;html=1;" parent="TK6vyfR3TE-BbToF-Jqf-1" vertex="1">
          <mxGeometry y="90" width="150" height="30" as="geometry" />
        </mxCell>
        <mxCell id="TK6vyfR3TE-BbToF-Jqf-17" value="model" style="text;strokeColor=none;fillColor=none;align=left;verticalAlign=middle;spacingLeft=4;spacingRight=4;overflow=hidden;points=[[0,0.5],[1,0.5]];portConstraint=eastwest;rotatable=0;whiteSpace=wrap;html=1;" parent="TK6vyfR3TE-BbToF-Jqf-1" vertex="1">
          <mxGeometry y="120" width="150" height="30" as="geometry" />
        </mxCell>
        <mxCell id="TK6vyfR3TE-BbToF-Jqf-18" value="price_per_day" style="text;strokeColor=none;fillColor=none;align=left;verticalAlign=middle;spacingLeft=4;spacingRight=4;overflow=hidden;points=[[0,0.5],[1,0.5]];portConstraint=eastwest;rotatable=0;whiteSpace=wrap;html=1;" parent="TK6vyfR3TE-BbToF-Jqf-1" vertex="1">
          <mxGeometry y="150" width="150" height="30" as="geometry" />
        </mxCell>
        <mxCell id="TK6vyfR3TE-BbToF-Jqf-19" value="cost_per_extra kilometer" style="text;strokeColor=none;fillColor=none;align=left;verticalAlign=middle;spacingLeft=4;spacingRight=4;overflow=hidden;points=[[0,0.5],[1,0.5]];portConstraint=eastwest;rotatable=0;whiteSpace=wrap;html=1;" parent="TK6vyfR3TE-BbToF-Jqf-1" vertex="1">
          <mxGeometry y="180" width="150" height="30" as="geometry" />
        </mxCell>
        <mxCell id="TK6vyfR3TE-BbToF-Jqf-5" value="Van" style="swimlane;fontStyle=0;childLayout=stackLayout;horizontal=1;startSize=30;horizontalStack=0;resizeParent=1;resizeParentMax=0;resizeLast=0;collapsible=1;marginBottom=0;whiteSpace=wrap;html=1;" parent="1" vertex="1">
          <mxGeometry x="640" y="800" width="140" height="60" as="geometry" />
        </mxCell>
        <mxCell id="TK6vyfR3TE-BbToF-Jqf-6" value="size_of_trunk ( m3 )" style="text;strokeColor=none;fillColor=none;align=left;verticalAlign=middle;spacingLeft=4;spacingRight=4;overflow=hidden;points=[[0,0.5],[1,0.5]];portConstraint=eastwest;rotatable=0;whiteSpace=wrap;html=1;" parent="TK6vyfR3TE-BbToF-Jqf-5" vertex="1">
          <mxGeometry y="30" width="140" height="30" as="geometry" />
        </mxCell>
        <mxCell id="TK6vyfR3TE-BbToF-Jqf-9" value="Car" style="swimlane;fontStyle=0;childLayout=stackLayout;horizontal=1;startSize=30;horizontalStack=0;resizeParent=1;resizeParentMax=0;resizeLast=0;collapsible=1;marginBottom=0;whiteSpace=wrap;html=1;" parent="1" vertex="1">
          <mxGeometry x="460" y="800" width="140" height="90" as="geometry" />
        </mxCell>
        <mxCell id="TK6vyfR3TE-BbToF-Jqf-10" value="is_manual" style="text;strokeColor=none;fillColor=none;align=left;verticalAlign=middle;spacingLeft=4;spacingRight=4;overflow=hidden;points=[[0,0.5],[1,0.5]];portConstraint=eastwest;rotatable=0;whiteSpace=wrap;html=1;" parent="TK6vyfR3TE-BbToF-Jqf-9" vertex="1">
          <mxGeometry y="30" width="140" height="30" as="geometry" />
        </mxCell>
        <mxCell id="TK6vyfR3TE-BbToF-Jqf-11" value="is_automatic" style="text;strokeColor=none;fillColor=none;align=left;verticalAlign=middle;spacingLeft=4;spacingRight=4;overflow=hidden;points=[[0,0.5],[1,0.5]];portConstraint=eastwest;rotatable=0;whiteSpace=wrap;html=1;" parent="TK6vyfR3TE-BbToF-Jqf-9" vertex="1">
          <mxGeometry y="60" width="140" height="30" as="geometry" />
        </mxCell>
        <mxCell id="TK6vyfR3TE-BbToF-Jqf-20" value="Customer" style="swimlane;fontStyle=0;childLayout=stackLayout;horizontal=1;startSize=30;horizontalStack=0;resizeParent=1;resizeParentMax=0;resizeLast=0;collapsible=1;marginBottom=0;whiteSpace=wrap;html=1;" parent="1" vertex="1">
          <mxGeometry x="20" y="490" width="140" height="180" as="geometry" />
        </mxCell>
        <mxCell id="TK6vyfR3TE-BbToF-Jqf-21" value="name" style="text;strokeColor=none;fillColor=none;align=left;verticalAlign=middle;spacingLeft=4;spacingRight=4;overflow=hidden;points=[[0,0.5],[1,0.5]];portConstraint=eastwest;rotatable=0;whiteSpace=wrap;html=1;" parent="TK6vyfR3TE-BbToF-Jqf-20" vertex="1">
          <mxGeometry y="30" width="140" height="30" as="geometry" />
        </mxCell>
        <mxCell id="TK6vyfR3TE-BbToF-Jqf-22" value="driver&#39;s-licence" style="text;strokeColor=none;fillColor=none;align=left;verticalAlign=middle;spacingLeft=4;spacingRight=4;overflow=hidden;points=[[0,0.5],[1,0.5]];portConstraint=eastwest;rotatable=0;whiteSpace=wrap;html=1;" parent="TK6vyfR3TE-BbToF-Jqf-20" vertex="1">
          <mxGeometry y="60" width="140" height="30" as="geometry" />
        </mxCell>
        <mxCell id="TK6vyfR3TE-BbToF-Jqf-23" value="address" style="text;strokeColor=none;fillColor=none;align=left;verticalAlign=middle;spacingLeft=4;spacingRight=4;overflow=hidden;points=[[0,0.5],[1,0.5]];portConstraint=eastwest;rotatable=0;whiteSpace=wrap;html=1;" parent="TK6vyfR3TE-BbToF-Jqf-20" vertex="1">
          <mxGeometry y="90" width="140" height="30" as="geometry" />
        </mxCell>
        <mxCell id="TK6vyfR3TE-BbToF-Jqf-28" value="phone_number" style="text;strokeColor=none;fillColor=none;align=left;verticalAlign=middle;spacingLeft=4;spacingRight=4;overflow=hidden;points=[[0,0.5],[1,0.5]];portConstraint=eastwest;rotatable=0;whiteSpace=wrap;html=1;" parent="TK6vyfR3TE-BbToF-Jqf-20" vertex="1">
          <mxGeometry y="120" width="140" height="30" as="geometry" />
        </mxCell>
        <mxCell id="TK6vyfR3TE-BbToF-Jqf-29" value="number_of_rentals" style="text;strokeColor=none;fillColor=none;align=left;verticalAlign=middle;spacingLeft=4;spacingRight=4;overflow=hidden;points=[[0,0.5],[1,0.5]];portConstraint=eastwest;rotatable=0;whiteSpace=wrap;html=1;" parent="TK6vyfR3TE-BbToF-Jqf-20" vertex="1">
          <mxGeometry y="150" width="140" height="30" as="geometry" />
        </mxCell>
        <mxCell id="TK6vyfR3TE-BbToF-Jqf-24" value="Clerk" style="swimlane;fontStyle=0;childLayout=stackLayout;horizontal=1;startSize=30;horizontalStack=0;resizeParent=1;resizeParentMax=0;resizeLast=0;collapsible=1;marginBottom=0;whiteSpace=wrap;html=1;" parent="1" vertex="1">
          <mxGeometry x="490" y="230" width="140" height="60" as="geometry" />
        </mxCell>
        <mxCell id="TK6vyfR3TE-BbToF-Jqf-30" value="Lease" style="swimlane;fontStyle=0;childLayout=stackLayout;horizontal=1;startSize=30;horizontalStack=0;resizeParent=1;resizeParentMax=0;resizeLast=0;collapsible=1;marginBottom=0;whiteSpace=wrap;html=1;" parent="1" vertex="1">
          <mxGeometry x="280" y="430" width="150" height="300" as="geometry" />
        </mxCell>
        <mxCell id="TK6vyfR3TE-BbToF-Jqf-31" value="vehicle" style="text;strokeColor=none;fillColor=none;align=left;verticalAlign=middle;spacingLeft=4;spacingRight=4;overflow=hidden;points=[[0,0.5],[1,0.5]];portConstraint=eastwest;rotatable=0;whiteSpace=wrap;html=1;" parent="TK6vyfR3TE-BbToF-Jqf-30" vertex="1">
          <mxGeometry y="30" width="150" height="30" as="geometry" />
        </mxCell>
        <mxCell id="TK6vyfR3TE-BbToF-Jqf-32" value="customer" style="text;strokeColor=none;fillColor=none;align=left;verticalAlign=middle;spacingLeft=4;spacingRight=4;overflow=hidden;points=[[0,0.5],[1,0.5]];portConstraint=eastwest;rotatable=0;whiteSpace=wrap;html=1;" parent="TK6vyfR3TE-BbToF-Jqf-30" vertex="1">
          <mxGeometry y="60" width="150" height="30" as="geometry" />
        </mxCell>
        <mxCell id="TK6vyfR3TE-BbToF-Jqf-33" value="clerk" style="text;strokeColor=none;fillColor=none;align=left;verticalAlign=middle;spacingLeft=4;spacingRight=4;overflow=hidden;points=[[0,0.5],[1,0.5]];portConstraint=eastwest;rotatable=0;whiteSpace=wrap;html=1;" parent="TK6vyfR3TE-BbToF-Jqf-30" vertex="1">
          <mxGeometry y="90" width="150" height="30" as="geometry" />
        </mxCell>
        <mxCell id="TK6vyfR3TE-BbToF-Jqf-34" value="date_of_pick_up" style="text;strokeColor=none;fillColor=none;align=left;verticalAlign=middle;spacingLeft=4;spacingRight=4;overflow=hidden;points=[[0,0.5],[1,0.5]];portConstraint=eastwest;rotatable=0;whiteSpace=wrap;html=1;" parent="TK6vyfR3TE-BbToF-Jqf-30" vertex="1">
          <mxGeometry y="120" width="150" height="30" as="geometry" />
        </mxCell>
        <mxCell id="TK6vyfR3TE-BbToF-Jqf-35" value="date_of_return" style="text;strokeColor=none;fillColor=none;align=left;verticalAlign=middle;spacingLeft=4;spacingRight=4;overflow=hidden;points=[[0,0.5],[1,0.5]];portConstraint=eastwest;rotatable=0;whiteSpace=wrap;html=1;" parent="TK6vyfR3TE-BbToF-Jqf-30" vertex="1">
          <mxGeometry y="150" width="150" height="30" as="geometry" />
        </mxCell>
        <mxCell id="TK6vyfR3TE-BbToF-Jqf-36" value="kilometers_driven_before" style="text;strokeColor=none;fillColor=none;align=left;verticalAlign=middle;spacingLeft=4;spacingRight=4;overflow=hidden;points=[[0,0.5],[1,0.5]];portConstraint=eastwest;rotatable=0;whiteSpace=wrap;html=1;" parent="TK6vyfR3TE-BbToF-Jqf-30" vertex="1">
          <mxGeometry y="180" width="150" height="30" as="geometry" />
        </mxCell>
        <mxCell id="TK6vyfR3TE-BbToF-Jqf-37" value="kilometers_driven_after" style="text;strokeColor=none;fillColor=none;align=left;verticalAlign=middle;spacingLeft=4;spacingRight=4;overflow=hidden;points=[[0,0.5],[1,0.5]];portConstraint=eastwest;rotatable=0;whiteSpace=wrap;html=1;" parent="TK6vyfR3TE-BbToF-Jqf-30" vertex="1">
          <mxGeometry y="210" width="150" height="30" as="geometry" />
        </mxCell>
        <mxCell id="TK6vyfR3TE-BbToF-Jqf-38" value="insurance_accepted" style="text;strokeColor=none;fillColor=none;align=left;verticalAlign=middle;spacingLeft=4;spacingRight=4;overflow=hidden;points=[[0,0.5],[1,0.5]];portConstraint=eastwest;rotatable=0;whiteSpace=wrap;html=1;" parent="TK6vyfR3TE-BbToF-Jqf-30" vertex="1">
          <mxGeometry y="240" width="150" height="30" as="geometry" />
        </mxCell>
        <mxCell id="TK6vyfR3TE-BbToF-Jqf-39" value="price" style="text;strokeColor=none;fillColor=none;align=left;verticalAlign=middle;spacingLeft=4;spacingRight=4;overflow=hidden;points=[[0,0.5],[1,0.5]];portConstraint=eastwest;rotatable=0;whiteSpace=wrap;html=1;" parent="TK6vyfR3TE-BbToF-Jqf-30" vertex="1">
          <mxGeometry y="270" width="150" height="30" as="geometry" />
        </mxCell>
        <mxCell id="TK6vyfR3TE-BbToF-Jqf-40" value="Cleaner" style="swimlane;fontStyle=0;childLayout=stackLayout;horizontal=1;startSize=30;horizontalStack=0;resizeParent=1;resizeParentMax=0;resizeLast=0;collapsible=1;marginBottom=0;whiteSpace=wrap;html=1;" parent="1" vertex="1">
          <mxGeometry x="670" y="230" width="140" height="60" as="geometry" />
        </mxCell>
        <mxCell id="TK6vyfR3TE-BbToF-Jqf-41" value="hours_per_week" style="text;strokeColor=none;fillColor=none;align=left;verticalAlign=middle;spacingLeft=4;spacingRight=4;overflow=hidden;points=[[0,0.5],[1,0.5]];portConstraint=eastwest;rotatable=0;whiteSpace=wrap;html=1;" parent="TK6vyfR3TE-BbToF-Jqf-40" vertex="1">
          <mxGeometry y="30" width="140" height="30" as="geometry" />
        </mxCell>
        <mxCell id="TK6vyfR3TE-BbToF-Jqf-44" value="Employee" style="swimlane;fontStyle=0;childLayout=stackLayout;horizontal=1;startSize=30;horizontalStack=0;resizeParent=1;resizeParentMax=0;resizeLast=0;collapsible=1;marginBottom=0;whiteSpace=wrap;html=1;" parent="1" vertex="1">
          <mxGeometry x="490" y="10" width="140" height="120" as="geometry" />
        </mxCell>
        <mxCell id="TK6vyfR3TE-BbToF-Jqf-45" value="name" style="text;strokeColor=none;fillColor=none;align=left;verticalAlign=middle;spacingLeft=4;spacingRight=4;overflow=hidden;points=[[0,0.5],[1,0.5]];portConstraint=eastwest;rotatable=0;whiteSpace=wrap;html=1;" parent="TK6vyfR3TE-BbToF-Jqf-44" vertex="1">
          <mxGeometry y="30" width="140" height="30" as="geometry" />
        </mxCell>
        <mxCell id="TK6vyfR3TE-BbToF-Jqf-46" value="phone_number" style="text;strokeColor=none;fillColor=none;align=left;verticalAlign=middle;spacingLeft=4;spacingRight=4;overflow=hidden;points=[[0,0.5],[1,0.5]];portConstraint=eastwest;rotatable=0;whiteSpace=wrap;html=1;" parent="TK6vyfR3TE-BbToF-Jqf-44" vertex="1">
          <mxGeometry y="60" width="140" height="30" as="geometry" />
        </mxCell>
        <mxCell id="TK6vyfR3TE-BbToF-Jqf-47" value="hourly_pay" style="text;strokeColor=none;fillColor=none;align=left;verticalAlign=middle;spacingLeft=4;spacingRight=4;overflow=hidden;points=[[0,0.5],[1,0.5]];portConstraint=eastwest;rotatable=0;whiteSpace=wrap;html=1;" parent="TK6vyfR3TE-BbToF-Jqf-44" vertex="1">
          <mxGeometry y="90" width="140" height="30" as="geometry" />
        </mxCell>
        <mxCell id="TK6vyfR3TE-BbToF-Jqf-48" value="Accountant" style="swimlane;fontStyle=0;childLayout=stackLayout;horizontal=1;startSize=30;horizontalStack=0;resizeParent=1;resizeParentMax=0;resizeLast=0;collapsible=1;marginBottom=0;whiteSpace=wrap;html=1;" parent="1" vertex="1">
          <mxGeometry x="150" y="230" width="140" height="60" as="geometry" />
        </mxCell>
        <mxCell id="TK6vyfR3TE-BbToF-Jqf-52" value="Customer Service" style="swimlane;fontStyle=0;childLayout=stackLayout;horizontal=1;startSize=30;horizontalStack=0;resizeParent=1;resizeParentMax=0;resizeLast=0;collapsible=1;marginBottom=0;whiteSpace=wrap;html=1;" parent="1" vertex="1">
          <mxGeometry x="320" y="230" width="140" height="60" as="geometry" />
        </mxCell>
        <mxCell id="TK6vyfR3TE-BbToF-Jqf-56" value="" style="endArrow=none;html=1;rounded=0;entryX=0.5;entryY=1;entryDx=0;entryDy=0;exitX=0.553;exitY=-0.005;exitDx=0;exitDy=0;exitPerimeter=0;" parent="1" source="TK6vyfR3TE-BbToF-Jqf-30" target="TK6vyfR3TE-BbToF-Jqf-24" edge="1">
          <mxGeometry width="50" height="50" relative="1" as="geometry">
            <mxPoint x="410" y="490" as="sourcePoint" />
            <mxPoint x="460" y="440" as="targetPoint" />
            <Array as="points">
              <mxPoint x="365" y="370" />
              <mxPoint x="560" y="370" />
            </Array>
          </mxGeometry>
        </mxCell>
        <mxCell id="TK6vyfR3TE-BbToF-Jqf-84" value="1" style="edgeLabel;html=1;align=center;verticalAlign=middle;resizable=0;points=[];" parent="TK6vyfR3TE-BbToF-Jqf-56" vertex="1" connectable="0">
          <mxGeometry x="0.8299" y="4" relative="1" as="geometry">
            <mxPoint y="1" as="offset" />
          </mxGeometry>
        </mxCell>
        <mxCell id="TK6vyfR3TE-BbToF-Jqf-85" value="0..*" style="edgeLabel;html=1;align=center;verticalAlign=middle;resizable=0;points=[];" parent="TK6vyfR3TE-BbToF-Jqf-56" vertex="1" connectable="0">
          <mxGeometry x="-0.8896" y="-1" relative="1" as="geometry">
            <mxPoint as="offset" />
          </mxGeometry>
        </mxCell>
        <mxCell id="TK6vyfR3TE-BbToF-Jqf-86" value="&amp;nbsp;&amp;lt; creates&amp;nbsp;" style="edgeLabel;html=1;align=center;verticalAlign=middle;resizable=0;points=[];" parent="TK6vyfR3TE-BbToF-Jqf-56" vertex="1" connectable="0">
          <mxGeometry x="-0.003" y="3" relative="1" as="geometry">
            <mxPoint y="1" as="offset" />
          </mxGeometry>
        </mxCell>
        <mxCell id="TK6vyfR3TE-BbToF-Jqf-57" value="" style="endArrow=none;html=1;rounded=0;exitX=1.007;exitY=0.217;exitDx=0;exitDy=0;exitPerimeter=0;entryX=-0.007;entryY=0.083;entryDx=0;entryDy=0;entryPerimeter=0;" parent="1" source="TK6vyfR3TE-BbToF-Jqf-23" target="TK6vyfR3TE-BbToF-Jqf-35" edge="1">
          <mxGeometry width="50" height="50" relative="1" as="geometry">
            <mxPoint x="410" y="490" as="sourcePoint" />
            <mxPoint x="460" y="440" as="targetPoint" />
          </mxGeometry>
        </mxCell>
        <mxCell id="TK6vyfR3TE-BbToF-Jqf-87" value="&amp;nbsp;1&amp;nbsp;" style="edgeLabel;html=1;align=center;verticalAlign=middle;resizable=0;points=[];" parent="TK6vyfR3TE-BbToF-Jqf-57" vertex="1" connectable="0">
          <mxGeometry x="-0.7645" y="2" relative="1" as="geometry">
            <mxPoint as="offset" />
          </mxGeometry>
        </mxCell>
        <mxCell id="TK6vyfR3TE-BbToF-Jqf-88" value="&amp;nbsp;0..*&amp;nbsp;" style="edgeLabel;html=1;align=center;verticalAlign=middle;resizable=0;points=[];" parent="TK6vyfR3TE-BbToF-Jqf-57" vertex="1" connectable="0">
          <mxGeometry x="0.6714" y="-2" relative="1" as="geometry">
            <mxPoint as="offset" />
          </mxGeometry>
        </mxCell>
        <mxCell id="TK6vyfR3TE-BbToF-Jqf-89" value="&amp;nbsp;has &amp;gt;&amp;nbsp;" style="edgeLabel;html=1;align=center;verticalAlign=middle;resizable=0;points=[];" parent="TK6vyfR3TE-BbToF-Jqf-57" vertex="1" connectable="0">
          <mxGeometry x="-0.2185" y="-1" relative="1" as="geometry">
            <mxPoint as="offset" />
          </mxGeometry>
        </mxCell>
        <mxCell id="TK6vyfR3TE-BbToF-Jqf-58" value="" style="endArrow=none;html=1;rounded=0;entryX=0.521;entryY=1.083;entryDx=0;entryDy=0;entryPerimeter=0;exitX=0.5;exitY=0;exitDx=0;exitDy=0;" parent="1" source="TK6vyfR3TE-BbToF-Jqf-24" target="TK6vyfR3TE-BbToF-Jqf-47" edge="1">
          <mxGeometry width="50" height="50" relative="1" as="geometry">
            <mxPoint x="590" y="440" as="sourcePoint" />
            <mxPoint x="640" y="390" as="targetPoint" />
          </mxGeometry>
        </mxCell>
        <mxCell id="TK6vyfR3TE-BbToF-Jqf-59" value="" style="endArrow=none;html=1;rounded=0;entryX=0.5;entryY=0;entryDx=0;entryDy=0;exitX=0.536;exitY=1.083;exitDx=0;exitDy=0;exitPerimeter=0;" parent="1" source="TK6vyfR3TE-BbToF-Jqf-47" target="TK6vyfR3TE-BbToF-Jqf-40" edge="1">
          <mxGeometry width="50" height="50" relative="1" as="geometry">
            <mxPoint x="590" y="440" as="sourcePoint" />
            <mxPoint x="640" y="390" as="targetPoint" />
            <Array as="points">
              <mxPoint x="560" y="200" />
              <mxPoint x="740" y="200" />
            </Array>
          </mxGeometry>
        </mxCell>
        <mxCell id="TK6vyfR3TE-BbToF-Jqf-61" value="" style="endArrow=none;html=1;rounded=0;exitX=0.5;exitY=0;exitDx=0;exitDy=0;" parent="1" source="TK6vyfR3TE-BbToF-Jqf-48" edge="1">
          <mxGeometry width="50" height="50" relative="1" as="geometry">
            <mxPoint x="550" y="440" as="sourcePoint" />
            <mxPoint x="560" y="200" as="targetPoint" />
            <Array as="points">
              <mxPoint x="220" y="200" />
              <mxPoint x="390" y="200" />
            </Array>
          </mxGeometry>
        </mxCell>
        <mxCell id="TK6vyfR3TE-BbToF-Jqf-63" value="" style="endArrow=none;html=1;rounded=0;exitX=0.5;exitY=0;exitDx=0;exitDy=0;entryX=1;entryY=0.5;entryDx=0;entryDy=0;" parent="1" source="TK6vyfR3TE-BbToF-Jqf-52" target="TK6vyfR3TE-BbToF-Jqf-62" edge="1">
          <mxGeometry width="50" height="50" relative="1" as="geometry">
            <mxPoint x="390" y="230" as="sourcePoint" />
            <mxPoint x="562" y="132" as="targetPoint" />
            <Array as="points">
              <mxPoint x="390" y="200" />
              <mxPoint x="560" y="200" />
            </Array>
          </mxGeometry>
        </mxCell>
        <mxCell id="TK6vyfR3TE-BbToF-Jqf-78" value="{ mandatory, or }" style="edgeLabel;html=1;align=center;verticalAlign=middle;resizable=0;points=[];" parent="TK6vyfR3TE-BbToF-Jqf-63" vertex="1" connectable="0">
          <mxGeometry x="0.6185" y="2" relative="1" as="geometry">
            <mxPoint as="offset" />
          </mxGeometry>
        </mxCell>
        <mxCell id="TK6vyfR3TE-BbToF-Jqf-62" value="" style="triangle;whiteSpace=wrap;html=1;rotation=-90;" parent="1" vertex="1">
          <mxGeometry x="550" y="130" width="20" height="20" as="geometry" />
        </mxCell>
        <mxCell id="TK6vyfR3TE-BbToF-Jqf-66" value="" style="endArrow=none;html=1;rounded=0;exitX=1;exitY=-0.05;exitDx=0;exitDy=0;exitPerimeter=0;entryX=0.007;entryY=0.817;entryDx=0;entryDy=0;entryPerimeter=0;" parent="1" source="TK6vyfR3TE-BbToF-Jqf-35" target="TK6vyfR3TE-BbToF-Jqf-4" edge="1">
          <mxGeometry width="50" height="50" relative="1" as="geometry">
            <mxPoint x="570" y="600" as="sourcePoint" />
            <mxPoint x="620" y="550" as="targetPoint" />
          </mxGeometry>
        </mxCell>
        <mxCell id="TK6vyfR3TE-BbToF-Jqf-90" value="&amp;nbsp;0..*&amp;nbsp;" style="edgeLabel;html=1;align=center;verticalAlign=middle;resizable=0;points=[];" parent="TK6vyfR3TE-BbToF-Jqf-66" vertex="1" connectable="0">
          <mxGeometry x="-0.6789" y="1" relative="1" as="geometry">
            <mxPoint as="offset" />
          </mxGeometry>
        </mxCell>
        <mxCell id="TK6vyfR3TE-BbToF-Jqf-91" value="&amp;nbsp;1&amp;nbsp;" style="edgeLabel;html=1;align=center;verticalAlign=middle;resizable=0;points=[];" parent="TK6vyfR3TE-BbToF-Jqf-66" vertex="1" connectable="0">
          <mxGeometry x="0.6486" y="1" relative="1" as="geometry">
            <mxPoint as="offset" />
          </mxGeometry>
        </mxCell>
        <mxCell id="TK6vyfR3TE-BbToF-Jqf-92" value="&amp;nbsp;leases &amp;gt;" style="edgeLabel;html=1;align=center;verticalAlign=middle;resizable=0;points=[];" parent="TK6vyfR3TE-BbToF-Jqf-66" vertex="1" connectable="0">
          <mxGeometry x="-0.0394" y="-2" relative="1" as="geometry">
            <mxPoint as="offset" />
          </mxGeometry>
        </mxCell>
        <mxCell id="TK6vyfR3TE-BbToF-Jqf-68" value="" style="endArrow=none;html=1;rounded=0;exitX=1;exitY=0.5;exitDx=0;exitDy=0;entryX=1.021;entryY=-0.05;entryDx=0;entryDy=0;entryPerimeter=0;" parent="1" source="TK6vyfR3TE-BbToF-Jqf-4" target="TK6vyfR3TE-BbToF-Jqf-41" edge="1">
          <mxGeometry width="50" height="50" relative="1" as="geometry">
            <mxPoint x="570" y="580" as="sourcePoint" />
            <mxPoint x="830" y="260" as="targetPoint" />
            <Array as="points">
              <mxPoint x="830" y="565" />
              <mxPoint x="830" y="260" />
            </Array>
          </mxGeometry>
        </mxCell>
        <mxCell id="TK6vyfR3TE-BbToF-Jqf-93" value="1..*" style="edgeLabel;html=1;align=center;verticalAlign=middle;resizable=0;points=[];" parent="TK6vyfR3TE-BbToF-Jqf-68" vertex="1" connectable="0">
          <mxGeometry x="0.8073" y="1" relative="1" as="geometry">
            <mxPoint as="offset" />
          </mxGeometry>
        </mxCell>
        <mxCell id="TK6vyfR3TE-BbToF-Jqf-94" value="&amp;nbsp;1..*&amp;nbsp;" style="edgeLabel;html=1;align=center;verticalAlign=middle;resizable=0;points=[];" parent="TK6vyfR3TE-BbToF-Jqf-68" vertex="1" connectable="0">
          <mxGeometry x="-0.838" y="-2" relative="1" as="geometry">
            <mxPoint y="1" as="offset" />
          </mxGeometry>
        </mxCell>
        <mxCell id="TK6vyfR3TE-BbToF-Jqf-70" value="" style="endArrow=none;html=1;rounded=0;entryX=0.5;entryY=0;entryDx=0;entryDy=0;" parent="1" source="TK6vyfR3TE-BbToF-Jqf-71" target="TK6vyfR3TE-BbToF-Jqf-5" edge="1">
          <mxGeometry width="50" height="50" relative="1" as="geometry">
            <mxPoint x="630" y="670" as="sourcePoint" />
            <mxPoint x="550" y="750" as="targetPoint" />
            <Array as="points">
              <mxPoint x="630" y="760" />
              <mxPoint x="710" y="760" />
            </Array>
          </mxGeometry>
        </mxCell>
        <mxCell id="TK6vyfR3TE-BbToF-Jqf-72" value="" style="endArrow=none;html=1;rounded=0;entryX=0.5;entryY=0;entryDx=0;entryDy=0;" parent="1" target="TK6vyfR3TE-BbToF-Jqf-71" edge="1">
          <mxGeometry width="50" height="50" relative="1" as="geometry">
            <mxPoint x="630" y="670" as="sourcePoint" />
            <mxPoint x="710" y="800" as="targetPoint" />
            <Array as="points" />
          </mxGeometry>
        </mxCell>
        <mxCell id="TK6vyfR3TE-BbToF-Jqf-71" value="" style="triangle;whiteSpace=wrap;html=1;rotation=-90;" parent="1" vertex="1">
          <mxGeometry x="620" y="670" width="20" height="20" as="geometry" />
        </mxCell>
        <mxCell id="TK6vyfR3TE-BbToF-Jqf-76" value="" style="endArrow=none;html=1;rounded=0;exitX=0.5;exitY=0;exitDx=0;exitDy=0;entryX=1;entryY=0.5;entryDx=0;entryDy=0;" parent="1" source="TK6vyfR3TE-BbToF-Jqf-9" target="TK6vyfR3TE-BbToF-Jqf-71" edge="1">
          <mxGeometry width="50" height="50" relative="1" as="geometry">
            <mxPoint x="500" y="800" as="sourcePoint" />
            <mxPoint x="550" y="750" as="targetPoint" />
            <Array as="points">
              <mxPoint x="530" y="760" />
              <mxPoint x="630" y="760" />
            </Array>
          </mxGeometry>
        </mxCell>
        <mxCell id="TK6vyfR3TE-BbToF-Jqf-77" value="{ mandatory, or }" style="edgeLabel;html=1;align=center;verticalAlign=middle;resizable=0;points=[];" parent="TK6vyfR3TE-BbToF-Jqf-76" vertex="1" connectable="0">
          <mxGeometry x="0.3522" y="1" relative="1" as="geometry">
            <mxPoint y="1" as="offset" />
          </mxGeometry>
        </mxCell>
        <mxCell id="TK6vyfR3TE-BbToF-Jqf-79" value="" style="endArrow=none;dashed=1;html=1;dashPattern=1 3;strokeWidth=2;rounded=0;entryX=1;entryY=0.05;entryDx=0;entryDy=0;entryPerimeter=0;" parent="1" target="TK6vyfR3TE-BbToF-Jqf-82" edge="1">
          <mxGeometry width="50" height="50" relative="1" as="geometry">
            <mxPoint x="830" y="382" as="sourcePoint" />
            <mxPoint x="830" y="370" as="targetPoint" />
            <Array as="points">
              <mxPoint x="800" y="382" />
            </Array>
          </mxGeometry>
        </mxCell>
        <mxCell id="TK6vyfR3TE-BbToF-Jqf-80" value="cleans" style="swimlane;fontStyle=0;childLayout=stackLayout;horizontal=1;startSize=30;horizontalStack=0;resizeParent=1;resizeParentMax=0;resizeLast=0;collapsible=1;marginBottom=0;whiteSpace=wrap;html=1;" parent="1" vertex="1">
          <mxGeometry x="640" y="320" width="140" height="120" as="geometry" />
        </mxCell>
        <mxCell id="TK6vyfR3TE-BbToF-Jqf-81" value="date" style="text;strokeColor=none;fillColor=none;align=left;verticalAlign=middle;spacingLeft=4;spacingRight=4;overflow=hidden;points=[[0,0.5],[1,0.5]];portConstraint=eastwest;rotatable=0;whiteSpace=wrap;html=1;" parent="TK6vyfR3TE-BbToF-Jqf-80" vertex="1">
          <mxGeometry y="30" width="140" height="30" as="geometry" />
        </mxCell>
        <mxCell id="TK6vyfR3TE-BbToF-Jqf-82" value="time" style="text;strokeColor=none;fillColor=none;align=left;verticalAlign=middle;spacingLeft=4;spacingRight=4;overflow=hidden;points=[[0,0.5],[1,0.5]];portConstraint=eastwest;rotatable=0;whiteSpace=wrap;html=1;" parent="TK6vyfR3TE-BbToF-Jqf-80" vertex="1">
          <mxGeometry y="60" width="140" height="30" as="geometry" />
        </mxCell>
        <mxCell id="TK6vyfR3TE-BbToF-Jqf-83" value="comment" style="text;strokeColor=none;fillColor=none;align=left;verticalAlign=middle;spacingLeft=4;spacingRight=4;overflow=hidden;points=[[0,0.5],[1,0.5]];portConstraint=eastwest;rotatable=0;whiteSpace=wrap;html=1;" parent="TK6vyfR3TE-BbToF-Jqf-80" vertex="1">
          <mxGeometry y="90" width="140" height="30" as="geometry" />
        </mxCell>
      </root>
    </mxGraphModel>
  </diagram>
</mxfile>
